<svg width="102" height="48" viewBox="0 0 102 48" fill="none" xmlns="http://www.w3.org/2000/svg">
<path d="M1.40145 35.1269C1.07084 34.9052 0.623076 34.9935 0.40136 35.3241C0.179643 35.6547 0.267932 36.1025 0.598557 36.3242L1.40145 35.1269ZM93.3617 9.10161C85.9764 4.83757 78.6354 5.99071 71.3451 9.59049C64.0951 13.1704 56.7519 19.2419 49.2974 24.9827C41.7977 30.7583 34.1665 36.2173 26.2213 38.7705C18.3305 41.3063 10.1257 40.9774 1.40145 35.1269L0.598557 36.3242C9.72399 42.4437 18.3939 42.8001 26.6624 40.143C34.8764 37.5034 42.689 31.8915 50.177 26.1249C57.7101 20.3235 64.8985 14.3814 71.9834 10.8831C79.0279 7.40464 85.8252 6.4149 92.6409 10.35L93.3617 9.10161Z" fill="url(#paint0_linear_484_1766)"/>
<path d="M98.3822 12.6686L89.5714 13.3953L94.6062 4.67479L98.3822 12.6686Z" fill="#99A4F1" fill-opacity="0.8"/>
<defs>
<linearGradient id="paint0_linear_484_1766" x1="3.03252" y1="35.3839" x2="108" y2="13.7256" gradientUnits="userSpaceOnUse">
<stop stop-color="#8796FF" stop-opacity="0"/>
<stop offset="0.385417" stop-color="#5F6CFF" stop-opacity="0.78"/>
<stop offset="1" stop-color="#9BA5F2"/>
</linearGradient>
</defs>
</svg>
