<svg width="46" height="100" viewBox="0 0 46 100" fill="none" xmlns="http://www.w3.org/2000/svg">
<path d="M1.33912 94.3129L7.25107 87.7396L9.57046 97.5384L1.33912 94.3129Z" fill="#35D2CC"/>
<path d="M8.29708 92.2293C7.91486 92.3406 7.69521 92.7406 7.80647 93.1228C7.91773 93.5051 8.31777 93.7247 8.69999 93.6135L8.29708 92.2293ZM8.69999 93.6135C18.7454 90.6893 24.0928 85.6871 26.8792 79.2235C29.6347 72.8316 29.8443 65.0885 29.8443 56.7978C29.8443 40.1273 28.9977 20.9282 45.0232 3.91561L43.9739 2.92715C27.4993 20.4165 28.4027 40.2184 28.4027 56.7978C28.4027 65.1322 28.1749 72.5763 25.5554 78.6528C22.9668 84.6574 18.0016 89.4044 8.29708 92.2293L8.69999 93.6135Z" fill="url(#paint0_linear_484_1763)"/>
<defs>
<linearGradient id="paint0_linear_484_1763" x1="27.4985" y1="8.42138" x2="9.48969" y2="94.6221" gradientUnits="userSpaceOnUse">
<stop stop-color="#9AA4F1" stop-opacity="0"/>
<stop offset="0.494792" stop-color="#9AA4F1" stop-opacity="0.88"/>
<stop offset="1" stop-color="#35D2CC" stop-opacity="0.8"/>
</linearGradient>
</defs>
</svg>
