<svg width="157" height="206" viewBox="0 0 157 206" fill="none" xmlns="http://www.w3.org/2000/svg">
<path d="M1.85082 32.0342C0.828641 25.8587 5.00615 20.024 11.1816 19.0018L114.797 1.85081C120.973 0.828632 126.807 5.00614 127.83 11.1815L153.248 164.742C154.27 170.917 150.092 176.752 143.917 177.774L40.3012 194.925C34.1258 195.947 28.291 191.77 27.2688 185.594L1.85082 32.0342Z" fill="white"/>
<path d="M99.2638 185.165L95.5551 193.013C95.4491 193.237 95.3251 193.454 95.1756 193.652C94.054 195.136 93.3235 195.255 91.7859 194.209C91.5799 194.069 91.3923 193.903 91.2195 193.723L85.2137 187.491L99.2638 185.165Z" fill="white"/>
<rect x="19.1682" y="97.3294" width="114.848" height="27.9565" rx="5.28906" transform="rotate(-9.39865 19.1682 97.3294)" fill="white" fill-opacity="0.01"/>
<path d="M151.458 153.932C115.662 145.881 58.3653 91.2244 41.3713 14.0042C135.296 -1.54487 108.906 2.82534 113.306 2.09702C115.376 1.75435 115.803 1.62616 116.878 1.69703C118.027 1.69831 119.178 1.9657 120.231 2.29079C121.038 2.54012 122.279 3.10047 123.365 3.87804C124.154 4.52591 125.134 5.30849 125.909 6.52047C126.126 6.67598 126.932 8.07431 127.35 9.23591C127.555 9.90344 127.675 10.2489 127.922 11.7401C127.922 11.7401 139.342 80.7318 151.458 153.932Z" fill="#2132AB" fill-opacity="0.01"/>
<rect x="24.1677" y="127.518" width="114.848" height="27.9565" rx="5.28906" transform="rotate(-9.39865 24.1677 127.518)" fill="white" fill-opacity="0.01"/>
<circle cx="37.1974" cy="139.146" r="1.51116" transform="rotate(-9.39865 37.1974 139.146)" fill="#E8EEF4"/>
<rect x="125.777" y="126.741" width="7.87443" height="4.42937" rx="2.21468" transform="rotate(-9.39865 125.777 126.741)" fill="#ADB8FA"/>
<path fill-rule="evenodd" clip-rule="evenodd" d="M128.387 118.632C129.86 118.388 131.251 119.385 131.495 120.858C131.739 122.331 130.743 123.723 129.27 123.966C127.797 124.21 126.405 123.214 126.161 121.741C125.917 120.268 126.914 118.876 128.387 118.632Z" fill="black" fill-opacity="0.01" stroke="#ADB8FA" stroke-width="0.536218"/>
<path fill-rule="evenodd" clip-rule="evenodd" d="M128.829 121.296L128.586 121.337L128.305 119.639L128.548 119.599L128.829 121.296Z" fill="black" fill-opacity="0.01" stroke="#ADB8FA" stroke-width="0.268109"/>
<path fill-rule="evenodd" clip-rule="evenodd" d="M130.196 121.708L130.123 121.943L128.548 121.456L128.621 121.221L130.196 121.708Z" fill="black" fill-opacity="0.01" stroke="#ADB8FA" stroke-width="0.268109"/>
<rect x="14.1736" y="67.1393" width="114.848" height="27.9565" rx="5.28906" transform="rotate(-9.39865 14.1736 67.1393)" fill="white" fill-opacity="0.01"/>
<circle cx="27.2022" cy="78.7693" r="1.51116" transform="rotate(-9.39865 27.2022 78.7693)" fill="#E8EEF4"/>
<path d="M116.174 68.7169C115.974 67.5102 116.79 66.37 117.997 66.1703L121.396 65.6077C122.603 65.4079 123.743 66.2242 123.943 67.431C124.142 68.6377 123.326 69.7778 122.119 69.9776L118.721 70.5402C117.514 70.7399 116.374 69.9236 116.174 68.7169Z" fill="#ADB8FA"/>
<path fill-rule="evenodd" clip-rule="evenodd" d="M118.392 58.2519C119.865 58.0081 121.257 59.0045 121.501 60.4775C121.745 61.9506 120.748 63.3423 119.275 63.5862C117.802 63.83 116.41 62.8335 116.167 61.3605C115.923 59.8874 116.919 58.4957 118.392 58.2519Z" fill="black" fill-opacity="0.01" stroke="#ADB8FA" stroke-width="0.536218"/>
<path fill-rule="evenodd" clip-rule="evenodd" d="M118.834 60.9179L118.592 60.958L118.311 59.2607L118.553 59.2206L118.834 60.9179Z" fill="black" fill-opacity="0.01" stroke="#ADB8FA" stroke-width="0.268109"/>
<path fill-rule="evenodd" clip-rule="evenodd" d="M120.203 61.3277L120.131 61.5625L118.556 61.076L118.628 60.8411L120.203 61.3277Z" fill="black" fill-opacity="0.01" stroke="#ADB8FA" stroke-width="0.268109"/>
<rect x="35.7896" y="71.3" width="35.4349" height="4.42937" rx="2.21468" transform="rotate(-9.39865 35.7896 71.3)" fill="#CACFD8"/>
<rect x="73.175" y="65.1113" width="35.4349" height="4.42937" rx="2.21468" transform="rotate(-9.39865 73.175 65.1113)" fill="#CACFD8"/>
<rect x="37.0742" y="79.067" width="27.0683" height="4.42937" rx="2.21468" transform="rotate(-9.39865 37.0742 79.067)" fill="#CACFD8"/>
<rect x="67.6626" y="74.0054" width="27.0683" height="4.42937" rx="2.21468" transform="rotate(-9.39865 67.6626 74.0054)" fill="#CACFD8"/>
<rect x="40.8523" y="101.888" width="27.0683" height="4.42937" rx="2.21468" transform="rotate(-9.39865 40.8523 101.888)" fill="#CACFD8"/>
<rect x="71.4407" y="96.8249" width="42.325" height="4.42937" rx="2.21468" transform="rotate(-9.39865 71.4407 96.8249)" fill="#CACFD8"/>
<rect x="42.1384" y="109.657" width="37.8957" height="4.42937" rx="2.21468" transform="rotate(-9.39865 42.1384 109.657)" fill="#CACFD8"/>
<rect x="82.4382" y="102.989" width="27.0683" height="4.42937" rx="2.21468" transform="rotate(-9.39865 82.4382 102.989)" fill="#CACFD8"/>
<rect x="45.8352" y="131.992" width="13.7802" height="4.42937" rx="2.21468" transform="rotate(-9.39865 45.8352 131.992)" fill="#CACFD8"/>
<rect x="62.3418" y="129.26" width="56.5974" height="4.42937" rx="2.21468" transform="rotate(-9.39865 62.3418 129.26)" fill="#CACFD8"/>
<rect x="47.1216" y="139.761" width="36.9114" height="4.42937" rx="2.21468" transform="rotate(-9.39865 47.1216 139.761)" fill="#CACFD8"/>
<rect x="87.4211" y="133.091" width="12.7959" height="4.42937" rx="2.21468" transform="rotate(-9.39865 87.4211 133.091)" fill="#CACFD8"/>
<circle cx="32.1979" cy="108.955" r="1.51116" transform="rotate(-9.39865 32.1979 108.955)" fill="#E8EEF4"/>
<rect x="120.792" y="96.6341" width="7.87443" height="4.42937" rx="2.21468" transform="rotate(-9.39865 120.792 96.6341)" fill="#ADB8FA"/>
<path fill-rule="evenodd" clip-rule="evenodd" d="M123.385 88.4387C124.858 88.1949 126.25 89.1913 126.494 90.6643C126.738 92.1374 125.741 93.5291 124.268 93.773C122.795 94.0168 121.403 93.0203 121.159 91.5473C120.916 90.0742 121.912 88.6825 123.385 88.4387Z" fill="black" fill-opacity="0.01" stroke="#ADB8FA" stroke-width="0.536218"/>
<path fill-rule="evenodd" clip-rule="evenodd" d="M123.827 91.1047L123.585 91.1448L123.304 89.4475L123.546 89.4074L123.827 91.1047Z" fill="black" fill-opacity="0.01" stroke="#ADB8FA" stroke-width="0.268109"/>
<path fill-rule="evenodd" clip-rule="evenodd" d="M125.196 91.5145L125.124 91.7493L123.549 91.2628L123.621 91.0279L125.196 91.5145Z" fill="black" fill-opacity="0.01" stroke="#ADB8FA" stroke-width="0.268109"/>
<g clip-path="url(#clip0_484_1366)" filter="url(#filter0_d_484_1366)">
<rect x="34.9019" y="164.418" width="107.233" height="21.9118" rx="5.66685" transform="rotate(-9.39865 34.9019 164.418)" fill="#5468FF"/>
<g clip-path="url(#clip1_484_1366)">
<rect width="11.3337" height="11.3337" transform="translate(124.812 154.898) rotate(-9.39865)" fill="#5468FF"/>
<path fill-rule="evenodd" clip-rule="evenodd" d="M132.253 165.154C135.341 164.643 137.43 161.726 136.918 158.638C136.407 155.551 133.49 153.462 130.402 153.973C127.315 154.484 125.226 157.401 125.737 160.489C126.248 163.577 129.165 165.666 132.253 165.154Z" fill="#3D56F0"/>
<path fill-rule="evenodd" clip-rule="evenodd" d="M128.942 159.457L132.318 158.899L130.593 157.663C130.454 157.564 130.424 157.372 130.526 157.235C130.628 157.098 130.823 157.067 130.962 157.167L133.506 158.988C133.522 158.999 133.525 159.021 133.514 159.036L131.689 161.585C131.592 161.722 131.402 161.753 131.265 161.655C131.129 161.557 131.097 161.367 131.194 161.23L132.418 159.504L129.042 160.063C128.874 160.091 128.717 159.978 128.689 159.81C128.661 159.643 128.774 159.485 128.942 159.457Z" fill="white"/>
</g>
<path d="M70.9731 171.886C70.1441 172.024 69.4182 171.635 69.1735 170.898L69.8824 170.59C70.018 171.076 70.3924 171.302 70.8754 171.222C71.2929 171.153 71.5267 170.9 71.4684 170.548C71.4211 170.262 71.1768 170.119 70.522 169.976C69.5951 169.78 69.2327 169.515 69.133 168.913C69.0215 168.239 69.4643 167.694 70.2395 167.566C70.8001 167.473 71.2838 167.656 71.6291 168.114L71.0721 168.598C70.8777 168.312 70.6055 168.185 70.3252 168.232C70.0271 168.281 69.833 168.515 69.8755 168.772C69.9209 169.046 70.1493 169.168 70.8159 169.309C71.7608 169.501 72.1053 169.769 72.203 170.359C72.3313 171.135 71.8258 171.745 70.9731 171.886ZM74.2769 171.26L73.7024 167.789L72.4024 168.004L72.2889 167.319L75.6403 166.764L75.7539 167.45L74.4538 167.665L75.0283 171.136L74.2769 171.26ZM79.4486 170.404L78.9904 169.597L77.3623 169.867L77.1884 170.778L76.3774 170.912L77.3532 166.48L77.9137 166.387L80.2596 170.27L79.4486 170.404ZM77.5052 169.139L78.6264 168.953L77.8151 167.531L77.5052 169.139ZM84.3069 169.6L83.4422 169.743L82.161 168.184L81.9106 168.226L81.6362 168.271L81.9215 169.995L81.182 170.117L80.494 165.96L81.8537 165.735C82.8436 165.571 83.3421 165.955 83.4655 166.7C83.5642 167.296 83.353 167.723 82.8857 167.972L84.3069 169.6ZM81.5227 167.585L82.0654 167.495C82.5484 167.415 82.7891 167.241 82.722 166.835C82.6549 166.43 82.3727 166.354 81.8897 166.434L81.347 166.524L81.5227 167.585ZM86.0874 169.305L85.5129 165.834L84.2129 166.049L84.0994 165.364L87.4509 164.809L87.5644 165.495L86.2643 165.71L86.8388 169.181L86.0874 169.305ZM93.4779 168.082L93.0197 167.275L91.3917 167.545L91.2178 168.456L90.4067 168.59L91.3825 164.158L91.9431 164.065L94.289 167.947L93.4779 168.082ZM91.5346 166.816L92.6557 166.631L91.8444 165.209L91.5346 166.816ZM96.3936 167.679C95.5647 167.816 94.8387 167.428 94.5941 166.69L95.303 166.383C95.4386 166.869 95.8129 167.095 96.296 167.015C96.7134 166.946 96.9472 166.693 96.889 166.341C96.8416 166.054 96.5973 165.911 95.9426 165.768C95.0157 165.572 94.6533 165.308 94.5536 164.705C94.442 164.032 94.8848 163.486 95.6601 163.358C96.2207 163.265 96.7044 163.449 97.0497 163.906L96.4927 164.391C96.2982 164.104 96.0261 163.978 95.7458 164.024C95.4476 164.073 95.2536 164.308 95.296 164.564C95.3414 164.838 95.5699 164.96 96.2365 165.101C97.1813 165.294 97.5259 165.561 97.6236 166.152C97.7519 166.927 97.2464 167.538 96.3936 167.679ZM102.518 166.585L101.653 166.728L100.082 164.862L99.4223 165.799L99.6316 167.063L98.8862 167.186L98.1982 163.03L98.9436 162.907L99.2674 164.863L100.81 162.598L101.788 162.436L100.504 164.266L102.518 166.585ZM103.458 166.43L102.77 162.273L105.537 161.815L105.65 162.501L103.629 162.836L103.793 163.826L105.671 163.515L105.785 164.2L103.906 164.511L104.09 165.621L106.111 165.286L106.225 165.972L103.458 166.43ZM110.595 165.248L109.731 165.391L108.449 163.833L108.199 163.874L107.925 163.92L108.21 165.643L107.47 165.766L106.782 161.609L108.142 161.384C109.132 161.22 109.63 161.603 109.754 162.349C109.852 162.945 109.641 163.372 109.174 163.621L110.595 165.248ZM107.811 163.234L108.354 163.144C108.837 163.064 109.077 162.89 109.01 162.484C108.943 162.078 108.661 162.003 108.178 162.083L107.635 162.172L107.811 163.234Z" fill="white"/>
</g>
<g clip-path="url(#clip2_484_1366)">
<g filter="url(#filter1_d_484_1366)">
<path fill-rule="evenodd" clip-rule="evenodd" d="M32.7543 58.6888C42.1812 57.1284 48.5583 48.2216 46.9979 38.7947C45.4375 29.3678 36.5306 22.9909 27.1037 24.5513C17.6769 26.1116 11.2998 35.0185 12.8602 44.4453C14.4206 53.8722 23.3275 60.2492 32.7543 58.6888Z" fill="white"/>
</g>
<path fill-rule="evenodd" clip-rule="evenodd" d="M32.4947 56.3046C40.5437 54.9723 45.9887 47.3672 44.6563 39.3182C43.324 31.2692 35.719 25.8242 27.67 27.1565C19.621 28.4888 14.176 36.0939 15.5083 44.1429C16.8406 52.1919 24.4457 57.6369 32.4947 56.3046Z" fill="#AEB8FF"/>
<g filter="url(#filter2_d_484_1366)">
<path fill-rule="evenodd" clip-rule="evenodd" d="M23.1928 32.4955C19.0034 33.2813 16.1257 37.2548 16.6886 41.4799C16.9681 43.5789 18.024 45.3712 19.5217 46.6178C20.1961 47.179 20.5088 48.0651 20.3525 48.9285L20.0717 50.4807C19.9804 50.9856 20.5998 51.3017 20.955 50.9314L22.5816 49.2357C23.0657 48.7311 23.7417 48.4614 24.4405 48.4827C25.1683 48.5049 25.9137 48.4285 26.6624 48.2402C30.6005 47.2488 33.2029 43.4255 32.6837 39.3977C32.089 34.7844 27.7482 31.6409 23.1928 32.4955Z" fill="#5468FF"/>
</g>
<path fill-rule="evenodd" clip-rule="evenodd" d="M24.384 45.724C24.351 46.3886 23.7547 46.9438 23.0902 46.9107C22.377 46.8753 21.8711 46.2652 21.9042 45.6007C21.938 44.9199 22.5012 44.3792 23.2143 44.4147C23.8789 44.4478 24.4179 45.0433 24.384 45.724ZM24.2293 42.6291C24.2043 43.1316 23.6427 43.315 23.2537 43.2956C22.735 43.2698 22.3079 43.0373 22.3329 42.5348C22.4289 40.606 22.3398 37.8231 22.4358 35.8942C22.4672 35.2621 23.0037 34.9313 23.6682 34.9644C24.3003 34.9958 24.8175 35.379 24.786 36.0111C24.69 37.94 24.3253 40.7003 24.2293 42.6291Z" fill="white"/>
<g filter="url(#filter3_d_484_1366)">
<path fill-rule="evenodd" clip-rule="evenodd" d="M42.3782 45.766C41.8393 46.69 41.8076 47.8235 42.3265 48.7582L42.6948 49.4215C42.4381 49.8422 42.1603 50.2501 41.8629 50.6434L40.1064 49.7344C39.3652 49.3517 38.499 49.2947 37.7148 49.579C37.2093 49.7629 36.6394 49.9459 36.2153 50.0161C31.4237 50.8092 26.897 47.5683 26.1039 42.7767C25.3109 37.9899 28.5558 33.4577 33.3433 32.6652C38.1343 31.8722 42.6615 35.1131 43.4547 39.9047C43.8028 42.0068 43.3736 44.0587 42.3782 45.766Z" fill="white"/>
</g>
<path fill-rule="evenodd" clip-rule="evenodd" d="M36.497 41.3796C35.794 42.1446 35.8522 42.5876 35.9785 43.3512C36.0247 43.6302 35.9313 43.9775 35.2118 44.0966C34.6099 44.1962 34.3678 44.01 34.2414 43.2464C34.0324 41.9836 34.4907 41.2892 34.8558 40.8516C35.2724 40.3603 36.0192 39.7689 35.888 38.9761C35.7762 38.3006 35.1354 38.0747 34.4011 38.1962C32.9034 38.4441 33.4136 39.5214 32.6207 39.6526C32.2242 39.7183 31.6959 39.5342 31.6011 38.9614C31.4699 38.1686 32.1858 36.843 34.1682 36.5149C36.0477 36.2038 37.4684 37.0398 37.6969 38.4201C37.9254 39.8003 36.8425 41.0055 36.497 41.3796ZM36.7121 46.0509C36.8118 46.6529 36.3999 47.2642 35.7686 47.3687C35.1372 47.4732 34.5651 47.0247 34.4654 46.4228C34.3633 45.8061 34.7776 45.2095 35.3943 45.1074C36.0109 45.0053 36.6101 45.4342 36.7121 46.0509Z" fill="#00D9CD"/>
<path fill-rule="evenodd" clip-rule="evenodd" d="M30.4642 38.5692C30.4031 38.2002 30.0544 37.9506 29.6854 38.0117C29.3164 38.0728 29.0669 38.4214 29.128 38.7903L29.5703 41.4628L26.8979 41.9052C26.5284 41.9663 26.2791 42.3144 26.3403 42.6838C26.4014 43.0533 26.7496 43.3025 27.119 43.2413L29.7915 42.799L30.2338 45.4714C30.2949 45.8404 30.6434 46.09 31.0125 46.0289C31.3815 45.9678 31.6311 45.6192 31.5701 45.2502L31.1277 42.5778L33.8001 42.1354C34.1694 42.0743 34.4187 41.7263 34.3576 41.3568C34.2964 40.9873 33.9483 40.7382 33.579 40.7993L30.9065 41.2416L30.4642 38.5692Z" fill="white"/>
</g>
<rect x="54.1235" y="25.3634" width="18.2096" height="4.42937" rx="2.21468" transform="rotate(-9.39865 54.1235 25.3634)" fill="#CACFD8"/>
<rect x="75.0007" y="21.9063" width="22.639" height="4.42937" rx="2.21468" transform="rotate(-9.39865 75.0007 21.9063)" fill="#CACFD8"/>
<rect x="55.6504" y="34.5893" width="33.4663" height="4.42937" rx="2.21468" transform="rotate(-9.39865 55.6504 34.5893)" fill="#626A87"/>
<rect x="91.5811" y="28.6412" width="23.6233" height="4.42937" rx="2.21468" transform="rotate(-9.39865 91.5811 28.6412)" fill="#5468FF"/>
<rect x="57.0171" y="42.8425" width="60.0425" height="4.42937" rx="2.21468" transform="rotate(-9.39865 57.0171 42.8425)" fill="#626A87"/>
<defs>
<filter id="filter0_d_484_1366" x="25.4239" y="141.237" width="128.32" height="58.0283" filterUnits="userSpaceOnUse" color-interpolation-filters="sRGB">
<feFlood flood-opacity="0" result="BackgroundImageFix"/>
<feColorMatrix in="SourceAlpha" type="matrix" values="0 0 0 0 0 0 0 0 0 0 0 0 0 0 0 0 0 0 127 0" result="hardAlpha"/>
<feOffset dy="3.7779"/>
<feGaussianBlur stdDeviation="4.72237"/>
<feColorMatrix type="matrix" values="0 0 0 0 0.330297 0 0 0 0 0.409583 0 0 0 0 1 0 0 0 0.3 0"/>
<feBlend mode="normal" in2="BackgroundImageFix" result="effect1_dropShadow_484_1366"/>
<feBlend mode="normal" in="SourceGraphic" in2="effect1_dropShadow_484_1366" result="shape"/>
</filter>
<filter id="filter1_d_484_1366" x="7.56801" y="22.4531" width="44.7221" height="44.7219" filterUnits="userSpaceOnUse" color-interpolation-filters="sRGB">
<feFlood flood-opacity="0" result="BackgroundImageFix"/>
<feColorMatrix in="SourceAlpha" type="matrix" values="0 0 0 0 0 0 0 0 0 0 0 0 0 0 0 0 0 0 127 0" result="hardAlpha"/>
<feOffset dy="3.19404"/>
<feGaussianBlur stdDeviation="2.52862"/>
<feColorMatrix type="matrix" values="0 0 0 0 0.235294 0 0 0 0 0.501961 0 0 0 0 0.819608 0 0 0 0.09 0"/>
<feBlend mode="normal" in2="BackgroundImageFix" result="effect1_dropShadow_484_1366"/>
<feBlend mode="normal" in="SourceGraphic" in2="effect1_dropShadow_484_1366" result="shape"/>
</filter>
<filter id="filter2_d_484_1366" x="13.1582" y="30.7582" width="23.0515" height="25.658" filterUnits="userSpaceOnUse" color-interpolation-filters="sRGB">
<feFlood flood-opacity="0" result="BackgroundImageFix"/>
<feColorMatrix in="SourceAlpha" type="matrix" values="0 0 0 0 0 0 0 0 0 0 0 0 0 0 0 0 0 0 127 0" result="hardAlpha"/>
<feOffset dy="1.86319"/>
<feGaussianBlur stdDeviation="1.73011"/>
<feColorMatrix type="matrix" values="0 0 0 0 0.239216 0 0 0 0 0.337255 0 0 0 0 0.941176 0 0 0 0.53 0"/>
<feBlend mode="normal" in2="BackgroundImageFix" result="effect1_dropShadow_484_1366"/>
<feBlend mode="normal" in="SourceGraphic" in2="effect1_dropShadow_484_1366" result="shape"/>
</filter>
<filter id="filter3_d_484_1366" x="22.5244" y="30.9488" width="24.5098" height="25.018" filterUnits="userSpaceOnUse" color-interpolation-filters="sRGB">
<feFlood flood-opacity="0" result="BackgroundImageFix"/>
<feColorMatrix in="SourceAlpha" type="matrix" values="0 0 0 0 0 0 0 0 0 0 0 0 0 0 0 0 0 0 127 0" result="hardAlpha"/>
<feOffset dy="1.86319"/>
<feGaussianBlur stdDeviation="1.73011"/>
<feColorMatrix type="matrix" values="0 0 0 0 0.239216 0 0 0 0 0.337255 0 0 0 0 0.941176 0 0 0 0.53 0"/>
<feBlend mode="normal" in2="BackgroundImageFix" result="effect1_dropShadow_484_1366"/>
<feBlend mode="normal" in="SourceGraphic" in2="effect1_dropShadow_484_1366" result="shape"/>
</filter>
<clipPath id="clip0_484_1366">
<rect width="107.292" height="21.9118" fill="white" transform="translate(34.8687 164.424) rotate(-9.39865)"/>
</clipPath>
<clipPath id="clip1_484_1366">
<rect width="11.3337" height="11.3337" fill="white" transform="translate(124.812 154.898) rotate(-9.39865)"/>
</clipPath>
<clipPath id="clip2_484_1366">
<rect width="46.8459" height="46.5798" fill="white" transform="translate(4.78516 26.6264) rotate(-9.39865)"/>
</clipPath>
</defs>
</svg>
