<svg width="35" height="35" viewBox="0 0 35 35" fill="none" xmlns="http://www.w3.org/2000/svg">
<rect x="0.73877" width="34.26" height="34.26" rx="11.26" fill="white"/>
<path d="M10.0378 12.2357C10.0378 11.6951 10.4761 11.2568 11.0167 11.2568H20.8053C21.3459 11.2568 21.7841 11.6951 21.7841 12.2357V21.5348C21.7841 22.0754 21.3459 22.5137 20.8053 22.5137H11.0167C10.4761 22.5137 10.0378 22.0754 10.0378 21.5348V12.2357Z" fill="#00D9CD"/>
<path d="M18.1134 17.3091C17.7871 17.1207 17.7871 16.6498 18.1134 16.4614L25.8219 12.0109C26.1482 11.8225 26.5561 12.058 26.5561 12.4348V21.3358C26.5561 21.7125 26.1482 21.948 25.8219 21.7596L18.1134 17.3091Z" fill="#00D9CD"/>
</svg>
