<svg width="62" height="26" viewBox="0 0 62 26" fill="none" xmlns="http://www.w3.org/2000/svg">
<rect x="0.706787" width="59.899" height="23.3373" transform="rotate(1.7353 0.706787 0)" fill="white"/>
<path fill-rule="evenodd" clip-rule="evenodd" d="M11.6204 19.0844C15.5927 19.2048 18.9103 16.0822 19.0307 12.11C19.151 8.1378 16.0285 4.82015 12.0562 4.69981C8.08409 4.57947 4.76642 7.702 4.64608 11.6743C4.52574 15.6464 7.6483 18.9641 11.6204 19.0844Z" fill="#AEB8FF"/>
<g filter="url(#filter0_d_484_1728)">
<path fill-rule="evenodd" clip-rule="evenodd" d="M9.41531 6.83098C7.33922 6.81248 5.59013 8.44088 5.46175 10.5131C5.39794 11.5426 5.73396 12.4985 6.33253 13.2351C6.60205 13.5668 6.66811 14.0197 6.51223 14.4177L6.23204 15.1331C6.14088 15.3658 6.40726 15.5752 6.6118 15.4316L7.54865 14.7742C7.82746 14.5785 8.1759 14.5132 8.50799 14.5891C8.85368 14.6682 9.21715 14.7019 9.5926 14.6822C11.568 14.5789 13.1714 12.9963 13.3021 11.0225C13.4519 8.76173 11.673 6.85097 9.41531 6.83098Z" fill="#5F6CFF"/>
</g>
<g filter="url(#filter1_d_484_1728)">
<path fill-rule="evenodd" clip-rule="evenodd" d="M17.3355 14.978C16.991 15.3689 16.8692 15.9076 17.0293 16.4032L17.1429 16.7549C16.9807 16.9318 16.8096 17.1006 16.6304 17.2606L15.8764 16.661C15.5582 16.4083 15.1495 16.2996 14.7481 16.3617C14.4891 16.4021 14.1996 16.4359 13.9903 16.4295C11.6256 16.3579 9.76695 14.3832 9.83859 12.0186C9.90984 9.6562 11.8871 7.79534 14.2497 7.86692C16.614 7.93855 18.4729 9.91324 18.4013 12.278C18.3699 13.3154 17.9717 14.2557 17.3355 14.978Z" fill="#F3F5F9"/>
</g>
<path fill-rule="evenodd" clip-rule="evenodd" d="M8.74305 13.2639C8.66467 13.5784 8.32745 13.7877 8.01297 13.7094C7.6755 13.6253 7.49105 13.2862 7.56943 12.9717C7.64959 12.6495 7.96956 12.4441 8.30711 12.5281C8.62159 12.6064 8.82321 12.9418 8.74305 13.2639ZM8.96011 11.7702C8.90094 12.008 8.61525 12.0428 8.43114 11.9969C8.18572 11.9359 8.00349 11.7846 8.06266 11.5467C8.28994 10.6339 8.50915 9.29553 8.73642 8.38271C8.81091 8.08358 9.09847 7.97595 9.41287 8.05425C9.71204 8.12868 9.92324 8.3605 9.84867 8.65962C9.62139 9.57244 9.18738 10.8574 8.96011 11.7702Z" fill="#F3F5F9"/>
<path fill-rule="evenodd" clip-rule="evenodd" d="M14.9374 12.3314C14.5294 12.6309 14.5155 12.848 14.5041 13.2249C14.4999 13.3626 14.4227 13.5198 14.0675 13.509C13.7705 13.5 13.6723 13.3883 13.6837 13.0115C13.7026 12.3882 13.987 12.0995 14.2027 11.9247C14.4479 11.7291 14.8605 11.5167 14.8723 11.1254C14.8824 10.7921 14.5974 10.6238 14.2351 10.6128C13.4959 10.5904 13.6384 11.1533 13.2471 11.1414C13.0515 11.1355 12.8163 10.9978 12.8248 10.7151C12.8367 10.3239 13.3036 9.75775 14.2819 9.78739C15.2094 9.81549 15.8098 10.3487 15.7891 11.0298C15.7685 11.711 15.1377 12.1851 14.9374 12.3314ZM14.6008 14.5842C14.5918 14.8813 14.3374 15.1347 14.0258 15.1253C13.7143 15.1158 13.483 14.8477 13.492 14.5507C13.5012 14.2463 13.7554 14.0001 14.0596 14.0093C14.364 14.0185 14.61 14.2798 14.6008 14.5842Z" fill="#00D9CD"/>
<path opacity="0.7" d="M25.0434 14.8195C25.2418 14.8255 25.4212 14.7922 25.5816 14.7197C25.7455 14.6439 25.8783 14.5368 25.9801 14.3985C26.0853 14.2603 26.1457 14.0989 26.1614 13.9142L27.3065 13.9489C27.2891 14.3018 27.1751 14.6199 26.9646 14.903C26.754 15.1861 26.4797 15.4083 26.1416 15.5698C25.8036 15.7278 25.4328 15.8007 25.0292 15.7885C24.6122 15.7759 24.2511 15.6942 23.946 15.5436C23.641 15.3896 23.3897 15.1834 23.1922 14.925C22.9947 14.6666 22.8489 14.371 22.7546 14.0382C22.6637 13.7056 22.6239 13.351 22.6353 12.9743L22.6407 12.7978C22.6521 12.4211 22.7133 12.0695 22.8241 11.743C22.9385 11.4132 23.102 11.1253 23.3148 10.8793C23.5276 10.6333 23.7908 10.4444 24.1045 10.3125C24.4183 10.1773 24.782 10.1159 25.1956 10.1285C25.6328 10.1417 26.0135 10.2408 26.3378 10.4256C26.6622 10.6071 26.9139 10.8554 27.0928 11.1705C27.2752 11.4823 27.3636 11.8418 27.358 12.249L26.2129 12.2143C26.209 12.0122 26.164 11.829 26.0781 11.6649C25.9957 11.4974 25.8752 11.3625 25.7167 11.2601C25.5616 11.1578 25.3731 11.1033 25.1512 11.0965C24.9057 11.0891 24.7007 11.1334 24.5362 11.2294C24.3718 11.322 24.2416 11.4527 24.1456 11.6215C24.0497 11.7869 23.9784 11.9749 23.9316 12.1855C23.8883 12.3929 23.8632 12.6093 23.8564 12.8346L23.8511 13.0111C23.8442 13.2365 23.8561 13.4556 23.8867 13.6686C23.9173 13.8816 23.9754 14.0735 24.0611 14.2444C24.1503 14.4121 24.274 14.5488 24.4324 14.6546C24.5909 14.757 24.7945 14.812 25.0434 14.8195ZM30.4006 11.4272L30.2667 15.8462L29.051 15.8094L29.2164 10.3512L30.3766 10.3864L30.4006 11.4272ZM32.1029 10.4034L32.0586 11.533C31.985 11.5173 31.9046 11.5048 31.8173 11.4954C31.7335 11.4861 31.6495 11.4802 31.5654 11.4777C31.3569 11.4714 31.1727 11.4961 31.0128 11.5518C30.853 11.6042 30.7177 11.6843 30.6067 11.792C30.4992 11.8964 30.4145 12.0251 30.3526 12.1781C30.2908 12.3311 30.2519 12.5032 30.236 12.6946L29.9579 12.7064C29.9683 12.3634 30.0116 12.0466 30.0877 11.7561C30.1638 11.4655 30.2725 11.2113 30.4138 10.9934C30.5584 10.7756 30.7351 10.6076 30.944 10.4894C31.1563 10.3713 31.3986 10.3164 31.671 10.3246C31.745 10.3269 31.8239 10.336 31.9075 10.352C31.9946 10.3681 32.0597 10.3852 32.1029 10.4034ZM35.8614 16.1167C35.4578 16.1045 35.0949 16.0278 34.7727 15.8868C34.4539 15.7425 34.1838 15.5475 33.9623 15.3018C33.7443 15.0562 33.5796 14.7701 33.4683 14.4436C33.357 14.1171 33.307 13.7672 33.3183 13.3939L33.3244 13.1921C33.3374 12.765 33.4113 12.3802 33.5462 12.0375C33.6812 11.6949 33.8633 11.4042 34.0927 11.1655C34.3222 10.9233 34.5903 10.7413 34.8969 10.6193C35.2036 10.4973 35.5334 10.4416 35.8865 10.4523C36.2767 10.4642 36.616 10.5401 36.9046 10.6801C37.1932 10.8201 37.4298 11.0124 37.6142 11.257C37.8021 11.4983 37.9382 11.7835 38.0225 12.1126C38.1102 12.4417 38.148 12.8031 38.1361 13.1965L38.1204 13.7161L33.9032 13.5883L33.9296 12.7156L36.9462 12.807L36.9491 12.7112C36.949 12.4924 36.9115 12.2859 36.8366 12.0918C36.7651 11.8978 36.6504 11.7394 36.4925 11.6169C36.3346 11.4943 36.1212 11.4289 35.8522 11.4207C35.6504 11.4146 35.4691 11.4529 35.3084 11.5355C35.1512 11.6149 35.018 11.7337 34.9088 11.892C34.7997 12.0503 34.7131 12.2429 34.649 12.4698C34.5883 12.6935 34.5538 12.9466 34.5452 13.2291L34.5391 13.4309C34.5318 13.6697 34.5571 13.8926 34.6148 14.0997C34.6759 14.3035 34.7681 14.483 34.8913 14.6382C35.0145 14.7934 35.1656 14.9175 35.3445 15.0104C35.5236 15.1 35.7291 15.1483 35.9612 15.1553C36.2538 15.1642 36.5162 15.1132 36.7484 15.0025C36.9807 14.8917 37.1841 14.7312 37.3588 14.5211L37.9806 15.161C37.8577 15.3289 37.6997 15.4891 37.5066 15.6414C37.3136 15.7904 37.0794 15.9095 36.8041 15.9988C36.5321 16.0882 36.2178 16.1275 35.8614 16.1167ZM42.9683 15.1353L43.0471 12.5324C43.053 12.3373 43.0228 12.1681 42.9565 12.0247C42.8901 11.8814 42.7858 11.7688 42.6435 11.6871C42.5046 11.6054 42.3276 11.5614 42.1124 11.5549C41.9139 11.5488 41.7414 11.5773 41.5948 11.6402C41.4481 11.703 41.3327 11.7904 41.2485 11.9023C41.1643 12.0142 41.1201 12.1425 41.1157 12.2871L39.905 12.2504C39.9115 12.0352 39.97 11.8282 40.0803 11.6296C40.1907 11.431 40.3475 11.2557 40.5507 11.1036C40.7539 10.9516 40.9948 10.8343 41.2733 10.7519C41.5518 10.6694 41.8626 10.6334 42.2056 10.6438C42.6159 10.6562 42.977 10.7362 43.2889 10.8836C43.6042 11.0312 43.8485 11.2473 44.0216 11.5319C44.1982 11.8133 44.2802 12.1625 44.2676 12.5795L44.1941 15.0059C44.1865 15.2547 44.1966 15.4789 44.2242 15.6783C44.2553 15.8745 44.3022 16.0459 44.3651 16.1925L44.3627 16.2733L43.1167 16.2355C43.0635 16.1026 43.0231 15.9348 42.9956 15.732C42.9716 15.5259 42.9624 15.327 42.9683 15.1353ZM43.2122 12.9161L43.1995 13.668L42.3268 13.6416C42.1015 13.6348 41.9024 13.6506 41.7296 13.6891C41.5569 13.7243 41.4121 13.7805 41.2953 13.8577C41.1785 13.935 41.0898 14.0299 41.0292 14.1425C40.9685 14.2551 40.936 14.3837 40.9317 14.5283C40.9273 14.673 40.9569 14.8068 41.0205 14.9299C41.0842 15.0497 41.1789 15.1451 41.3046 15.2162C41.4338 15.2875 41.5908 15.3259 41.7758 15.3315C42.0246 15.339 42.2431 15.2951 42.4311 15.1999C42.6226 15.1013 42.7744 14.9797 42.8865 14.835C42.9987 14.6869 43.0602 14.5457 43.071 14.4114L43.4481 14.9631C43.4036 15.0997 43.3301 15.2456 43.2278 15.4007C43.1255 15.5558 42.9931 15.7033 42.8307 15.8431C42.6717 15.9797 42.4815 16.09 42.2602 16.1742C42.0422 16.2585 41.792 16.2964 41.5095 16.2878C41.153 16.277 40.8374 16.1967 40.5625 16.047C40.2878 15.894 40.075 15.694 39.9243 15.4471C39.7737 15.1968 39.7031 14.9169 39.7124 14.6075C39.7212 14.3183 39.7827 14.0644 39.8971 13.8457C40.0149 13.6237 40.182 13.4403 40.3985 13.2954C40.6183 13.1505 40.8841 13.0442 41.1958 12.9762C41.5076 12.9048 41.862 12.8752 42.2588 12.8872L43.2122 12.9161ZM48.9554 10.9493L48.9285 11.8371L45.8514 11.7439L45.8783 10.856L48.9554 10.9493ZM46.8066 9.54615L48.0223 9.58298L47.8622 14.8696C47.8571 15.0377 47.8767 15.1679 47.921 15.2602C47.9688 15.3491 48.036 15.4101 48.1225 15.443C48.209 15.4759 48.3111 15.4941 48.4288 15.4977C48.5129 15.5002 48.5938 15.4976 48.6714 15.4899C48.7491 15.4822 48.8116 15.474 48.859 15.4653L48.8359 16.3936C48.7341 16.4208 48.6156 16.4442 48.4803 16.4636C48.3485 16.4832 48.1968 16.4904 48.0253 16.4852C47.7461 16.4767 47.5004 16.4205 47.2882 16.3164C47.076 16.209 46.9128 16.0408 46.7985 15.8118C46.6843 15.5829 46.6328 15.2817 46.6441 14.9084L46.8066 9.54615ZM52.9924 16.6357C52.5888 16.6235 52.2259 16.5468 51.9037 16.4058C51.5849 16.2615 51.3148 16.0665 51.0934 15.8208C50.8753 15.5752 50.7106 15.2891 50.5993 14.9626C50.488 14.6361 50.438 14.2862 50.4494 13.9129L50.4555 13.7111C50.4684 13.284 50.5423 12.8992 50.6773 12.5566C50.8122 12.2139 50.9943 11.9232 51.2237 11.6845C51.4532 11.4423 51.7213 11.2603 52.0279 11.1383C52.3346 11.0163 52.6645 10.9606 53.0176 10.9713C53.4077 10.9832 53.747 11.0591 54.0356 11.1991C54.3243 11.3391 54.5608 11.5314 54.7452 11.776C54.9332 12.0173 55.0693 12.3025 55.1535 12.6316C55.2412 12.9607 55.279 13.3221 55.2671 13.7155L55.2514 14.2351L51.0342 14.1073L51.0606 13.2346L54.0772 13.326L54.0801 13.2302C54.08 13.0114 54.0425 12.8049 53.9676 12.6108C53.8961 12.4168 53.7814 12.2584 53.6235 12.1359C53.4657 12.0133 53.2522 11.9479 52.9832 11.9397C52.7814 11.9336 52.6002 11.9719 52.4395 12.0545C52.2822 12.1339 52.149 12.2528 52.0399 12.411C51.9307 12.5693 51.8441 12.7619 51.78 12.9888C51.7194 13.2125 51.6848 13.4656 51.6762 13.7481L51.6701 13.9499C51.6629 14.1887 51.6881 14.4116 51.7458 14.6187C51.8069 14.8225 51.8991 15.002 52.0223 15.1572C52.1455 15.3124 52.2966 15.4365 52.4756 15.5294C52.6546 15.619 52.8602 15.6673 53.0922 15.6743C53.3848 15.6832 53.6472 15.6322 53.8795 15.5215C54.1117 15.4107 54.3152 15.2502 54.4898 15.0401L55.1117 15.68C54.9888 15.8479 54.8308 16.0081 54.6377 16.1604C54.4446 16.3094 54.2105 16.4285 53.9351 16.5178C53.6631 16.6072 53.3489 16.6465 52.9924 16.6357Z" fill="#5A6DFF"/>
<defs>
<filter id="filter0_d_484_1728" x="1.99007" y="5.23203" width="14.785" height="15.576" filterUnits="userSpaceOnUse" color-interpolation-filters="sRGB">
<feFlood flood-opacity="0" result="BackgroundImageFix"/>
<feColorMatrix in="SourceAlpha" type="matrix" values="0 0 0 0 0 0 0 0 0 0 0 0 0 0 0 0 0 0 127 0" result="hardAlpha"/>
<feOffset dy="1.86525"/>
<feGaussianBlur stdDeviation="1.73202"/>
<feColorMatrix type="matrix" values="0 0 0 0 0.239216 0 0 0 0 0.337255 0 0 0 0 0.941176 0 0 0 0.29 0"/>
<feBlend mode="normal" in2="BackgroundImageFix" result="effect1_dropShadow_484_1728"/>
<feBlend mode="normal" in="SourceGraphic" in2="effect1_dropShadow_484_1728" result="shape"/>
</filter>
<filter id="filter1_d_484_1728" x="6.37264" y="6.26621" width="15.4947" height="16.3238" filterUnits="userSpaceOnUse" color-interpolation-filters="sRGB">
<feFlood flood-opacity="0" result="BackgroundImageFix"/>
<feColorMatrix in="SourceAlpha" type="matrix" values="0 0 0 0 0 0 0 0 0 0 0 0 0 0 0 0 0 0 127 0" result="hardAlpha"/>
<feOffset dy="1.86525"/>
<feGaussianBlur stdDeviation="1.73202"/>
<feColorMatrix type="matrix" values="0 0 0 0 0.239216 0 0 0 0 0.337255 0 0 0 0 0.941176 0 0 0 0.28 0"/>
<feBlend mode="normal" in2="BackgroundImageFix" result="effect1_dropShadow_484_1728"/>
<feBlend mode="normal" in="SourceGraphic" in2="effect1_dropShadow_484_1728" result="shape"/>
</filter>
</defs>
</svg>
