<svg width="36" height="36" viewBox="0 0 36 36" fill="none" xmlns="http://www.w3.org/2000/svg">
<path d="M35.0255 11.4215C35.0106 5.11367 29.885 0.012237 23.5772 0.0271321L11.3944 0.0559002C5.08657 0.0707953 -0.0148626 5.19638 3.25351e-05 11.5042L0.0288006 23.687C0.0436957 29.9948 5.16928 35.0963 11.4771 35.0814L23.6599 35.0526C29.9677 35.0377 35.0692 29.9121 35.0543 23.6043L35.0255 11.4215Z" fill="white"/>
<path d="M27.6643 29.6964H7.31583C6.42053 29.6964 5.68797 28.9639 5.68797 28.0686V7.7201C5.68797 6.8248 6.42053 6.09224 7.31583 6.09224H27.6643C28.5596 6.09224 29.2921 6.8248 29.2921 7.7201V28.0686C29.2921 28.9639 28.5596 29.6964 27.6643 29.6964Z" fill="#4D6FA9"/>
<path d="M25.6286 10.1624V14.2321H21.9659C21.5182 14.2321 21.152 14.5984 21.152 15.0461V17.4879H25.2217V21.5576H21.152V29.6969H17.0823V21.5576H13.8265V17.4879H17.0823V15.046C17.0823 12.4821 19.0357 10.3659 21.5589 10.1624L25.6286 10.1624Z" fill="white" fill-opacity="0.95"/>
</svg>
