<svg width="309" height="315" viewBox="0 0 309 315" fill="none" xmlns="http://www.w3.org/2000/svg">
<path fill-rule="evenodd" clip-rule="evenodd" d="M89.7591 145.675C88.2568 148.074 88.1392 151 89.5366 153.397L90.5289 155.098C89.8137 156.191 89.0412 157.251 88.2151 158.274L83.4229 155.978C81.4009 155.012 79.0269 154.889 76.8691 155.645C75.4777 156.134 73.9104 156.622 72.7455 156.815C59.585 158.997 47.2597 150.762 45.2137 138.42C43.1679 126.091 52.1878 114.304 65.3367 112.124C78.4956 109.943 90.8224 118.178 92.8684 130.52C93.7665 135.934 92.5345 141.241 89.7591 145.675Z" fill="#5468FF" fill-opacity="0.8"/>
<path fill-rule="evenodd" clip-rule="evenodd" d="M89.7591 145.675C88.2568 148.074 88.1392 151 89.5366 153.397L90.5289 155.098C89.8137 156.191 89.0412 157.251 88.2151 158.274L83.4229 155.978C81.4009 155.012 79.0269 154.889 76.8691 155.645C75.4777 156.134 73.9104 156.622 72.7455 156.815C68.8244 146.409 68.7648 146.051 68.7648 146.051C69.6641 144.82 70.6338 144.184 68.2974 139.511C70.6338 136.238 66.2162 134.586 63.1574 130.63C69.3399 120.649 71.977 130.63 71.977 124.719C92.1001 129.391 92.8088 130.163 92.8088 130.163C93.535 134.242 93.1027 138.169 91.7439 141.685C91.2251 143.027 90.526 144.449 89.7591 145.675Z" fill="#5468FF" fill-opacity="0.8"/>
<path fill-rule="evenodd" clip-rule="evenodd" d="M72.7394 134.431C71.1473 136.147 71.2772 137.139 71.5606 138.849C71.6642 139.473 71.4521 140.251 69.8247 140.521C68.4633 140.747 67.9168 140.331 67.6334 138.621C67.1647 135.794 68.2033 134.237 69.0298 133.256C69.9731 132.153 71.6639 130.826 71.3696 129.051C71.1189 127.539 69.6708 127.036 68.0102 127.311C64.623 127.872 65.7731 130.283 63.9799 130.58C63.0833 130.728 61.8892 130.318 61.6766 129.036C61.3824 127.261 63.0054 124.29 67.4888 123.547C71.7394 122.842 74.9491 124.708 75.4614 127.798C75.9737 130.888 73.5216 133.592 72.7394 134.431ZM73.9509 145.276C74.1743 146.624 73.2414 147.995 71.8132 148.231C70.3857 148.468 69.0935 147.466 68.8701 146.119C68.6412 144.738 69.5796 143.4 70.9739 143.169C72.3688 142.937 73.722 143.895 73.9509 145.276Z" fill="white"/>
<path d="M92.9 137.401C92.5694 137.179 92.1216 137.268 91.8999 137.598C91.6782 137.929 91.7665 138.377 92.0971 138.598L92.9 137.401ZM184.86 111.376C177.475 107.112 170.134 108.265 162.844 111.865C155.594 115.445 148.25 121.516 140.796 127.257C133.296 133.033 125.665 138.491 117.72 141.045C109.829 143.58 101.624 143.252 92.9 137.401L92.0971 138.598C101.223 144.718 109.892 145.074 118.161 142.417C126.375 139.778 134.187 134.166 141.675 128.399C149.209 122.598 156.397 116.656 163.482 113.157C170.526 109.679 177.324 108.689 184.139 112.624L184.86 111.376Z" fill="url(#paint0_linear_81_5)"/>
<path d="M189.881 114.943L181.07 115.669L186.105 106.949L189.881 114.943Z" fill="#99A4F1" fill-opacity="0.8"/>
<rect x="34.5828" y="174.658" width="59.899" height="23.3373" transform="rotate(1.7353 34.5828 174.658)" fill="white"/>
<path fill-rule="evenodd" clip-rule="evenodd" d="M45.4964 193.742C49.4687 193.863 52.7863 190.74 52.9067 186.768C53.027 182.796 49.9045 179.478 45.9322 179.358C41.9601 179.237 38.6424 182.36 38.5221 186.332C38.4017 190.304 41.5243 193.622 45.4964 193.742Z" fill="#AEB8FF"/>
<g filter="url(#filter0_d_81_5)">
<path fill-rule="evenodd" clip-rule="evenodd" d="M43.2913 181.489C41.2152 181.47 39.4661 183.099 39.3377 185.171C39.2739 186.201 39.6099 187.156 40.2085 187.893C40.478 188.225 40.5441 188.678 40.3882 189.076L40.108 189.791C40.0169 190.024 40.2832 190.233 40.4878 190.09L41.4246 189.432C41.7034 189.236 42.0519 189.171 42.384 189.247C42.7297 189.326 43.0931 189.36 43.4686 189.34C45.444 189.237 47.0474 187.654 47.1781 185.68C47.3279 183.42 45.5489 181.509 43.2913 181.489Z" fill="#5F6CFF"/>
</g>
<g filter="url(#filter1_d_81_5)">
<path fill-rule="evenodd" clip-rule="evenodd" d="M51.2114 189.636C50.867 190.027 50.7452 190.566 50.9053 191.061L51.0189 191.413C50.8567 191.59 50.6856 191.759 50.5064 191.919L49.7523 191.319C49.4342 191.066 49.0255 190.958 48.624 191.02C48.3651 191.06 48.0755 191.094 47.8662 191.088C45.5016 191.016 43.6429 189.041 43.7146 186.677C43.7858 184.314 45.763 182.453 48.1257 182.525C50.49 182.597 52.3489 184.571 52.2772 186.936C52.2459 187.973 51.8477 188.914 51.2114 189.636Z" fill="#F3F5F9"/>
</g>
<path fill-rule="evenodd" clip-rule="evenodd" d="M42.619 187.922C42.5406 188.236 42.2034 188.446 41.8889 188.367C41.5515 188.283 41.367 187.944 41.4454 187.63C41.5256 187.307 41.8455 187.102 42.1831 187.186C42.4976 187.264 42.6992 187.6 42.619 187.922ZM42.8361 186.428C42.7769 186.666 42.4912 186.701 42.3071 186.655C42.0617 186.594 41.8795 186.443 41.9386 186.205C42.1659 185.292 42.3851 183.953 42.6124 183.041C42.6869 182.742 42.9744 182.634 43.2888 182.712C43.588 182.787 43.7992 183.018 43.7246 183.318C43.4974 184.23 43.0634 185.515 42.8361 186.428Z" fill="#F3F5F9"/>
<path fill-rule="evenodd" clip-rule="evenodd" d="M48.8133 186.989C48.4053 187.289 48.3915 187.506 48.3801 187.883C48.3759 188.021 48.2986 188.178 47.9435 188.167C47.6464 188.158 47.5483 188.046 47.5597 187.669C47.5786 187.046 47.863 186.757 48.0786 186.583C48.3238 186.387 48.7365 186.175 48.7483 185.783C48.7584 185.45 48.4734 185.282 48.111 185.271C47.3719 185.248 47.5144 185.811 47.1231 185.799C46.9275 185.793 46.6922 185.656 46.7008 185.373C46.7127 184.982 47.1796 184.416 48.1579 184.445C49.0854 184.473 49.6858 185.007 49.6651 185.688C49.6445 186.369 49.0136 186.843 48.8133 186.989ZM48.4768 189.242C48.4678 189.539 48.2134 189.793 47.9018 189.783C47.5902 189.774 47.359 189.506 47.368 189.209C47.3772 188.904 47.6314 188.658 47.9356 188.667C48.24 188.676 48.486 188.938 48.4768 189.242Z" fill="#00D9CD"/>
<path opacity="0.7" d="M58.9194 189.477C59.1178 189.483 59.2972 189.45 59.4576 189.378C59.6215 189.302 59.7543 189.195 59.8561 189.056C59.9613 188.918 60.0217 188.757 60.0374 188.572L61.1825 188.607C61.1651 188.96 61.0511 189.278 60.8406 189.561C60.63 189.844 60.3557 190.066 60.0176 190.228C59.6795 190.386 59.3087 190.459 58.9052 190.446C58.4882 190.434 58.1271 190.352 57.822 190.202C57.517 190.048 57.2657 189.841 57.0682 189.583C56.8707 189.325 56.7248 189.029 56.6306 188.696C56.5397 188.364 56.4999 188.009 56.5113 187.632L56.5167 187.456C56.5281 187.079 56.5892 186.727 56.7001 186.401C56.8144 186.071 56.978 185.783 57.1908 185.537C57.4036 185.291 57.6668 185.102 57.9805 184.97C58.2942 184.835 58.658 184.774 59.0716 184.786C59.5088 184.8 59.8895 184.899 60.2138 185.084C60.5382 185.265 60.7898 185.513 60.9688 185.828C61.1512 186.14 61.2396 186.5 61.234 186.907L60.0889 186.872C60.0849 186.67 60.04 186.487 59.9541 186.323C59.8716 186.155 59.7512 186.02 59.5927 185.918C59.4376 185.816 59.2491 185.761 59.0271 185.754C58.7816 185.747 58.5766 185.791 58.4122 185.887C58.2478 185.98 58.1176 186.111 58.0216 186.279C57.9257 186.445 57.8544 186.633 57.8076 186.843C57.7643 187.051 57.7392 187.267 57.7324 187.493L57.727 187.669C57.7202 187.894 57.7321 188.114 57.7627 188.327C57.7932 188.54 57.8514 188.732 57.9371 188.902C58.0263 189.07 58.15 189.207 58.3084 189.313C58.4669 189.415 58.6705 189.47 58.9194 189.477ZM64.2766 186.085L64.1427 190.504L62.927 190.467L63.0924 185.009L64.2526 185.044L64.2766 186.085ZM65.9789 185.061L65.9345 186.191C65.861 186.175 65.7806 186.163 65.6933 186.153C65.6095 186.144 65.5255 186.138 65.4414 186.136C65.2329 186.129 65.0487 186.154 64.8888 186.21C64.729 186.262 64.5936 186.342 64.4827 186.45C64.3751 186.554 64.2905 186.683 64.2286 186.836C64.1667 186.989 64.1279 187.161 64.112 187.353L63.8339 187.364C63.8443 187.021 63.8876 186.705 63.9637 186.414C64.0398 186.123 64.1485 185.869 64.2897 185.651C64.4343 185.434 64.6111 185.266 64.82 185.147C65.0323 185.029 65.2746 184.974 65.547 184.983C65.621 184.985 65.6998 184.994 65.7835 185.01C65.8705 185.026 65.9357 185.043 65.9789 185.061ZM69.7373 190.775C69.3338 190.762 68.9709 190.686 68.6487 190.545C68.3299 190.4 68.0598 190.205 67.8383 189.96C67.6202 189.714 67.4555 189.428 67.3443 189.102C67.233 188.775 67.183 188.425 67.1943 188.052L67.2004 187.85C67.2133 187.423 67.2873 187.038 67.4222 186.696C67.5571 186.353 67.7393 186.062 67.9687 185.823C68.1982 185.581 68.4662 185.399 68.7729 185.277C69.0795 185.155 69.4094 185.1 69.7625 185.11C70.1526 185.122 70.492 185.198 70.7806 185.338C71.0692 185.478 71.3057 185.67 71.4902 185.915C71.6781 186.156 71.8142 186.441 71.8985 186.771C71.9861 187.1 72.024 187.461 72.0121 187.854L71.9963 188.374L67.7792 188.246L67.8056 187.374L70.8222 187.465L70.8251 187.369C70.825 187.15 70.7875 186.944 70.7126 186.75C70.641 186.556 70.5263 186.397 70.3685 186.275C70.2106 186.152 69.9972 186.087 69.7281 186.079C69.5264 186.073 69.3451 186.111 69.1844 186.193C69.0272 186.273 68.894 186.392 68.7848 186.55C68.6757 186.708 68.5891 186.901 68.525 187.128C68.4643 187.351 68.4297 187.605 68.4212 187.887L68.4151 188.089C68.4078 188.328 68.433 188.551 68.4907 188.758C68.5519 188.961 68.6441 189.141 68.7673 189.296C68.8905 189.451 69.0416 189.575 69.2205 189.668C69.3996 189.758 69.6051 189.806 69.8372 189.813C70.1297 189.822 70.3921 189.771 70.6244 189.66C70.8566 189.55 71.0601 189.389 71.2348 189.179L71.8566 189.819C71.7337 189.987 71.5757 190.147 71.3826 190.299C71.1896 190.448 70.9554 190.567 70.68 190.657C70.4081 190.746 70.0938 190.785 69.7373 190.775ZM76.8442 189.793L76.9231 187.19C76.929 186.995 76.8988 186.826 76.8324 186.683C76.7661 186.539 76.6618 186.427 76.5195 186.345C76.3806 186.263 76.2036 186.219 75.9883 186.213C75.7899 186.207 75.6174 186.235 75.4707 186.298C75.3241 186.361 75.2087 186.448 75.1245 186.56C75.0403 186.672 74.996 186.8 74.9917 186.945L73.781 186.908C73.7875 186.693 73.846 186.486 73.9563 186.288C74.0667 186.089 74.2235 185.914 74.4267 185.762C74.6299 185.61 74.8707 185.492 75.1493 185.41C75.4278 185.327 75.7385 185.291 76.0816 185.302C76.4919 185.314 76.853 185.394 77.1649 185.542C77.4802 185.689 77.7244 185.905 77.8976 186.19C78.0742 186.471 78.1562 186.82 78.1435 187.237L78.07 189.664C78.0625 189.913 78.0725 190.137 78.1002 190.336C78.1312 190.532 78.1782 190.704 78.2411 190.85L78.2387 190.931L76.9927 190.893C76.9395 190.761 76.8991 190.593 76.8716 190.39C76.8475 190.184 76.8384 189.985 76.8442 189.793ZM77.0882 187.574L77.0755 188.326L76.2028 188.3C75.9775 188.293 75.7784 188.309 75.6056 188.347C75.4328 188.382 75.2881 188.438 75.1713 188.516C75.0545 188.593 74.9658 188.688 74.9052 188.8C74.8445 188.913 74.812 189.042 74.8076 189.186C74.8033 189.331 74.8329 189.465 74.8965 189.588C74.9601 189.708 75.0549 189.803 75.1806 189.874C75.3097 189.945 75.4668 189.984 75.6517 189.989C75.9006 189.997 76.1191 189.953 76.3071 189.858C76.4986 189.759 76.6503 189.638 76.7624 189.493C76.8746 189.345 76.9361 189.204 76.9469 189.069L77.3241 189.621C77.2795 189.758 77.2061 189.904 77.1038 190.059C77.0015 190.214 76.8691 190.361 76.7067 190.501C76.5477 190.638 76.3575 190.748 76.1362 190.832C75.9182 190.916 75.668 190.954 75.3855 190.946C75.029 190.935 74.7133 190.855 74.4385 190.705C74.1637 190.552 73.951 190.352 73.8003 190.105C73.6497 189.855 73.579 189.575 73.5884 189.265C73.5972 188.976 73.6587 188.722 73.7731 188.504C73.8909 188.282 74.058 188.098 74.2744 187.953C74.4943 187.809 74.76 187.702 75.0718 187.634C75.3836 187.563 75.7379 187.533 76.1348 187.545L77.0882 187.574ZM82.8314 185.607L82.8045 186.495L79.7274 186.402L79.7542 185.514L82.8314 185.607ZM80.6826 184.204L81.8983 184.241L81.7381 189.528C81.733 189.696 81.7527 189.826 81.797 189.918C81.8448 190.007 81.9119 190.068 81.9985 190.101C82.085 190.134 82.1871 190.152 82.3048 190.156C82.3889 190.158 82.4697 190.156 82.5474 190.148C82.625 190.14 82.6876 190.132 82.735 190.123L82.7119 191.052C82.6101 191.079 82.4916 191.102 82.3563 191.122C82.2244 191.141 82.0728 191.148 81.9012 191.143C81.6221 191.135 81.3764 191.078 81.1641 190.974C80.952 190.867 80.7888 190.699 80.6745 190.47C80.5603 190.241 80.5088 189.94 80.5201 189.566L80.6826 184.204ZM86.8684 191.294C86.4648 191.281 86.1019 191.205 85.7797 191.064C85.4609 190.919 85.1908 190.724 84.9694 190.479C84.7513 190.233 84.5866 189.947 84.4753 189.621C84.364 189.294 84.314 188.944 84.3253 188.571L84.3314 188.369C84.3444 187.942 84.4183 187.557 84.5532 187.215C84.6882 186.872 84.8703 186.581 85.0997 186.342C85.3292 186.1 85.5973 185.918 85.9039 185.796C86.2106 185.674 86.5404 185.619 86.8936 185.629C87.2837 185.641 87.623 185.717 87.9116 185.857C88.2002 185.997 88.4368 186.189 88.6212 186.434C88.8091 186.675 88.9452 186.96 89.0295 187.29C89.1172 187.619 89.155 187.98 89.1431 188.373L89.1274 188.893L84.9102 188.765L84.9366 187.893L87.9532 187.984L87.9561 187.888C87.956 187.669 87.9185 187.463 87.8436 187.269C87.7721 187.075 87.6574 186.916 87.4995 186.794C87.3417 186.671 87.1282 186.606 86.8592 186.598C86.6574 186.592 86.4761 186.63 86.3154 186.712C86.1582 186.792 86.025 186.911 85.9159 187.069C85.8067 187.227 85.7201 187.42 85.656 187.647C85.5954 187.87 85.5608 188.124 85.5522 188.406L85.5461 188.608C85.5389 188.847 85.5641 189.07 85.6218 189.277C85.6829 189.48 85.7751 189.66 85.8983 189.815C86.0215 189.97 86.1726 190.094 86.3515 190.187C86.5306 190.277 86.7361 190.325 86.9682 190.332C87.2608 190.341 87.5232 190.29 87.7554 190.179C87.9877 190.069 88.1911 189.908 88.3658 189.698L88.9877 190.338C88.8648 190.506 88.7067 190.666 88.5136 190.818C88.3206 190.967 88.0864 191.086 87.8111 191.176C87.5391 191.265 87.2248 191.304 86.8684 191.294Z" fill="#5A6DFF"/>
<rect x="209.099" y="98.5273" width="46.242" height="46.242" rx="12.0585" fill="url(#paint1_linear_81_5)"/>
<path d="M225.191 123.76L238.542 112.562L255.338 115.577V132.711C255.338 139.371 249.94 144.769 243.28 144.769H238.542L225.191 123.76Z" fill="#99A6FF" fill-opacity="0.5"/>
<path d="M240.853 126.706C240.853 128.395 239.427 129.78 237.649 129.78C235.871 129.78 234.445 128.395 234.445 126.706C234.445 125.017 235.871 123.633 237.649 123.633C239.427 123.633 240.853 125.017 240.853 126.706Z" fill="white" stroke="white" stroke-width="0.47504"/>
<path d="M240.853 115.44C240.853 117.129 239.427 118.514 237.649 118.514C235.871 118.514 234.445 117.129 234.445 115.44C234.445 113.751 235.871 112.366 237.649 112.366C239.427 112.366 240.853 113.751 240.853 115.44Z" fill="white" stroke="white" stroke-width="0.47504"/>
<path d="M226.9 121.041L237.666 126.69" stroke="white" stroke-width="1.61427"/>
<path d="M226.9 121.043L238.258 115.336" stroke="white" stroke-width="1.61427"/>
<path d="M230.12 121.06C230.12 122.749 228.694 124.134 226.916 124.134C225.138 124.134 223.712 122.749 223.712 121.06C223.712 119.371 225.138 117.987 226.916 117.987C228.694 117.987 230.12 119.371 230.12 121.06Z" fill="white" stroke="white" stroke-width="0.47504"/>
<circle cx="200.43" cy="121.069" r="3.43069" fill="#5468FF" fill-opacity="0.8"/>
<path d="M236 88.6909C236 90.4532 234.571 91.8818 232.809 91.8818C231.047 91.8818 229.618 90.4532 229.618 88.6909C229.618 86.9286 231.047 85.5 232.809 85.5C234.571 85.5 236 86.9286 236 88.6909Z" fill="#AEB8FF"/>
<circle cx="69.7498" cy="100.75" r="3.25001" fill="#ADB8FA"/>
<rect x="127.829" y="214.172" width="47.2177" height="47.2177" rx="10.5785" transform="rotate(-0.416454 127.829 214.172)" fill="url(#paint2_linear_81_5)" fill-opacity="0.9"/>
<path d="M147.02 247.893C146.343 246.486 145.996 244.945 145.881 243.387C145.556 238.966 144.75 233.594 146.706 231.324C147.958 229.872 150.195 230.742 151.846 231.717L175.276 245.543C175.276 245.541 175.276 245.545 175.276 245.543L175.312 250.468C175.354 256.31 170.652 261.081 164.81 261.123L153.424 261.206L147.02 247.893Z" fill="#05BAB1" fill-opacity="0.5"/>
<path d="M158.677 235.742C160.333 236.738 160.35 239.132 158.709 240.151L149.157 246.086C147.443 247.151 145.224 245.928 145.21 243.91L145.124 232.18C145.11 230.162 147.31 228.907 149.04 229.947L158.677 235.742Z" fill="white"/>
<path d="M193.341 234.89L199.253 228.317L201.572 238.116L193.341 234.89Z" fill="#35D2CC"/>
<path d="M200.299 232.806C199.917 232.918 199.697 233.318 199.808 233.7C199.919 234.082 200.319 234.302 200.702 234.191L200.299 232.806ZM200.702 234.191C210.747 231.266 216.094 226.264 218.881 219.801C221.636 213.409 221.846 205.666 221.846 197.375C221.846 180.704 220.999 161.505 237.025 144.493L235.976 143.504C219.501 160.994 220.404 180.796 220.404 197.375C220.404 205.709 220.177 213.153 217.557 219.23C214.969 225.235 210.003 229.982 200.299 232.806L200.702 234.191Z" fill="url(#paint3_linear_81_5)"/>
<rect x="204.272" y="164.569" width="59.899" height="23.3373" transform="rotate(-1.08556 204.272 164.569)" fill="white"/>
<path fill-rule="evenodd" clip-rule="evenodd" d="M216.112 183.094C220.085 183.018 223.245 179.736 223.17 175.763C223.095 171.79 219.813 168.63 215.839 168.705C211.866 168.78 208.706 172.062 208.781 176.036C208.857 180.009 212.139 183.169 216.112 183.094Z" fill="#AEB8FF"/>
<g filter="url(#filter2_d_81_5)">
<path fill-rule="evenodd" clip-rule="evenodd" d="M213.306 170.964C211.232 171.047 209.565 172.76 209.539 174.836C209.526 175.867 209.908 176.805 210.542 177.512C210.828 177.83 210.916 178.279 210.78 178.684L210.536 179.412C210.456 179.649 210.732 179.845 210.93 179.692L211.833 178.989C212.102 178.78 212.447 178.697 212.782 178.757C213.131 178.819 213.496 178.835 213.87 178.797C215.838 178.596 217.361 176.937 217.395 174.959C217.433 172.693 215.562 170.872 213.306 170.964Z" fill="#5F6CFF"/>
</g>
<g filter="url(#filter3_d_81_5)">
<path fill-rule="evenodd" clip-rule="evenodd" d="M221.618 178.711C221.293 179.118 221.198 179.663 221.382 180.15L221.513 180.495C221.36 180.68 221.197 180.857 221.026 181.026L220.244 180.464C219.913 180.227 219.5 180.139 219.102 180.22C218.845 180.273 218.558 180.321 218.348 180.325C215.983 180.37 214.029 178.489 213.985 176.124C213.94 173.761 215.823 171.805 218.186 171.76C220.551 171.716 222.505 173.596 222.55 175.962C222.569 177 222.218 177.958 221.618 178.711Z" fill="#F3F5F9"/>
</g>
<path fill-rule="evenodd" clip-rule="evenodd" d="M212.952 177.422C212.889 177.74 212.562 177.965 212.244 177.902C211.903 177.835 211.702 177.505 211.765 177.188C211.829 176.862 212.139 176.641 212.48 176.708C212.798 176.771 213.016 177.096 212.952 177.422ZM213.095 175.919C213.048 176.159 212.764 176.208 212.578 176.172C212.33 176.123 212.14 175.98 212.188 175.74C212.37 174.817 212.523 173.47 212.705 172.547C212.764 172.244 213.046 172.123 213.364 172.185C213.667 172.245 213.889 172.466 213.829 172.768C213.647 173.691 213.277 174.996 213.095 175.919Z" fill="#F3F5F9"/>
<path fill-rule="evenodd" clip-rule="evenodd" d="M219.093 176.185C218.7 176.505 218.697 176.722 218.704 177.099C218.707 177.237 218.637 177.398 218.282 177.404C217.985 177.41 217.881 177.303 217.874 176.926C217.862 176.303 218.132 176.001 218.339 175.815C218.574 175.608 218.976 175.376 218.968 174.984C218.962 174.651 218.669 174.497 218.307 174.504C217.567 174.518 217.737 175.073 217.346 175.08C217.15 175.084 216.909 174.958 216.903 174.675C216.896 174.284 217.334 173.695 218.313 173.677C219.241 173.659 219.866 174.162 219.879 174.844C219.892 175.525 219.286 176.03 219.093 176.185ZM218.867 178.452C218.873 178.749 218.631 179.015 218.32 179.021C218.008 179.027 217.764 178.77 217.758 178.473C217.753 178.169 217.994 177.91 218.299 177.905C218.603 177.899 218.862 178.148 218.867 178.452Z" fill="#00D9CD"/>
<path opacity="0.7" d="M232.221 177.507C232.218 177.386 232.186 177.277 232.124 177.181C232.061 177.081 231.943 176.992 231.77 176.915C231.601 176.837 231.35 176.768 231.019 176.707C230.729 176.649 230.462 176.578 230.218 176.495C229.977 176.409 229.77 176.303 229.596 176.179C229.422 176.054 229.286 175.905 229.189 175.732C229.091 175.559 229.04 175.358 229.036 175.129C229.032 174.907 229.076 174.696 229.17 174.496C229.264 174.296 229.4 174.118 229.579 173.963C229.758 173.808 229.976 173.685 230.233 173.592C230.494 173.5 230.786 173.451 231.109 173.445C231.566 173.436 231.96 173.506 232.289 173.654C232.621 173.8 232.878 174.002 233.058 174.261C233.237 174.516 233.33 174.807 233.337 175.134L232.121 175.157C232.118 175.012 232.078 174.878 232.002 174.755C231.929 174.629 231.819 174.528 231.673 174.454C231.527 174.376 231.345 174.339 231.126 174.343C230.917 174.347 230.745 174.384 230.608 174.454C230.475 174.52 230.375 174.606 230.31 174.712C230.248 174.817 230.218 174.932 230.221 175.057C230.222 175.147 230.241 175.229 230.276 175.303C230.314 175.373 230.376 175.437 230.461 175.496C230.546 175.552 230.662 175.603 230.807 175.651C230.956 175.699 231.142 175.744 231.365 175.787C231.784 175.867 232.144 175.972 232.446 176.105C232.752 176.233 232.987 176.404 233.153 176.616C233.318 176.825 233.404 177.093 233.41 177.419C233.415 177.661 233.367 177.884 233.266 178.088C233.169 178.288 233.025 178.464 232.832 178.616C232.64 178.764 232.408 178.882 232.137 178.968C231.87 179.053 231.568 179.099 231.231 179.106C230.737 179.115 230.316 179.036 229.97 178.867C229.623 178.695 229.358 178.473 229.175 178.201C228.995 177.925 228.902 177.637 228.896 177.338L230.072 177.316C230.089 177.541 230.155 177.72 230.269 177.852C230.386 177.981 230.529 178.074 230.698 178.132C230.871 178.186 231.048 178.211 231.229 178.207C231.448 178.203 231.631 178.171 231.778 178.111C231.925 178.048 232.036 177.965 232.111 177.863C232.187 177.757 232.223 177.638 232.221 177.507ZM236.419 171.153L236.566 178.904L235.355 178.927L235.208 171.176L236.419 171.153ZM236.299 175.976L235.905 175.979C235.901 175.602 235.947 175.253 236.042 174.931C236.14 174.61 236.279 174.329 236.46 174.09C236.644 173.848 236.866 173.66 237.126 173.527C237.386 173.391 237.675 173.32 237.995 173.314C238.264 173.309 238.507 173.341 238.724 173.411C238.944 173.481 239.134 173.597 239.295 173.759C239.457 173.917 239.58 174.127 239.666 174.388C239.755 174.645 239.803 174.961 239.81 175.334L239.876 178.841L238.655 178.864L238.589 175.347C238.584 175.085 238.541 174.877 238.461 174.724C238.384 174.57 238.272 174.461 238.126 174.397C237.98 174.329 237.803 174.297 237.595 174.301C237.376 174.305 237.183 174.353 237.017 174.443C236.854 174.534 236.718 174.656 236.61 174.809C236.502 174.963 236.421 175.139 236.367 175.339C236.317 175.538 236.294 175.751 236.299 175.976ZM245.026 177.648L244.977 175.044C244.973 174.849 244.934 174.682 244.861 174.542C244.788 174.402 244.678 174.295 244.532 174.22C244.389 174.145 244.21 174.11 243.995 174.114C243.796 174.118 243.625 174.155 243.482 174.225C243.339 174.295 243.228 174.388 243.149 174.504C243.071 174.62 243.033 174.75 243.035 174.894L241.824 174.917C241.82 174.702 241.869 174.493 241.969 174.289C242.069 174.085 242.217 173.902 242.413 173.74C242.608 173.578 242.843 173.449 243.117 173.353C243.391 173.257 243.7 173.206 244.043 173.2C244.454 173.192 244.818 173.254 245.137 173.386C245.459 173.518 245.714 173.721 245.901 173.997C246.091 174.27 246.19 174.614 246.198 175.031L246.244 177.458C246.249 177.707 246.27 177.931 246.307 178.129C246.348 178.323 246.403 178.492 246.473 178.635L246.475 178.716L245.228 178.74C245.169 178.61 245.12 178.444 245.083 178.243C245.048 178.038 245.03 177.84 245.026 177.648ZM245.16 175.42L245.185 176.171L244.312 176.188C244.086 176.192 243.888 176.218 243.718 176.265C243.547 176.308 243.405 176.371 243.292 176.454C243.179 176.537 243.095 176.636 243.04 176.752C242.985 176.867 242.959 176.997 242.962 177.142C242.965 177.287 243.001 177.419 243.07 177.539C243.14 177.655 243.239 177.746 243.368 177.811C243.501 177.876 243.66 177.906 243.845 177.903C244.093 177.898 244.309 177.843 244.493 177.739C244.679 177.631 244.825 177.502 244.929 177.352C245.034 177.199 245.089 177.055 245.093 176.92L245.497 177.452C245.459 177.591 245.393 177.74 245.298 177.9C245.204 178.06 245.079 178.214 244.923 178.362C244.771 178.506 244.587 178.626 244.37 178.721C244.156 178.815 243.908 178.866 243.626 178.871C243.269 178.878 242.95 178.813 242.668 178.677C242.386 178.538 242.164 178.348 242.001 178.109C241.838 177.867 241.754 177.591 241.748 177.281C241.743 176.992 241.792 176.735 241.895 176.511C242.002 176.284 242.16 176.092 242.369 175.937C242.581 175.781 242.841 175.662 243.149 175.579C243.457 175.492 243.81 175.445 244.207 175.438L245.16 175.42ZM249.538 174.236L249.622 178.656L248.406 178.679L248.302 173.22L249.463 173.198L249.538 174.236ZM251.188 173.13L251.199 174.26C251.125 174.248 251.044 174.24 250.956 174.235C250.872 174.229 250.788 174.228 250.704 174.229C250.495 174.233 250.312 174.267 250.155 174.33C249.998 174.391 249.867 174.477 249.762 174.59C249.659 174.7 249.581 174.833 249.527 174.989C249.473 175.144 249.442 175.318 249.436 175.51L249.159 175.536C249.152 175.192 249.18 174.874 249.242 174.58C249.303 174.286 249.399 174.027 249.53 173.802C249.663 173.578 249.832 173.401 250.034 173.273C250.241 173.144 250.48 173.078 250.752 173.072C250.826 173.071 250.906 173.076 250.99 173.088C251.078 173.1 251.144 173.114 251.188 173.13ZM255.223 178.651C254.819 178.659 254.453 178.6 254.124 178.475C253.799 178.347 253.519 178.165 253.286 177.931C253.056 177.696 252.877 177.419 252.75 177.098C252.623 176.777 252.556 176.43 252.549 176.057L252.545 175.855C252.537 175.428 252.592 175.04 252.71 174.691C252.828 174.342 252.995 174.043 253.213 173.793C253.43 173.54 253.689 173.345 253.989 173.208C254.289 173.071 254.616 172.999 254.969 172.992C255.359 172.985 255.702 173.044 255.997 173.17C256.292 173.296 256.538 173.476 256.734 173.711C256.934 173.943 257.084 174.221 257.184 174.546C257.288 174.87 257.344 175.229 257.351 175.623L257.361 176.142L253.143 176.222L253.126 175.349L256.143 175.292L256.142 175.196C256.131 174.978 256.083 174.773 255.999 174.583C255.918 174.393 255.795 174.24 255.632 174.126C255.468 174.011 255.252 173.956 254.982 173.961C254.781 173.965 254.601 174.012 254.445 174.103C254.292 174.19 254.165 174.315 254.063 174.479C253.962 174.642 253.885 174.839 253.832 175.068C253.783 175.295 253.761 175.549 253.766 175.832L253.77 176.034C253.774 176.273 253.811 176.494 253.878 176.698C253.95 176.899 254.05 177.073 254.181 177.222C254.312 177.371 254.469 177.488 254.652 177.572C254.835 177.652 255.043 177.691 255.275 177.686C255.568 177.681 255.827 177.617 256.054 177.495C256.28 177.373 256.476 177.202 256.64 176.984L257.292 177.592C257.178 177.766 257.028 177.934 256.843 178.096C256.657 178.254 256.429 178.384 256.159 178.487C255.891 178.59 255.579 178.644 255.223 178.651Z" fill="#8591EF"/>
<g filter="url(#filter4_d_81_5)">
<rect x="120" y="279.155" width="59.899" height="23.3373" transform="rotate(-1.08556 120 279.155)" fill="white"/>
<path fill-rule="evenodd" clip-rule="evenodd" d="M131.84 297.679C135.813 297.604 138.973 294.322 138.898 290.348C138.822 286.375 135.54 283.215 131.567 283.29C127.594 283.366 124.434 286.648 124.509 290.621C124.584 294.594 127.866 297.754 131.84 297.679Z" fill="#AEB8FF"/>
<g filter="url(#filter5_d_81_5)">
<path fill-rule="evenodd" clip-rule="evenodd" d="M129.034 285.549C126.959 285.633 125.293 287.345 125.266 289.421C125.253 290.453 125.636 291.391 126.27 292.097C126.556 292.415 126.644 292.864 126.508 293.269L126.263 293.998C126.183 294.235 126.46 294.431 126.657 294.277L127.56 293.574C127.829 293.365 128.174 293.283 128.509 293.342C128.859 293.404 129.223 293.42 129.597 293.382C131.565 293.182 133.089 291.522 133.122 289.544C133.161 287.279 131.29 285.458 129.034 285.549Z" fill="#5F6CFF"/>
</g>
<g filter="url(#filter6_d_81_5)">
<path fill-rule="evenodd" clip-rule="evenodd" d="M137.346 293.297C137.021 293.704 136.926 294.248 137.11 294.735L137.241 295.081C137.087 295.265 136.925 295.442 136.754 295.611L135.971 295.049C135.641 294.813 135.227 294.724 134.829 294.806C134.573 294.859 134.285 294.907 134.076 294.911C131.711 294.956 129.757 293.075 129.712 290.71C129.667 288.347 131.55 286.391 133.914 286.346C136.279 286.301 138.232 288.182 138.277 290.547C138.297 291.585 137.946 292.544 137.346 293.297Z" fill="#F3F5F9"/>
</g>
<path fill-rule="evenodd" clip-rule="evenodd" d="M128.679 292.007C128.616 292.325 128.29 292.551 127.972 292.488C127.631 292.421 127.43 292.091 127.493 291.773C127.557 291.447 127.866 291.226 128.208 291.294C128.525 291.356 128.743 291.681 128.679 292.007ZM128.822 290.504C128.775 290.745 128.491 290.794 128.305 290.757C128.057 290.708 127.868 290.566 127.915 290.325C128.097 289.403 128.25 288.055 128.432 287.132C128.492 286.83 128.774 286.708 129.092 286.771C129.394 286.83 129.617 287.051 129.557 287.354C129.375 288.277 129.005 289.582 128.822 290.504Z" fill="#F3F5F9"/>
<path fill-rule="evenodd" clip-rule="evenodd" d="M134.82 290.771C134.427 291.09 134.424 291.308 134.431 291.685C134.434 291.822 134.365 291.983 134.009 291.99C133.712 291.996 133.609 291.889 133.602 291.512C133.59 290.888 133.86 290.586 134.066 290.401C134.302 290.193 134.703 289.961 134.696 289.57C134.69 289.236 134.397 289.082 134.034 289.089C133.295 289.103 133.465 289.658 133.073 289.666C132.878 289.669 132.636 289.543 132.631 289.261C132.623 288.869 133.062 288.281 134.04 288.262C134.968 288.245 135.594 288.748 135.607 289.429C135.62 290.11 135.013 290.615 134.82 290.771ZM134.595 293.038C134.601 293.335 134.359 293.6 134.047 293.606C133.736 293.612 133.491 293.356 133.486 293.059C133.48 292.754 133.722 292.496 134.026 292.49C134.331 292.484 134.589 292.733 134.595 293.038Z" fill="#00D9CD"/>
<path opacity="0.7" d="M149.842 289.124L149.965 295.633L148.749 295.656L148.606 288.097L149.726 288.076L149.842 289.124ZM153.43 290.686L153.432 290.792C153.44 291.189 153.4 291.559 153.312 291.9C153.227 292.238 153.097 292.535 152.92 292.791C152.746 293.043 152.53 293.241 152.27 293.384C152.01 293.527 151.709 293.601 151.366 293.608C151.026 293.614 150.727 293.558 150.469 293.438C150.214 293.315 149.997 293.139 149.818 292.91C149.639 292.681 149.492 292.412 149.378 292.101C149.268 291.787 149.188 291.442 149.137 291.066L149.129 290.657C149.165 290.256 149.232 289.891 149.33 289.563C149.432 289.234 149.568 288.951 149.738 288.712C149.909 288.473 150.119 288.288 150.369 288.155C150.619 288.022 150.912 287.953 151.248 287.946C151.591 287.94 151.897 288.001 152.165 288.131C152.434 288.257 152.661 288.441 152.847 288.683C153.033 288.922 153.175 289.212 153.272 289.554C153.37 289.892 153.422 290.269 153.43 290.686ZM152.216 290.815L152.214 290.709C152.209 290.457 152.181 290.224 152.13 290.009C152.079 289.792 152.001 289.601 151.897 289.438C151.793 289.275 151.661 289.15 151.502 289.062C151.345 288.971 151.157 288.927 150.939 288.932C150.723 288.936 150.539 288.976 150.386 289.053C150.232 289.127 150.105 289.228 150.003 289.358C149.901 289.488 149.823 289.639 149.769 289.812C149.715 289.981 149.678 290.165 149.659 290.364L149.677 291.343C149.722 291.584 149.795 291.805 149.897 292.005C149.998 292.205 150.139 292.364 150.32 292.482C150.503 292.596 150.737 292.651 151.019 292.645C151.238 292.641 151.424 292.59 151.577 292.493C151.73 292.396 151.853 292.264 151.948 292.098C152.045 291.927 152.116 291.733 152.159 291.513C152.202 291.294 152.221 291.061 152.216 290.815ZM156.533 285.656L156.68 293.406L155.459 293.429L155.312 285.679L156.533 285.656ZM161.931 292.211L161.882 289.608C161.878 289.412 161.839 289.245 161.766 289.105C161.693 288.965 161.583 288.858 161.437 288.783C161.294 288.708 161.115 288.673 160.9 288.677C160.701 288.681 160.53 288.718 160.387 288.788C160.244 288.858 160.133 288.951 160.054 289.067C159.976 289.183 159.938 289.313 159.94 289.458L158.729 289.481C158.725 289.265 158.773 289.056 158.874 288.852C158.974 288.648 159.122 288.465 159.318 288.303C159.513 288.142 159.748 288.013 160.022 287.917C160.296 287.82 160.605 287.769 160.948 287.763C161.358 287.755 161.723 287.817 162.042 287.949C162.364 288.081 162.619 288.285 162.806 288.56C162.996 288.833 163.095 289.177 163.103 289.595L163.149 292.022C163.154 292.271 163.175 292.494 163.212 292.692C163.253 292.886 163.308 293.055 163.378 293.198L163.38 293.279L162.133 293.303C162.074 293.173 162.025 293.007 161.988 292.806C161.953 292.601 161.934 292.403 161.931 292.211ZM162.065 289.983L162.09 290.734L161.217 290.751C160.991 290.755 160.793 290.781 160.623 290.828C160.452 290.871 160.31 290.935 160.197 291.018C160.084 291.1 160 291.2 159.945 291.315C159.89 291.431 159.864 291.561 159.867 291.705C159.87 291.85 159.906 291.982 159.975 292.102C160.045 292.218 160.144 292.309 160.273 292.374C160.406 292.439 160.564 292.469 160.749 292.466C160.998 292.461 161.214 292.407 161.398 292.302C161.584 292.194 161.73 292.065 161.834 291.915C161.939 291.762 161.994 291.618 161.998 291.483L162.402 292.016C162.364 292.154 162.298 292.304 162.203 292.464C162.109 292.623 161.984 292.777 161.828 292.925C161.676 293.069 161.492 293.189 161.275 293.284C161.061 293.379 160.813 293.429 160.531 293.434C160.174 293.441 159.855 293.376 159.573 293.24C159.291 293.101 159.069 292.912 158.906 292.672C158.743 292.43 158.659 292.154 158.653 291.844C158.647 291.555 158.696 291.298 158.8 291.074C158.907 290.847 159.065 290.655 159.274 290.5C159.486 290.345 159.746 290.225 160.054 290.142C160.362 290.055 160.715 290.008 161.112 290.001L162.065 289.983ZM166.798 292.619L168.189 287.726L169.491 287.702L167.42 294.035C167.372 294.171 167.31 294.319 167.232 294.478C167.154 294.638 167.051 294.79 166.922 294.933C166.797 295.08 166.64 295.199 166.45 295.291C166.26 295.385 166.028 295.435 165.756 295.44C165.648 295.442 165.544 295.434 165.442 295.416C165.345 295.401 165.252 295.384 165.164 295.365L165.141 294.437C165.175 294.44 165.215 294.442 165.263 294.445C165.313 294.447 165.353 294.448 165.384 294.448C165.586 294.444 165.753 294.415 165.887 294.362C166.021 294.313 166.128 294.233 166.211 294.124C166.296 294.015 166.367 293.869 166.424 293.686L166.798 292.619ZM165.868 287.77L167.242 291.833L167.484 293.111L166.645 293.343L164.556 287.795L165.868 287.77Z" fill="#0EC3BA"/>
</g>
<circle cx="115.431" cy="239.069" r="3.43069" fill="#5468FF" fill-opacity="0.8"/>
<circle cx="185.569" cy="239.069" r="3.43069" fill="#01EBDE"/>
<circle cx="151.5" cy="201" r="3.43069" fill="#ADB8FA"/>
<defs>
<filter id="filter0_d_81_5" x="35.866" y="179.89" width="14.785" height="15.576" filterUnits="userSpaceOnUse" color-interpolation-filters="sRGB">
<feFlood flood-opacity="0" result="BackgroundImageFix"/>
<feColorMatrix in="SourceAlpha" type="matrix" values="0 0 0 0 0 0 0 0 0 0 0 0 0 0 0 0 0 0 127 0" result="hardAlpha"/>
<feOffset dy="1.86525"/>
<feGaussianBlur stdDeviation="1.73202"/>
<feColorMatrix type="matrix" values="0 0 0 0 0.239216 0 0 0 0 0.337255 0 0 0 0 0.941176 0 0 0 0.29 0"/>
<feBlend mode="normal" in2="BackgroundImageFix" result="effect1_dropShadow_81_5"/>
<feBlend mode="normal" in="SourceGraphic" in2="effect1_dropShadow_81_5" result="shape"/>
</filter>
<filter id="filter1_d_81_5" x="40.2486" y="180.924" width="15.4947" height="16.3238" filterUnits="userSpaceOnUse" color-interpolation-filters="sRGB">
<feFlood flood-opacity="0" result="BackgroundImageFix"/>
<feColorMatrix in="SourceAlpha" type="matrix" values="0 0 0 0 0 0 0 0 0 0 0 0 0 0 0 0 0 0 127 0" result="hardAlpha"/>
<feOffset dy="1.86525"/>
<feGaussianBlur stdDeviation="1.73202"/>
<feColorMatrix type="matrix" values="0 0 0 0 0.239216 0 0 0 0 0.337255 0 0 0 0 0.941176 0 0 0 0.28 0"/>
<feBlend mode="normal" in2="BackgroundImageFix" result="effect1_dropShadow_81_5"/>
<feBlend mode="normal" in="SourceGraphic" in2="effect1_dropShadow_81_5" result="shape"/>
</filter>
<filter id="filter2_d_81_5" x="206.075" y="169.361" width="14.7848" height="15.714" filterUnits="userSpaceOnUse" color-interpolation-filters="sRGB">
<feFlood flood-opacity="0" result="BackgroundImageFix"/>
<feColorMatrix in="SourceAlpha" type="matrix" values="0 0 0 0 0 0 0 0 0 0 0 0 0 0 0 0 0 0 127 0" result="hardAlpha"/>
<feOffset dy="1.86525"/>
<feGaussianBlur stdDeviation="1.73202"/>
<feColorMatrix type="matrix" values="0 0 0 0 0.239216 0 0 0 0 0.337255 0 0 0 0 0.941176 0 0 0 0.29 0"/>
<feBlend mode="normal" in2="BackgroundImageFix" result="effect1_dropShadow_81_5"/>
<feBlend mode="normal" in="SourceGraphic" in2="effect1_dropShadow_81_5" result="shape"/>
</filter>
<filter id="filter3_d_81_5" x="210.52" y="170.161" width="15.4947" height="16.1939" filterUnits="userSpaceOnUse" color-interpolation-filters="sRGB">
<feFlood flood-opacity="0" result="BackgroundImageFix"/>
<feColorMatrix in="SourceAlpha" type="matrix" values="0 0 0 0 0 0 0 0 0 0 0 0 0 0 0 0 0 0 127 0" result="hardAlpha"/>
<feOffset dy="1.86525"/>
<feGaussianBlur stdDeviation="1.73202"/>
<feColorMatrix type="matrix" values="0 0 0 0 0.239216 0 0 0 0 0.337255 0 0 0 0 0.941176 0 0 0 0.28 0"/>
<feBlend mode="normal" in2="BackgroundImageFix" result="effect1_dropShadow_81_5"/>
<feBlend mode="normal" in="SourceGraphic" in2="effect1_dropShadow_81_5" result="shape"/>
</filter>
<filter id="filter4_d_81_5" x="110" y="270.02" width="80.3303" height="44.4678" filterUnits="userSpaceOnUse" color-interpolation-filters="sRGB">
<feFlood flood-opacity="0" result="BackgroundImageFix"/>
<feColorMatrix in="SourceAlpha" type="matrix" values="0 0 0 0 0 0 0 0 0 0 0 0 0 0 0 0 0 0 127 0" result="hardAlpha"/>
<feOffset dy="2"/>
<feGaussianBlur stdDeviation="5"/>
<feComposite in2="hardAlpha" operator="out"/>
<feColorMatrix type="matrix" values="0 0 0 0 0.372549 0 0 0 0 0.423529 0 0 0 0 1 0 0 0 0.1 0"/>
<feBlend mode="normal" in2="BackgroundImageFix" result="effect1_dropShadow_81_5"/>
<feBlend mode="normal" in="SourceGraphic" in2="effect1_dropShadow_81_5" result="shape"/>
</filter>
<filter id="filter5_d_81_5" x="121.802" y="283.947" width="14.7848" height="15.714" filterUnits="userSpaceOnUse" color-interpolation-filters="sRGB">
<feFlood flood-opacity="0" result="BackgroundImageFix"/>
<feColorMatrix in="SourceAlpha" type="matrix" values="0 0 0 0 0 0 0 0 0 0 0 0 0 0 0 0 0 0 127 0" result="hardAlpha"/>
<feOffset dy="1.86525"/>
<feGaussianBlur stdDeviation="1.73202"/>
<feColorMatrix type="matrix" values="0 0 0 0 0.239216 0 0 0 0 0.337255 0 0 0 0 0.941176 0 0 0 0.29 0"/>
<feBlend mode="normal" in2="BackgroundImageFix" result="effect1_dropShadow_81_5"/>
<feBlend mode="normal" in="SourceGraphic" in2="effect1_dropShadow_81_5" result="shape"/>
</filter>
<filter id="filter6_d_81_5" x="126.247" y="284.746" width="15.4947" height="16.1939" filterUnits="userSpaceOnUse" color-interpolation-filters="sRGB">
<feFlood flood-opacity="0" result="BackgroundImageFix"/>
<feColorMatrix in="SourceAlpha" type="matrix" values="0 0 0 0 0 0 0 0 0 0 0 0 0 0 0 0 0 0 127 0" result="hardAlpha"/>
<feOffset dy="1.86525"/>
<feGaussianBlur stdDeviation="1.73202"/>
<feColorMatrix type="matrix" values="0 0 0 0 0.239216 0 0 0 0 0.337255 0 0 0 0 0.941176 0 0 0 0.28 0"/>
<feBlend mode="normal" in2="BackgroundImageFix" result="effect1_dropShadow_81_5"/>
<feBlend mode="normal" in="SourceGraphic" in2="effect1_dropShadow_81_5" result="shape"/>
</filter>
<linearGradient id="paint0_linear_81_5" x1="94.5311" y1="137.658" x2="199.499" y2="116" gradientUnits="userSpaceOnUse">
<stop stop-color="#8796FF" stop-opacity="0"/>
<stop offset="0.385417" stop-color="#5F6CFF" stop-opacity="0.78"/>
<stop offset="1" stop-color="#9BA5F2"/>
</linearGradient>
<linearGradient id="paint1_linear_81_5" x1="232.22" y1="98.5273" x2="232.22" y2="144.769" gradientUnits="userSpaceOnUse">
<stop stop-color="#AEB8FF"/>
<stop offset="1" stop-color="#99A6FF"/>
</linearGradient>
<linearGradient id="paint2_linear_81_5" x1="135.424" y1="214.018" x2="163.417" y2="261.39" gradientUnits="userSpaceOnUse">
<stop stop-color="#14E8DD"/>
<stop offset="1" stop-color="#00C7BD"/>
</linearGradient>
<linearGradient id="paint3_linear_81_5" x1="219.5" y1="148.999" x2="201.491" y2="235.199" gradientUnits="userSpaceOnUse">
<stop stop-color="#9AA4F1" stop-opacity="0"/>
<stop offset="0.494792" stop-color="#9AA4F1" stop-opacity="0.88"/>
<stop offset="1" stop-color="#35D2CC" stop-opacity="0.8"/>
</linearGradient>
</defs>
</svg>
