<svg width="56" height="55" viewBox="0 0 56 55" fill="none" xmlns="http://www.w3.org/2000/svg">
<g filter="url(#filter0_d_484_1349)">
<rect width="34.2641" height="34.2641" rx="11.4214" transform="matrix(-0.999997 0.00236136 0.00236136 0.999997 44.9985 8.00015)" fill="white"/>
<path fill-rule="evenodd" clip-rule="evenodd" d="M27.0234 15.8461C22.2214 16.641 18.9613 21.1906 19.7555 25.9885C20.0068 27.5063 20.6508 28.9318 21.621 30.1188L20.9001 34.6425C20.883 34.7512 20.9266 34.8599 21.0136 34.9267C21.0804 34.9778 21.1642 34.9975 21.2445 34.9843C21.2697 34.9801 21.294 34.9727 21.3182 34.9621L25.7981 32.9554C27.1172 33.3735 28.5342 33.4747 29.9039 33.248C34.7059 32.4531 37.9659 27.9035 37.1718 23.1056C36.3776 18.3077 31.8254 15.0513 27.0234 15.8461ZM24.6981 26.5339C24.0471 26.6417 23.43 26.2002 23.3223 25.5495C23.2146 24.8989 23.6566 24.2821 24.3076 24.1744C24.9589 24.0666 25.576 24.508 25.6837 25.1587C25.7914 25.8093 25.3495 26.4261 24.6981 26.5339ZM28.5357 25.8987C27.8847 26.0064 27.2672 25.565 27.1595 24.9144C27.0518 24.2637 27.4941 23.6469 28.1452 23.5392C28.7962 23.4314 29.4136 23.8728 29.5213 24.5234C29.629 25.1741 29.1867 25.7909 28.5357 25.8987ZM32.3747 25.262C31.7233 25.3698 31.1062 24.9284 30.9985 24.2777C30.8908 23.6271 31.3328 23.0103 31.9841 22.9025C32.6355 22.7947 33.2523 23.2362 33.36 23.8868C33.4677 24.5375 33.026 25.1542 32.3747 25.262Z" fill="#4A5771"/>
</g>
<defs>
<filter id="filter0_d_484_1349" x="0.73877" y="0" width="54.3408" height="54.3594" filterUnits="userSpaceOnUse" color-interpolation-filters="sRGB">
<feFlood flood-opacity="0" result="BackgroundImageFix"/>
<feColorMatrix in="SourceAlpha" type="matrix" values="0 0 0 0 0 0 0 0 0 0 0 0 0 0 0 0 0 0 127 0" result="hardAlpha"/>
<feOffset dy="2"/>
<feGaussianBlur stdDeviation="5"/>
<feComposite in2="hardAlpha" operator="out"/>
<feColorMatrix type="matrix" values="0 0 0 0 0.372549 0 0 0 0 0.423529 0 0 0 0 1 0 0 0 0.1 0"/>
<feBlend mode="normal" in2="BackgroundImageFix" result="effect1_dropShadow_484_1349"/>
<feBlend mode="normal" in="SourceGraphic" in2="effect1_dropShadow_484_1349" result="shape"/>
</filter>
</defs>
</svg>
