<svg width="81" height="45" viewBox="0 0 81 45" fill="none" xmlns="http://www.w3.org/2000/svg">
<g filter="url(#filter0_d_484_1758)">
<rect x="10" y="9.15454" width="59.899" height="23.3373" transform="rotate(-1.08556 10 9.15454)" fill="white"/>
<path fill-rule="evenodd" clip-rule="evenodd" d="M21.8396 27.6788C25.813 27.6035 28.9729 24.3215 28.8977 20.3482C28.8224 16.3749 25.5403 13.2149 21.567 13.2902C17.5937 13.3655 14.4337 16.6475 14.509 20.6209C14.5843 24.5942 17.8664 27.7541 21.8396 27.6788Z" fill="#AEB8FF"/>
<g filter="url(#filter1_d_484_1758)">
<path fill-rule="evenodd" clip-rule="evenodd" d="M19.0339 15.5488C16.9594 15.6325 15.2926 17.345 15.2664 19.421C15.2533 20.4524 15.6359 21.3906 16.27 22.0969C16.5556 22.4149 16.6438 22.864 16.5077 23.2692L16.2631 23.9975C16.1835 24.2344 16.4598 24.4304 16.6571 24.2769L17.5604 23.5742C17.8293 23.3651 18.1741 23.2827 18.5095 23.3422C18.8587 23.4041 19.2233 23.4199 19.5974 23.3818C21.5653 23.1813 23.0889 21.5218 23.1223 19.5439C23.1606 17.2785 21.2898 15.4576 19.0339 15.5488Z" fill="#5F6CFF"/>
</g>
<g filter="url(#filter2_d_484_1758)">
<path fill-rule="evenodd" clip-rule="evenodd" d="M27.3456 23.2963C27.0208 23.7037 26.9257 24.2477 27.11 24.7348L27.2408 25.0805C27.0875 25.2651 26.9248 25.4421 26.7538 25.6108L25.9711 25.049C25.6409 24.8123 25.2274 24.7238 24.8295 24.8056C24.5728 24.8587 24.2853 24.9067 24.0759 24.9107C21.7106 24.9555 19.757 23.0747 19.7122 20.7093C19.6671 18.3463 21.5503 16.3904 23.9136 16.3457C26.2786 16.3008 28.2324 18.1817 28.2772 20.547C28.297 21.5847 27.9456 22.5435 27.3456 23.2963Z" fill="#F3F5F9"/>
</g>
<path fill-rule="evenodd" clip-rule="evenodd" d="M18.6792 22.0068C18.6163 22.3247 18.2898 22.5504 17.9719 22.4877C17.6307 22.4203 17.4298 22.0906 17.4926 21.7727C17.5568 21.447 17.8663 21.226 18.2075 21.2934C18.5255 21.3561 18.7434 21.6811 18.6792 22.0068ZM18.8224 20.5042C18.775 20.7446 18.4914 20.7935 18.3053 20.7567C18.0571 20.7078 17.8677 20.5657 17.9151 20.3252C18.0972 19.4023 18.2502 18.0547 18.4323 17.1318C18.492 16.8294 18.7739 16.7078 19.0918 16.7705C19.3943 16.8301 19.6166 17.0513 19.5568 17.3537C19.3748 18.2766 19.0045 19.5813 18.8224 20.5042Z" fill="#F3F5F9"/>
<path fill-rule="evenodd" clip-rule="evenodd" d="M24.8202 20.7707C24.4275 21.0899 24.4243 21.3075 24.4315 21.6845C24.4341 21.8222 24.3646 21.983 24.0094 21.9897C23.7123 21.9953 23.6087 21.8885 23.6015 21.5116C23.5897 20.8882 23.8596 20.5858 24.0664 20.4006C24.3017 20.1931 24.7033 19.9607 24.6959 19.5693C24.6896 19.2359 24.3967 19.0819 24.0342 19.0887C23.2948 19.1027 23.4649 19.6579 23.0735 19.6653C22.8778 19.669 22.6361 19.5431 22.6307 19.2603C22.6233 18.869 23.0618 18.2805 24.0404 18.262C24.9682 18.2444 25.594 18.7474 25.6069 19.4288C25.6198 20.1101 25.0131 20.6147 24.8202 20.7707ZM24.5949 23.0373C24.6006 23.3345 24.359 23.6001 24.0473 23.606C23.7356 23.6119 23.4915 23.3555 23.4859 23.0584C23.4801 22.7539 23.7218 22.4955 24.0261 22.4897C24.3306 22.484 24.5892 22.7329 24.5949 23.0373Z" fill="#00D9CD"/>
<path opacity="0.7" d="M39.842 19.1238L39.9653 25.6329L38.7493 25.656L38.6061 18.0973L39.7262 18.076L39.842 19.1238ZM43.4302 20.6862L43.4322 20.7921C43.4398 21.1891 43.3996 21.5583 43.3119 21.8999C43.2274 22.238 43.0968 22.5349 42.9199 22.7906C42.7463 23.0429 42.5297 23.2405 42.2699 23.3834C42.0101 23.5263 41.7087 23.601 41.3656 23.6075C41.0258 23.614 40.7269 23.5574 40.4689 23.4377C40.2142 23.3147 39.9972 23.1388 39.8178 22.91C39.6385 22.6812 39.4921 22.4114 39.3785 22.1006C39.2682 21.7863 39.1877 21.4413 39.1368 21.0653L39.129 20.6566C39.1652 20.2555 39.2323 19.8908 39.3304 19.5625C39.4319 19.2342 39.5678 18.9506 39.7383 18.7118C39.9088 18.473 40.1189 18.2873 40.3688 18.1547C40.6187 18.0221 40.9118 17.9526 41.2482 17.9462C41.5913 17.9397 41.897 18.0012 42.1653 18.1308C42.4336 18.2569 42.6608 18.4411 42.8471 18.6832C43.0334 18.9219 43.1752 19.212 43.2725 19.5534C43.3697 19.8915 43.4223 20.269 43.4302 20.6862ZM42.2162 20.8152L42.2142 20.7092C42.2094 20.4569 42.1814 20.2236 42.1302 20.0092C42.079 19.7914 42.0014 19.6011 41.8973 19.4381C41.7933 19.2752 41.6613 19.1499 41.5015 19.062C41.345 18.9708 41.1574 18.9272 40.9388 18.9313C40.7235 18.9354 40.5391 18.9759 40.3858 19.0529C40.2324 19.1265 40.1048 19.2281 40.0029 19.3579C39.9011 19.4877 39.8232 19.639 39.7692 19.8116C39.7152 19.9809 39.6783 20.165 39.6585 20.3639L39.6771 21.3428C39.7221 21.5843 39.7952 21.805 39.8966 22.005C39.998 22.2049 40.139 22.3638 40.3195 22.4815C40.5034 22.5958 40.7366 22.6503 41.0192 22.6449C41.2379 22.6408 41.4237 22.5902 41.5766 22.493C41.7296 22.3959 41.8533 22.264 41.9477 22.0973C42.0454 21.9272 42.1158 21.7324 42.1587 21.5128C42.2017 21.2933 42.2208 21.0607 42.2162 20.8152ZM46.5335 15.6554L46.6803 23.4059L45.4592 23.429L45.3124 15.6785L46.5335 15.6554ZM51.9308 22.211L51.8815 19.6073C51.8778 19.4122 51.8393 19.2447 51.766 19.1048C51.6927 18.9648 51.5829 18.8575 51.4368 18.7829C51.2941 18.7082 51.1151 18.6729 50.8998 18.677C50.7013 18.6807 50.5304 18.7176 50.387 18.7876C50.2436 18.8577 50.1327 18.9506 50.0541 19.0665C49.9755 19.1824 49.9376 19.3127 49.9403 19.4574L48.7293 19.4803C48.7253 19.265 48.7734 19.0555 48.8739 18.8517C48.9744 18.6478 49.1223 18.465 49.3178 18.3031C49.5133 18.1413 49.7481 18.0123 50.0222 17.9163C50.2963 17.8202 50.6049 17.7689 50.9481 17.7624C51.3585 17.7547 51.7231 17.8167 52.0419 17.9487C52.3641 18.0805 52.6186 18.2843 52.8056 18.5601C52.9958 18.8324 53.0949 19.1772 53.1028 19.5943L53.1488 22.0214C53.1535 22.2703 53.1746 22.4937 53.212 22.6915C53.2527 22.8859 53.308 23.0548 53.378 23.1982L53.3796 23.2789L52.1332 23.3025C52.0736 23.1724 52.025 23.0068 51.9875 22.8056C51.9534 22.6009 51.9345 22.4028 51.9308 22.211ZM52.0653 19.9824L52.0896 20.7341L51.2167 20.7506C50.9913 20.7549 50.7932 20.7805 50.6225 20.8275C50.4517 20.8711 50.3099 20.9344 50.197 21.0173C50.0842 21.1002 50.0003 21.1994 49.9453 21.3148C49.8902 21.4303 49.8641 21.5603 49.8668 21.705C49.8696 21.8496 49.9057 21.9819 49.9753 22.1017C50.0448 22.2182 50.1441 22.3088 50.2732 22.3737C50.4057 22.4385 50.5644 22.4691 50.7495 22.4656C50.9984 22.4609 51.2144 22.4063 51.3975 22.3019C51.5839 22.194 51.7295 22.0651 51.8344 21.915C51.9391 21.7616 51.9936 21.6176 51.9978 21.4829L52.4016 22.0153C52.3639 22.154 52.2977 22.3033 52.2031 22.4633C52.1086 22.6232 51.9836 22.777 51.8283 22.9247C51.6762 23.0689 51.4917 23.1885 51.2748 23.2835C51.0612 23.3784 50.8131 23.4285 50.5306 23.4339C50.174 23.4406 49.8548 23.376 49.5729 23.24C49.2909 23.1006 49.0686 22.9114 48.9059 22.6722C48.7432 22.4296 48.6588 22.1536 48.653 21.8441C48.6475 21.5548 48.6965 21.2981 48.7999 21.074C48.9067 20.8466 49.0646 20.6551 49.2736 20.4997C49.486 20.3443 49.7463 20.2249 50.0543 20.1417C50.3622 20.0551 50.7147 20.008 51.1116 20.0005L52.0653 19.9824ZM56.7978 22.6185L58.1891 17.7262L59.491 17.7015L57.4203 24.0352C57.3724 24.1707 57.3095 24.3183 57.2318 24.4779C57.1541 24.6376 57.0509 24.7893 56.9224 24.933C56.7973 25.0801 56.6398 25.1992 56.4497 25.2903C56.2596 25.3848 56.0284 25.4346 55.7559 25.4397C55.6483 25.4418 55.5438 25.4337 55.4425 25.4154C55.3446 25.4004 55.2518 25.3837 55.1639 25.3651L55.1413 24.4368C55.175 24.4395 55.2154 24.4421 55.2626 24.4446C55.3131 24.447 55.3535 24.4479 55.3838 24.4473C55.5856 24.4435 55.7533 24.4151 55.8869 24.3621C56.0206 24.3124 56.1285 24.233 56.2105 24.1238C56.2959 24.0145 56.3672 23.8684 56.4243 23.6856L56.7978 22.6185ZM55.868 17.7702L57.2423 21.8327L57.4835 23.1103L56.645 23.3432L54.5561 17.795L55.868 17.7702Z" fill="#0EC3BA"/>
</g>
<defs>
<filter id="filter0_d_484_1758" x="0" y="0.0197754" width="80.3303" height="44.4678" filterUnits="userSpaceOnUse" color-interpolation-filters="sRGB">
<feFlood flood-opacity="0" result="BackgroundImageFix"/>
<feColorMatrix in="SourceAlpha" type="matrix" values="0 0 0 0 0 0 0 0 0 0 0 0 0 0 0 0 0 0 127 0" result="hardAlpha"/>
<feOffset dy="2"/>
<feGaussianBlur stdDeviation="5"/>
<feComposite in2="hardAlpha" operator="out"/>
<feColorMatrix type="matrix" values="0 0 0 0 0.372549 0 0 0 0 0.423529 0 0 0 0 1 0 0 0 0.1 0"/>
<feBlend mode="normal" in2="BackgroundImageFix" result="effect1_dropShadow_484_1758"/>
<feBlend mode="normal" in="SourceGraphic" in2="effect1_dropShadow_484_1758" result="shape"/>
</filter>
<filter id="filter1_d_484_1758" x="11.8021" y="13.9466" width="14.7848" height="15.714" filterUnits="userSpaceOnUse" color-interpolation-filters="sRGB">
<feFlood flood-opacity="0" result="BackgroundImageFix"/>
<feColorMatrix in="SourceAlpha" type="matrix" values="0 0 0 0 0 0 0 0 0 0 0 0 0 0 0 0 0 0 127 0" result="hardAlpha"/>
<feOffset dy="1.86525"/>
<feGaussianBlur stdDeviation="1.73202"/>
<feColorMatrix type="matrix" values="0 0 0 0 0.239216 0 0 0 0 0.337255 0 0 0 0 0.941176 0 0 0 0.29 0"/>
<feBlend mode="normal" in2="BackgroundImageFix" result="effect1_dropShadow_484_1758"/>
<feBlend mode="normal" in="SourceGraphic" in2="effect1_dropShadow_484_1758" result="shape"/>
</filter>
<filter id="filter2_d_484_1758" x="16.2474" y="14.7462" width="15.4947" height="16.1939" filterUnits="userSpaceOnUse" color-interpolation-filters="sRGB">
<feFlood flood-opacity="0" result="BackgroundImageFix"/>
<feColorMatrix in="SourceAlpha" type="matrix" values="0 0 0 0 0 0 0 0 0 0 0 0 0 0 0 0 0 0 127 0" result="hardAlpha"/>
<feOffset dy="1.86525"/>
<feGaussianBlur stdDeviation="1.73202"/>
<feColorMatrix type="matrix" values="0 0 0 0 0.239216 0 0 0 0 0.337255 0 0 0 0 0.941176 0 0 0 0.28 0"/>
<feBlend mode="normal" in2="BackgroundImageFix" result="effect1_dropShadow_484_1758"/>
<feBlend mode="normal" in="SourceGraphic" in2="effect1_dropShadow_484_1758" result="shape"/>
</filter>
</defs>
</svg>
