<svg width="48" height="48" viewBox="0 0 48 48" fill="none" xmlns="http://www.w3.org/2000/svg">
<rect y="0.343262" width="47.2177" height="47.2177" rx="10.5785" transform="rotate(-0.416454 0 0.343262)" fill="url(#paint0_linear_484_1693)" fill-opacity="0.9"/>
<path d="M19.1911 34.0641C18.514 32.6567 18.1667 31.1158 18.0523 29.5582C17.7275 25.1365 16.9209 19.7651 18.8776 17.495C20.1293 16.0428 22.3665 16.9131 24.0176 17.8875L47.4469 31.7139C47.4469 31.7117 47.4469 31.7162 47.4469 31.7139L47.4827 36.639C47.5252 42.4812 42.8232 47.2517 36.981 47.2941L25.5955 47.3769L19.1911 34.0641Z" fill="#05BAB1" fill-opacity="0.5"/>
<path d="M30.8481 21.9131C32.5037 22.9088 32.5211 25.3027 30.8802 26.3223L21.3283 32.2573C19.6142 33.3223 17.3954 32.0993 17.3807 30.0813L17.2954 18.3508C17.2808 16.3328 19.4816 15.0776 21.211 16.1176L30.8481 21.9131Z" fill="white"/>
<defs>
<linearGradient id="paint0_linear_484_1693" x1="7.59541" y1="0.188494" x2="35.5883" y2="47.561" gradientUnits="userSpaceOnUse">
<stop stop-color="#14E8DD"/>
<stop offset="1" stop-color="#00C7BD"/>
</linearGradient>
</defs>
</svg>
