<svg width="217" height="112" viewBox="0 0 217 112" fill="none" xmlns="http://www.w3.org/2000/svg">
<g filter="url(#filter0_d_591_1160)">
<path fill-rule="evenodd" clip-rule="evenodd" d="M21.1501 4.41211H196.221C201.275 4.41211 205.371 8.50879 205.371 13.5622V83.7127C205.371 88.7661 201.275 92.8628 196.221 92.8628H21.1501C16.0966 92.8628 12 88.7661 12 83.7127V13.5622C12 8.50879 16.0966 4.41211 21.1501 4.41211Z" fill="white"/>
</g>
<path fill-rule="evenodd" clip-rule="evenodd" d="M37.0111 46.5068C46.1087 46.5068 53.4838 39.1318 53.4838 30.0343C53.4838 20.9367 46.1087 13.5617 37.0111 13.5617C27.9137 13.5617 20.5386 20.9367 20.5386 30.0343C20.5386 39.1318 27.9137 46.5068 37.0111 46.5068Z" fill="#AEB8FF"/>
<g filter="url(#filter1_d_591_1160)">
<path fill-rule="evenodd" clip-rule="evenodd" d="M31.1161 18.6169C26.3643 18.7185 22.4749 22.5659 22.3248 27.3164C22.2501 29.6766 23.0853 31.8406 24.506 33.4847C25.1457 34.2249 25.3283 35.2566 24.9992 36.1781L24.4076 37.8345C24.2152 38.3734 24.8392 38.8339 25.2973 38.4912L27.3954 36.922C28.0198 36.4549 28.8126 36.2812 29.5778 36.432C30.3743 36.5889 31.2083 36.6408 32.066 36.5699C36.5791 36.1964 40.1383 32.4641 40.3005 27.9385C40.4864 22.755 36.2834 18.5061 31.1161 18.6169Z" fill="#5F6CFF"/>
</g>
<g filter="url(#filter2_d_591_1160)">
<path fill-rule="evenodd" clip-rule="evenodd" d="M49.8039 36.7171C49.0429 37.6354 48.8015 38.8765 49.2021 39.9995L49.4866 40.7963C49.1276 41.2123 48.7478 41.6103 48.3489 41.989L46.5819 40.6691C45.8363 40.1131 44.8937 39.8926 43.9793 40.0627C43.3897 40.1729 42.7294 40.2704 42.2501 40.2704C36.8343 40.2704 32.4444 35.8807 32.4444 30.4649C32.4437 25.0544 36.8389 20.6593 42.2501 20.6593C47.6651 20.6593 52.0555 25.049 52.0555 30.4649C52.0557 32.8409 51.2097 35.0201 49.8039 36.7171Z" fill="white"/>
</g>
<path fill-rule="evenodd" clip-rule="evenodd" d="M30.0195 33.3904C29.8619 34.1154 29.1048 34.6177 28.3798 34.4603C27.6018 34.2914 27.1562 33.5281 27.3137 32.8032C27.4748 32.0603 28.1927 31.568 28.971 31.737C29.696 31.8944 30.1806 32.6477 30.0195 33.3904ZM30.4126 29.9574C30.2937 30.5057 29.6424 30.6052 29.2179 30.5129C28.6521 30.3902 28.2247 30.0567 28.3436 29.5083C28.8003 27.4038 29.2091 24.3261 29.6659 22.2217C29.8156 21.532 30.4662 21.2658 31.191 21.4232C31.8807 21.5728 32.3801 22.0886 32.2302 22.7782C31.7734 24.8827 30.8694 27.853 30.4126 29.9574Z" fill="white"/>
<path fill-rule="evenodd" clip-rule="evenodd" d="M44.1334 30.8167C43.2206 31.5302 43.204 32.0281 43.204 32.8913C43.204 33.2067 43.0381 33.5716 42.2248 33.5716C41.5444 33.5716 41.312 33.3227 41.312 32.4597C41.312 31.0323 41.9427 30.3519 42.4241 29.937C42.9716 29.4723 43.901 28.9578 43.901 28.0615C43.901 27.2982 43.2373 26.9329 42.4073 26.9329C40.7144 26.9329 41.0796 28.211 40.1834 28.211C39.7354 28.211 39.1875 27.9122 39.1875 27.2647C39.1875 26.3687 40.2166 25.0409 42.4574 25.0409C44.5816 25.0409 45.9923 26.2194 45.9923 27.7793C45.9923 29.3393 44.5816 30.4681 44.1334 30.8167ZM43.5195 35.995C43.5195 36.6753 42.955 37.2728 42.2414 37.2728C41.5278 37.2728 40.9801 36.6753 40.9801 35.995C40.9801 35.2978 41.5446 34.7169 42.2414 34.7169C42.9384 34.7169 43.5195 35.2978 43.5195 35.995Z" fill="#00D9CD"/>
<path opacity="0.3" fill-rule="evenodd" clip-rule="evenodd" d="M202.496 43.7563C202.496 43.7561 202.496 43.7556 202.496 43.7553C202.496 43.6197 202.44 43.4977 202.35 43.4102L202.35 43.4101L199.474 40.5345L199.473 40.5358C199.387 40.4532 199.27 40.4023 199.141 40.4023C198.877 40.4023 198.662 40.6169 198.662 40.8815C198.662 41.027 198.727 41.1572 198.829 41.245L201.34 43.7562L198.796 46.3003L198.797 46.3005C198.714 46.3866 198.662 46.5039 198.662 46.6331C198.662 46.8977 198.877 47.1123 199.141 47.1123C199.271 47.1123 199.388 47.0613 199.474 46.978L199.474 46.9782L202.35 44.1025L202.35 44.1023C202.44 44.0151 202.496 43.8928 202.496 43.7574C202.496 43.7571 202.496 43.7569 202.496 43.7563Z" fill="white"/>
<g filter="url(#filter3_d_591_1160)">
<path fill-rule="evenodd" clip-rule="evenodd" d="M27.5115 56.2149H190.383C193.415 56.2149 195.873 58.6729 195.873 61.7049V78.1751C195.873 81.2071 193.415 83.6651 190.383 83.6651H27.5115C24.4794 83.6651 22.0215 81.2071 22.0215 78.1751V61.7049C22.0215 58.6729 24.4794 56.2149 27.5115 56.2149Z" fill="#00D9CD"/>
</g>
<path d="M53.7948 71.9973C55.0629 71.2153 56.4789 69.6724 56.4789 68.0133C56.4789 66.6395 55.5173 65.7307 54.1646 65.7307C52.5266 65.7307 51.639 67.0622 51.639 68.4148L52.8859 68.5099C52.9176 67.7491 53.2135 66.9565 54.1435 66.9565C54.8727 66.9565 55.2108 67.4426 55.2108 68.1084C55.2108 69.8309 52.9282 71.3526 51.6284 72.1452V73.1914H56.7854V71.9973H53.7948ZM61.0435 65.7201C59.5746 65.7201 58.3699 66.7663 58.3699 68.288C58.3699 69.7252 59.3421 70.8243 60.8533 70.8243C60.9801 70.8243 61.0963 70.8137 61.2232 70.8031L59.6697 73.1914H61.128L63.3261 69.6512C63.5903 69.2285 63.7383 68.753 63.7383 68.2775C63.7383 66.7663 62.523 65.7201 61.0435 65.7201ZM61.0435 69.6407C60.2721 69.6407 59.6591 69.1334 59.6591 68.288C59.6591 67.4426 60.2721 66.9354 61.0435 66.9354C61.8255 66.9354 62.4384 67.4426 62.4384 68.288C62.4384 69.1334 61.8255 69.6407 61.0435 69.6407ZM67.7639 65.8258V66.2696C67.7639 66.7663 67.5314 66.9776 67.0241 66.9776H66.0413V68.0344H67.7639V73.1914H69.032V65.8258H67.7639ZM80.2982 65.8258V70.8982L77.2018 65.8258H75.8386V73.1914H77.1596V68.0978L80.2453 73.1914H81.6191V65.8258H80.2982ZM84.1411 73.1914H89.0445V71.9761H85.4621V70.0105H88.7909V68.7953H85.4621V67.041H89.0445V65.8258H84.1411V73.1914ZM92.6518 73.1914H93.9305L95.5368 68.3409L97.1325 73.1914H98.4217L100.63 65.8258H99.246L97.7031 71.173L96.0969 66.2485H94.9661L93.3704 71.173L91.817 65.8258H90.4432L92.6518 73.1914ZM111.119 73.1914L109.132 69.9788C110.009 69.6829 110.495 69.0066 110.495 67.9499C110.495 66.6289 109.745 65.8258 107.991 65.8258H105.581V73.1914H106.892V70.1374H107.378H107.822L109.586 73.1914H111.119ZM106.892 68.9221V67.041H107.853C108.709 67.041 109.174 67.2524 109.174 67.971C109.174 68.6896 108.709 68.9221 107.853 68.9221H106.892ZM112.821 73.1914H117.724V71.9761H114.142V70.0105H117.471V68.7953H114.142V67.041H117.724V65.8258H112.821V73.1914ZM122.05 73.3288C123.561 73.3288 124.607 72.42 124.607 71.0462C124.607 70 124.09 69.4399 122.515 68.8375C121.405 68.4043 121.046 68.1295 121.046 67.6434C121.046 67.189 121.448 66.8403 121.976 66.8403C122.473 66.8403 122.906 67.1361 123.16 67.6857L124.259 67.0093C123.794 66.1217 123.012 65.6672 122.018 65.6672C120.645 65.6672 119.725 66.481 119.725 67.6751C119.725 68.7424 120.275 69.3025 121.818 69.9049C122.906 70.3381 123.286 70.6552 123.286 71.1624C123.286 71.7859 122.811 72.1558 122.071 72.1558C121.215 72.1558 120.634 71.6591 120.539 70.782L119.229 71.1096C119.44 72.4517 120.581 73.3288 122.05 73.3288ZM126.495 73.1914H127.805V70.1374H128.904C130.532 70.1374 131.409 69.3765 131.409 67.9499C131.409 66.5444 130.553 65.8258 128.904 65.8258H126.495V73.1914ZM127.805 68.9221V67.041H128.767C129.708 67.041 130.088 67.3052 130.088 67.971C130.088 68.6368 129.697 68.9221 128.767 68.9221H127.805ZM136.24 73.3499C138.333 73.3499 139.759 71.8176 139.759 69.5139C139.759 67.1996 138.343 65.6672 136.24 65.6672C134.148 65.6672 132.721 67.1996 132.721 69.5139C132.721 71.8176 134.148 73.3499 136.24 73.3499ZM136.24 72.0924C134.898 72.0924 134.042 71.1096 134.042 69.5139C134.042 67.9076 134.898 66.9248 136.24 66.9248C137.583 66.9248 138.439 67.9182 138.439 69.5139C138.439 71.099 137.583 72.0924 136.24 72.0924ZM146.228 65.8258V70.8982L143.132 65.8258H141.769V73.1914H143.09V68.0978L146.176 73.1914H147.549V65.8258H146.228ZM152.185 73.3288C153.696 73.3288 154.742 72.42 154.742 71.0462C154.742 70 154.224 69.4399 152.65 68.8375C151.54 68.4043 151.181 68.1295 151.181 67.6434C151.181 67.189 151.582 66.8403 152.111 66.8403C152.608 66.8403 153.041 67.1361 153.294 67.6857L154.393 67.0093C153.928 66.1217 153.146 65.6672 152.153 65.6672C150.779 65.6672 149.86 66.481 149.86 67.6751C149.86 68.7424 150.409 69.3025 151.952 69.9049C153.041 70.3381 153.421 70.6552 153.421 71.1624C153.421 71.7859 152.946 72.1558 152.206 72.1558C151.35 72.1558 150.769 71.6591 150.674 70.782L149.363 71.1096C149.575 72.4517 150.716 73.3288 152.185 73.3288ZM156.63 73.1914H161.533V71.9761H157.951V70.0105H161.28V68.7953H157.951V67.041H161.533V65.8258H156.63V73.1914ZM165.859 73.3288C167.37 73.3288 168.416 72.42 168.416 71.0462C168.416 70 167.899 69.4399 166.324 68.8375C165.214 68.4043 164.855 68.1295 164.855 67.6434C164.855 67.189 165.257 66.8403 165.785 66.8403C166.282 66.8403 166.715 67.1361 166.969 67.6857L168.068 67.0093C167.603 66.1217 166.821 65.6672 165.827 65.6672C164.454 65.6672 163.534 66.481 163.534 67.6751C163.534 68.7424 164.084 69.3025 165.627 69.9049C166.715 70.3381 167.095 70.6552 167.095 71.1624C167.095 71.7859 166.62 72.1558 165.88 72.1558C165.024 72.1558 164.443 71.6591 164.348 70.782L163.037 71.1096C163.249 72.4517 164.39 73.3288 165.859 73.3288Z" fill="white"/>
<path d="M66.8033 27.717C64.5743 27.717 63.1689 26.1907 63.1689 23.7422C63.1689 21.2826 64.5853 19.7674 66.8252 19.7674C68.4174 19.7674 69.5812 20.525 70.1412 21.9634L69.0542 22.3806C68.6919 21.3815 67.9233 20.8874 66.8252 20.8874C65.2551 20.8874 64.3438 21.9085 64.3438 23.7312C64.3438 25.5649 65.2551 26.597 66.8033 26.597C67.9123 26.597 68.6919 26.0809 69.0542 25.0708L70.1632 25.488C69.6032 26.9374 68.4064 27.717 66.8033 27.717ZM72.3815 27.673C71.6788 27.673 71.1847 27.2448 71.1847 26.3225V19.9211H72.3156V26.2456C72.3156 26.5311 72.4584 26.6739 72.7439 26.6739C72.8756 26.6739 73.0293 26.6519 73.194 26.597V27.5193C72.9195 27.6181 72.6341 27.673 72.3815 27.673ZM78.7762 24.7304C78.7762 24.8951 78.7652 25.0598 78.7433 25.2245H74.9442C74.9881 26.0919 75.5041 26.6519 76.4265 26.6519C76.9535 26.6519 77.4037 26.4982 77.81 26.037L78.6005 26.7178C77.9856 27.3876 77.3049 27.673 76.4155 27.673C74.6257 27.673 73.8132 26.3774 73.8132 24.8951C73.8132 23.4457 74.6038 22.0622 76.3276 22.0622C78.0076 22.0622 78.7762 23.3139 78.7762 24.7304ZM74.9442 24.3131H77.6892V24.2912C77.6672 23.5226 77.1292 23.0065 76.3276 23.0065C75.4602 23.0065 75.021 23.6434 74.9442 24.3131ZM82.0311 22.0622C83.4366 22.0622 84.293 22.8528 84.293 24.1704V27.5742H83.2609L83.173 26.8056C82.8217 27.3546 82.1958 27.673 81.4272 27.673C80.2743 27.673 79.5057 26.9813 79.5057 25.9492C79.5057 25.3343 79.7692 24.8731 80.2523 24.6316C80.6257 24.4449 81.1307 24.3571 81.8994 24.3571H83.1621V24.1704C83.1621 23.4677 82.7338 23.0504 82.0201 23.0504C81.4272 23.0504 80.9002 23.3359 80.4939 23.8959L79.6704 23.2041C80.2963 22.4355 81.0649 22.0622 82.0311 22.0622ZM81.6358 26.7178C82.5142 26.7178 83.1621 26.1029 83.1621 25.2464V25.2245H82.0311C81.4052 25.2245 81.0868 25.2794 80.8782 25.4441C80.7135 25.5539 80.6366 25.7405 80.6366 25.9711C80.6366 26.4323 81.0209 26.7178 81.6358 26.7178ZM88.6551 22.0622C89.8519 22.0622 90.5107 22.8089 90.5107 24.1375V27.5742H89.3798V24.4229C89.3798 23.7861 89.259 23.0504 88.3257 23.0504C87.1618 23.0504 86.9642 24.1704 86.9642 25.3233V27.5742H85.8332V22.161H86.9642V22.8308C87.3375 22.3148 87.9524 22.0622 88.6551 22.0622ZM96.5974 24.7304C96.5974 24.8951 96.5864 25.0598 96.5644 25.2245H92.7653C92.8093 26.0919 93.3253 26.6519 94.2477 26.6519C94.7747 26.6519 95.2249 26.4982 95.6311 26.037L96.4217 26.7178C95.8068 27.3876 95.1261 27.673 94.2367 27.673C92.4469 27.673 91.6344 26.3774 91.6344 24.8951C91.6344 23.4457 92.425 22.0622 94.1488 22.0622C95.8288 22.0622 96.5974 23.3139 96.5974 24.7304ZM92.7653 24.3131H95.5104V24.2912C95.4884 23.5226 94.9504 23.0065 94.1488 23.0065C93.2814 23.0065 92.8422 23.6434 92.7653 24.3131ZM100.467 22.0622C100.819 22.0622 101.137 22.1391 101.466 22.3367L100.917 23.3249C100.709 23.2041 100.5 23.1383 100.248 23.1383C99.435 23.1383 98.9629 23.6763 98.9629 24.7523V27.5742H97.832V22.161H98.9739V23.0504C99.2484 22.3697 99.8743 22.0622 100.467 22.0622ZM106.992 27.717C105.531 27.717 104.565 26.7946 104.455 25.2355L105.608 25.1037C105.674 26.1358 106.146 26.6299 106.992 26.6299C107.903 26.6299 108.342 26.048 108.342 24.8292V21.0081H105.389V19.9211H109.517V24.8951C109.517 26.6739 108.573 27.717 106.992 27.717ZM113.431 27.673C111.795 27.673 110.752 26.4103 110.752 24.8621C110.752 23.303 111.795 22.0622 113.431 22.0622C115.056 22.0622 116.1 23.303 116.1 24.8621C116.1 26.4103 115.056 27.673 113.431 27.673ZM113.431 26.6848C114.485 26.6848 114.969 25.8503 114.969 24.8621C114.969 23.863 114.474 23.0504 113.431 23.0504C112.377 23.0504 111.883 23.863 111.883 24.8621C111.883 25.8613 112.377 26.6848 113.431 26.6848ZM120.093 22.0512C121.477 22.0512 122.41 23.1163 122.41 24.8621C122.41 26.4872 121.597 27.673 120.093 27.673C119.445 27.673 118.83 27.4534 118.457 26.9703V27.5742H117.326V19.9211H118.457V22.7649C118.797 22.3257 119.423 22.0512 120.093 22.0512ZM119.841 26.6409C120.807 26.6409 121.279 25.9492 121.279 24.8731C121.279 23.7641 120.785 23.0724 119.83 23.0724C118.841 23.0724 118.347 23.841 118.347 24.8731C118.347 25.8833 118.819 26.6409 119.841 26.6409ZM126.418 21.107V19.9211H127.626V21.107H126.418ZM126.462 27.5742V22.161H127.593V27.5742H126.462ZM132.104 22.0622C133.3 22.0622 133.959 22.8089 133.959 24.1375V27.5742H132.828V24.4229C132.828 23.7861 132.708 23.0504 131.774 23.0504C130.61 23.0504 130.413 24.1704 130.413 25.3233V27.5742H129.282V22.161H130.413V22.8308C130.786 22.3148 131.401 22.0622 132.104 22.0622ZM138.53 27.5742V19.9211H141.088C142.582 19.9211 143.471 20.6348 143.471 21.8426C143.471 22.5893 143.142 23.1712 142.571 23.4677C143.416 23.7422 143.866 24.39 143.866 25.3672C143.866 26.7617 142.955 27.5742 141.396 27.5742H138.53ZM139.705 23.0614H141.143C141.879 23.0614 142.296 22.6991 142.296 22.0512C142.296 21.3815 141.857 21.0081 141.088 21.0081H139.705V23.0614ZM139.705 26.4872H141.297C142.175 26.4872 142.691 26.037 142.691 25.2684C142.691 24.5437 142.219 24.1265 141.374 24.1265H139.705V26.4872ZM147.851 22.0622C148.202 22.0622 148.521 22.1391 148.85 22.3367L148.301 23.3249C148.092 23.2041 147.884 23.1383 147.631 23.1383C146.819 23.1383 146.347 23.6763 146.347 24.7523V27.5742H145.216V22.161H146.358V23.0504C146.632 22.3697 147.258 22.0622 147.851 22.0622ZM149.632 21.107V19.9211H150.84V21.107H149.632ZM149.676 27.5742V22.161H150.807V27.5742H149.676ZM154.506 26.8056C155.593 26.9593 156.965 27.0911 156.965 28.3428C156.965 29.4408 155.955 29.913 154.528 29.913C152.947 29.913 152.035 29.3201 152.035 28.222C152.035 28.0903 152.046 28.0354 152.057 27.9805L152.87 27.4095C152.474 27.2009 152.2 26.8715 152.2 26.3115C152.2 25.8503 152.387 25.51 152.738 25.2464C152.453 24.9061 152.288 24.4778 152.288 24.0057C152.288 22.8638 153.254 22.0622 154.451 22.0622C154.934 22.0622 155.384 22.194 155.747 22.4355L156.548 21.7438L157.141 22.4685L156.372 23.0943C156.537 23.3798 156.625 23.7092 156.625 24.0716C156.625 25.2464 155.659 26.0041 154.484 26.0041C154.089 26.0041 153.737 25.9162 153.419 25.7735C153.276 25.8613 153.199 25.9821 153.199 26.1468C153.199 26.586 153.792 26.7068 154.506 26.8056ZM154.473 23.0065C153.836 23.0065 153.408 23.4237 153.408 24.0386C153.408 24.6206 153.781 25.0708 154.462 25.0708C155.143 25.0708 155.494 24.6316 155.494 24.0386C155.494 23.4128 155.099 23.0065 154.473 23.0065ZM154.572 29.0455C155.263 29.0455 155.834 28.8699 155.834 28.4416C155.834 27.9475 155.088 27.8817 154.264 27.7609C154.089 27.7389 153.902 27.706 153.715 27.673L153.166 28.2111C153.155 28.255 153.155 28.2879 153.155 28.3099C153.155 28.8699 153.858 29.0455 154.572 29.0455ZM160.98 22.0622C162.188 22.0622 162.847 22.7979 162.847 24.1375V27.5742H161.716V24.4229C161.716 23.4786 161.375 23.0504 160.651 23.0504C159.728 23.0504 159.3 23.7641 159.3 25.3013V27.5742H158.169V19.9211H159.3V22.8308C159.651 22.3367 160.244 22.0622 160.98 22.0622ZM167.088 26.597L167.099 27.5193C166.781 27.6181 166.462 27.673 166.166 27.673C165.31 27.673 164.629 27.2229 164.629 26.1358V23.0724H163.739V22.161H164.629V20.9972L165.76 20.1517V22.161H167.088V23.0724H165.76V26.037C165.76 26.4982 166.012 26.7178 166.44 26.7178C166.627 26.7178 166.847 26.6739 167.088 26.597ZM170.487 27.673C168.851 27.673 167.808 26.4103 167.808 24.8621C167.808 23.303 168.851 22.0622 170.487 22.0622C172.112 22.0622 173.155 23.303 173.155 24.8621C173.155 26.4103 172.112 27.673 170.487 27.673ZM170.487 26.6848C171.541 26.6848 172.024 25.8503 172.024 24.8621C172.024 23.863 171.53 23.0504 170.487 23.0504C169.433 23.0504 168.939 23.863 168.939 24.8621C168.939 25.8613 169.433 26.6848 170.487 26.6848ZM177.193 22.0622C178.39 22.0622 179.048 22.8089 179.048 24.1375V27.5742H177.917V24.4229C177.917 23.7861 177.797 23.0504 176.863 23.0504C175.699 23.0504 175.502 24.1704 175.502 25.3233V27.5742H174.371V22.161H175.502V22.8308C175.875 22.3148 176.49 22.0622 177.193 22.0622ZM63.7435 40.5742V33.7715H65.8322C67.1107 33.7715 67.8623 34.3961 67.8623 35.4697C67.8623 36.1724 67.5402 36.7092 66.9643 36.9532C67.7744 37.1582 68.2136 37.7633 68.2136 38.671C68.2136 39.891 67.4328 40.5742 66.0371 40.5742H63.7435ZM64.4365 36.7385H65.9688C66.7203 36.7385 67.1693 36.2993 67.1693 35.5868C67.1693 34.8451 66.6813 34.4156 65.8322 34.4156H64.4365V36.7385ZM64.4365 39.9301H65.9883C66.9643 39.9301 67.5109 39.4616 67.5109 38.6124C67.5109 37.8121 67.0229 37.3436 66.1738 37.3436H64.4365V39.9301ZM71.7937 35.6844C72.0865 35.6844 72.3598 35.743 72.6233 35.8894L72.2915 36.4359C72.067 36.3383 71.8621 36.2895 71.6571 36.2895C70.9153 36.2895 70.3688 36.8459 70.3688 37.8902V40.5742H69.6953V35.7625H70.3688V36.4847C70.7201 35.8503 71.3057 35.6844 71.7937 35.6844ZM73.5637 34.767V33.7715H74.3445V34.767H73.5637ZM73.6222 40.5742V35.7625H74.2957V40.5742H73.6222ZM77.731 39.9886C78.6875 40.135 79.8196 40.2717 79.8196 41.316C79.8196 42.2237 78.9705 42.6434 77.7603 42.6434C76.4231 42.6434 75.613 42.1163 75.613 41.1598C75.613 41.0622 75.6228 41.0037 75.6326 40.9451L76.4134 40.2814C76.0425 40.1155 75.7887 39.8422 75.7887 39.364C75.7887 38.9736 75.9644 38.6808 76.306 38.4465C76.0523 38.1537 75.8961 37.7828 75.8961 37.3534C75.8961 36.3774 76.6964 35.6844 77.731 35.6844C78.1995 35.6844 78.6191 35.8308 78.9315 36.0748L79.5952 35.499L79.9465 35.9382L79.2926 36.4847C79.4585 36.7483 79.5561 37.0508 79.5561 37.3924C79.5561 38.3782 78.7558 39.0321 77.7407 39.0321C77.3699 39.0321 77.0283 38.9443 76.7452 38.7881C76.55 38.8955 76.4329 39.0712 76.4329 39.2761C76.4329 39.7641 77.038 39.8813 77.731 39.9886ZM77.7407 36.2505C77.0575 36.2505 76.5598 36.7092 76.5598 37.3729C76.5598 37.9976 77.0087 38.4758 77.731 38.4758C78.4532 38.4758 78.8827 38.0073 78.8827 37.3729C78.8827 36.7092 78.4337 36.2505 77.7407 36.2505ZM77.7895 42.0773C78.6387 42.0773 79.1462 41.843 79.1462 41.3745C79.1462 40.7889 78.3849 40.7011 77.5846 40.5742C77.3699 40.5449 77.1454 40.5059 76.9404 40.4571L76.2865 41.0915C76.2767 41.1403 76.2767 41.1598 76.2767 41.1793C76.2767 41.8625 76.9697 42.0773 77.7895 42.0773ZM83.4258 35.6844C84.4604 35.6844 84.9972 36.3481 84.9972 37.6267V40.5742H84.3238V37.7926C84.3238 36.7483 83.9919 36.2798 83.2697 36.2798C82.3522 36.2798 81.8349 37.0313 81.8349 38.3587V40.5742H81.1615V33.7715H81.8349V36.4652C82.1473 35.9772 82.7329 35.6844 83.4258 35.6844ZM88.6521 39.9301L88.6619 40.5254C88.4081 40.6035 88.1544 40.6523 87.9299 40.6523C87.2857 40.6523 86.8172 40.2912 86.8172 39.4421V36.3286H86.0169V35.7625H86.8172V34.5132L87.4907 34.0057V35.7625H88.6521V36.3286H87.4907V39.3542C87.4907 39.8227 87.7054 40.0374 88.086 40.0374C88.252 40.0374 88.4374 39.9984 88.6521 39.9301ZM91.7759 40.6523C90.3997 40.6523 89.4725 39.5885 89.4725 38.1635C89.4725 36.7385 90.3997 35.6844 91.7759 35.6844C93.1423 35.6844 94.089 36.7385 94.089 38.1635C94.089 39.5787 93.152 40.6523 91.7759 40.6523ZM91.7759 40.0569C92.8104 40.0569 93.4156 39.2371 93.4156 38.1635C93.4156 37.0704 92.8007 36.2798 91.7759 36.2798C90.7413 36.2798 90.1459 37.0801 90.1459 38.1635C90.1459 39.2566 90.7511 40.0569 91.7759 40.0569ZM97.7133 35.6844C98.7478 35.6844 99.2846 36.3481 99.2846 37.6267V40.5742H98.6112V37.7926C98.6112 36.758 98.2794 36.2798 97.5571 36.2798C96.6494 36.2798 96.1224 37.0606 96.1224 38.4172V40.5742H95.4489V35.7625H96.1224V36.4652C96.4347 35.9772 97.0203 35.6844 97.7133 35.6844ZM107.97 40.5742L107.326 38.7491H104.496L103.842 40.5742H103.08L105.618 33.7715H106.194L108.741 40.5742H107.97ZM104.701 38.1537H107.111L105.911 34.7572L104.701 38.1537ZM112.035 35.6844C112.328 35.6844 112.601 35.743 112.865 35.8894L112.533 36.4359C112.308 36.3383 112.103 36.2895 111.898 36.2895C111.157 36.2895 110.61 36.8459 110.61 37.8902V40.5742H109.937V35.7625H110.61V36.4847C110.961 35.8503 111.547 35.6844 112.035 35.6844ZM116.102 39.9301L116.112 40.5254C115.858 40.6035 115.605 40.6523 115.38 40.6523C114.736 40.6523 114.267 40.2912 114.267 39.4421V36.3286H113.467V35.7625H114.267V34.5132L114.941 34.0057V35.7625H116.102V36.3286H114.941V39.3542C114.941 39.8227 115.156 40.0374 115.536 40.0374C115.702 40.0374 115.888 39.9984 116.102 39.9301ZM123.485 37.6267V37.0606H125.778V40.5742H125.222L125.124 39.5104C124.753 40.2619 123.924 40.6718 122.879 40.6718C120.898 40.6718 119.834 39.1883 119.834 37.1582C119.834 35.1379 120.888 33.6738 122.977 33.6738C124.412 33.6738 125.329 34.3668 125.778 35.538L125.134 35.782C124.792 34.8548 124.109 34.3375 122.977 34.3375C121.337 34.3375 120.527 35.4502 120.527 37.1289C120.527 38.7491 121.24 40.0081 122.928 40.0081C124.099 40.0081 125.124 39.3933 125.124 37.8414V37.6267H123.485ZM129.2 35.6844C130.411 35.6844 131.113 36.3774 131.113 37.5779V40.5742H130.498L130.459 39.8325C130.079 40.3693 129.493 40.6523 128.732 40.6523C127.688 40.6523 127.073 40.1057 127.073 39.1785C127.073 38.6905 127.268 38.3196 127.619 38.1049C127.99 37.8902 128.507 37.8024 129.454 37.8024H130.44V37.5779C130.44 36.7385 130.001 36.2798 129.191 36.2798C128.585 36.2798 128.117 36.5433 127.727 37.0801L127.239 36.6702C127.756 35.9967 128.38 35.6844 129.2 35.6844ZM128.927 40.096C129.854 40.096 130.44 39.4421 130.44 38.4172V38.3489H129.513C128.624 38.3489 128.244 38.4075 128.01 38.5929C127.834 38.7296 127.746 38.9443 127.746 39.2176C127.746 39.7544 128.205 40.096 128.927 40.096ZM133.633 40.6523C133.077 40.6523 132.715 40.2814 132.715 39.5299V33.7715H133.389V39.4909C133.389 39.8227 133.506 40.0374 133.828 40.0374C133.975 40.0374 134.14 39.9984 134.287 39.9496L134.297 40.5254C134.092 40.5937 133.848 40.6523 133.633 40.6523ZM136.264 40.6523C135.707 40.6523 135.346 40.2814 135.346 39.5299V33.7715H136.02V39.4909C136.02 39.8227 136.137 40.0374 136.459 40.0374C136.605 40.0374 136.771 39.9984 136.917 39.9496L136.927 40.5254C136.722 40.5937 136.478 40.6523 136.264 40.6523ZM141.852 37.9292C141.852 38.0659 141.842 38.2318 141.822 38.3489H138.299C138.318 39.403 138.904 40.0374 139.851 40.0374C140.378 40.0374 140.797 39.9008 141.237 39.4323L141.705 39.8422C141.139 40.4376 140.583 40.6523 139.841 40.6523C138.377 40.6523 137.625 39.5592 137.625 38.1928C137.625 36.8361 138.367 35.6844 139.763 35.6844C141.237 35.6844 141.852 36.8361 141.852 37.9292ZM139.763 36.2505C138.894 36.2505 138.357 36.9337 138.299 37.7828H141.207C141.207 37.7633 141.198 37.7145 141.198 37.6267C141.149 36.8459 140.651 36.2505 139.763 36.2505ZM145.309 35.6844C145.602 35.6844 145.875 35.743 146.138 35.8894L145.807 36.4359C145.582 36.3383 145.377 36.2895 145.172 36.2895C144.43 36.2895 143.884 36.8459 143.884 37.8902V40.5742H143.21V35.7625H143.884V36.4847C144.235 35.8503 144.821 35.6844 145.309 35.6844ZM147.807 42.5653L148.608 40.5157L146.568 35.7625H147.31L148.969 39.7251L150.423 35.7625H151.165L148.53 42.5653H147.807Z" fill="black"/>
<path fill-rule="evenodd" clip-rule="evenodd" d="M182.453 79.3977C187.506 79.3977 191.603 75.3012 191.603 70.2478C191.603 65.1941 187.506 61.0977 182.453 61.0977C177.4 61.0977 173.303 65.1941 173.303 70.2478C173.303 75.3012 177.4 79.3977 182.453 79.3977Z" fill="#44BCB6"/>
<path fill-rule="evenodd" clip-rule="evenodd" d="M179.289 69.4479H184.815L182.392 67.0256C182.197 66.8301 182.2 66.5172 182.399 66.3254C182.597 66.1336 182.916 66.1364 183.111 66.3317L186.684 69.9041C186.705 69.9259 186.705 69.9611 186.684 69.9829L183.105 73.5617C182.913 73.7536 182.603 73.7536 182.411 73.5617C182.219 73.3696 182.218 73.0589 182.41 72.8664L184.815 70.439H179.289C179.014 70.439 178.793 70.2177 178.793 69.9435C178.793 69.6693 179.014 69.4479 179.289 69.4479Z" fill="white"/>
<defs>
<filter id="filter0_d_591_1160" x="0.409918" y="0.14208" width="216.552" height="111.631" filterUnits="userSpaceOnUse" color-interpolation-filters="sRGB">
<feFlood flood-opacity="0" result="BackgroundImageFix"/>
<feColorMatrix in="SourceAlpha" type="matrix" values="0 0 0 0 0 0 0 0 0 0 0 0 0 0 0 0 0 0 127 0" result="hardAlpha"/>
<feOffset dy="7.32005"/>
<feGaussianBlur stdDeviation="5.79504"/>
<feColorMatrix type="matrix" values="0 0 0 0 0.235294 0 0 0 0 0.501961 0 0 0 0 0.819608 0 0 0 0.09 0"/>
<feBlend mode="normal" in2="BackgroundImageFix" result="effect1_dropShadow_591_1160"/>
<feBlend mode="normal" in="SourceGraphic" in2="effect1_dropShadow_591_1160" result="shape"/>
</filter>
<filter id="filter1_d_591_1160" x="14.39" y="14.9548" width="33.8464" height="35.8544" filterUnits="userSpaceOnUse" color-interpolation-filters="sRGB">
<feFlood flood-opacity="0" result="BackgroundImageFix"/>
<feColorMatrix in="SourceAlpha" type="matrix" values="0 0 0 0 0 0 0 0 0 0 0 0 0 0 0 0 0 0 127 0" result="hardAlpha"/>
<feOffset dy="4.27003"/>
<feGaussianBlur stdDeviation="3.96503"/>
<feColorMatrix type="matrix" values="0 0 0 0 0.239216 0 0 0 0 0.337255 0 0 0 0 0.941176 0 0 0 0.29 0"/>
<feBlend mode="normal" in2="BackgroundImageFix" result="effect1_dropShadow_591_1160"/>
<feBlend mode="normal" in="SourceGraphic" in2="effect1_dropShadow_591_1160" result="shape"/>
</filter>
<filter id="filter2_d_591_1160" x="24.5143" y="16.9993" width="35.4712" height="37.1898" filterUnits="userSpaceOnUse" color-interpolation-filters="sRGB">
<feFlood flood-opacity="0" result="BackgroundImageFix"/>
<feColorMatrix in="SourceAlpha" type="matrix" values="0 0 0 0 0 0 0 0 0 0 0 0 0 0 0 0 0 0 127 0" result="hardAlpha"/>
<feOffset dy="4.27003"/>
<feGaussianBlur stdDeviation="3.96503"/>
<feColorMatrix type="matrix" values="0 0 0 0 0.239216 0 0 0 0 0.337255 0 0 0 0 0.941176 0 0 0 0.28 0"/>
<feBlend mode="normal" in2="BackgroundImageFix" result="effect1_dropShadow_591_1160"/>
<feBlend mode="normal" in="SourceGraphic" in2="effect1_dropShadow_591_1160" result="shape"/>
</filter>
<filter id="filter3_d_591_1160" x="6.77138" y="47.0648" width="204.352" height="57.9504" filterUnits="userSpaceOnUse" color-interpolation-filters="sRGB">
<feFlood flood-opacity="0" result="BackgroundImageFix"/>
<feColorMatrix in="SourceAlpha" type="matrix" values="0 0 0 0 0 0 0 0 0 0 0 0 0 0 0 0 0 0 127 0" result="hardAlpha"/>
<feOffset dy="6.10004"/>
<feGaussianBlur stdDeviation="7.62505"/>
<feColorMatrix type="matrix" values="0 0 0 0 0.329412 0 0 0 0 0.407843 0 0 0 0 1 0 0 0 0.3 0"/>
<feBlend mode="normal" in2="BackgroundImageFix" result="effect1_dropShadow_591_1160"/>
<feBlend mode="normal" in="SourceGraphic" in2="effect1_dropShadow_591_1160" result="shape"/>
</filter>
</defs>
</svg>
