<svg width="49" height="47" viewBox="0 0 49 47" fill="none" xmlns="http://www.w3.org/2000/svg">
<path fill-rule="evenodd" clip-rule="evenodd" d="M44.8348 33.9004C43.3325 36.2998 43.2148 39.2255 44.6123 41.6229L45.6046 43.3238C44.8894 44.4171 44.1169 45.477 43.2908 46.5001L38.4986 44.2043C36.4766 43.2378 34.1026 43.115 31.9447 43.8708C30.5534 44.3597 28.9861 44.8477 27.8211 45.0408C14.6607 47.2226 2.33543 38.9874 0.289418 26.6456C-1.75646 14.3166 7.26352 2.53007 20.4124 0.35026C33.5713 -1.83122 45.8981 6.4037 47.9441 18.7455C48.8422 24.1601 47.6102 29.4668 44.8348 33.9004Z" fill="#5468FF" fill-opacity="0.8"/>
<path fill-rule="evenodd" clip-rule="evenodd" d="M44.8348 33.9004C43.3325 36.2998 43.2148 39.2255 44.6123 41.6229L45.6046 43.3238C44.8894 44.4171 44.1169 45.477 43.2908 46.5001L38.4986 44.2043C36.4766 43.2378 34.1026 43.115 31.9447 43.8708C30.5534 44.3597 28.9861 44.8477 27.8211 45.0408C23.9001 34.6344 23.8405 34.2773 23.8405 34.2773C24.7398 33.0457 25.7095 32.4097 23.373 27.7368C25.7095 24.4636 21.2919 22.8116 18.2331 18.856C24.4156 8.87433 27.0527 18.856 27.0527 12.945C47.1758 17.6166 47.8845 18.3884 47.8845 18.3884C48.6107 22.4683 48.1784 26.3952 46.8196 29.9106C46.3008 31.2529 45.6017 32.6753 44.8348 33.9004Z" fill="#5468FF" fill-opacity="0.8"/>
<path fill-rule="evenodd" clip-rule="evenodd" d="M27.8151 22.6568C26.2229 24.3731 26.3529 25.365 26.6363 27.0745C26.7399 27.6992 26.5278 28.4772 24.9004 28.747C23.539 28.9727 22.9925 28.5567 22.7091 26.8472C22.2404 24.02 23.279 22.4628 24.1055 21.4814C25.0488 20.3793 26.7396 19.0518 26.4453 17.2768C26.1946 15.7646 24.7465 15.2614 23.0858 15.5367C19.6987 16.0982 20.8488 18.5084 19.0556 18.8057C18.159 18.9543 16.9649 18.5443 16.7523 17.262C16.4581 15.4872 18.0811 12.5156 22.5645 11.7724C26.8151 11.0677 30.0248 12.934 30.5371 16.0239C31.0494 19.1141 28.5973 21.8179 27.8151 22.6568ZM29.0266 33.5021C29.25 34.8497 28.317 36.2206 26.8889 36.4573C25.4614 36.694 24.1692 35.692 23.9458 34.3444C23.7169 32.9634 24.6553 31.6257 26.0496 31.3945C27.4445 31.1633 28.7976 32.1211 29.0266 33.5021Z" fill="white"/>
</svg>
