<svg width="218" height="113" viewBox="0 0 218 113" fill="none" xmlns="http://www.w3.org/2000/svg">
<g filter="url(#filter0_d_591_1182)">
<path fill-rule="evenodd" clip-rule="evenodd" d="M21.4568 4.99609H196.528C201.581 4.99609 205.678 9.09277 205.678 14.1461V84.2967C205.678 89.3501 201.581 93.4467 196.528 93.4467H21.4568C16.4032 93.4467 12.3066 89.3501 12.3066 84.2967V14.1461C12.3066 9.09277 16.4032 4.99609 21.4568 4.99609Z" fill="white"/>
</g>
<path fill-rule="evenodd" clip-rule="evenodd" d="M37.3177 47.0947C46.4154 47.0947 53.7904 39.7197 53.7904 30.6222C53.7904 21.5246 46.4154 14.1496 37.3177 14.1496C28.2203 14.1496 20.8453 21.5246 20.8453 30.6222C20.8453 39.7197 28.2203 47.0947 37.3177 47.0947Z" fill="#AEB8FF"/>
<g filter="url(#filter1_d_591_1182)">
<path fill-rule="evenodd" clip-rule="evenodd" d="M31.4227 19.2067C26.6709 19.3083 22.7815 23.1557 22.6314 27.9063C22.5568 30.2664 23.3919 32.4304 24.8126 34.0745C25.4523 34.8147 25.6349 35.8465 25.3058 36.7679L24.7143 38.4243C24.5218 38.9632 25.1459 39.4238 25.6039 39.081L27.7021 37.5118C28.3265 37.0448 29.1193 36.8711 29.8844 37.0218C30.6809 37.1788 31.5149 37.2307 32.3727 37.1597C36.8857 36.7862 40.4449 33.0539 40.6072 28.5283C40.7931 23.3449 36.5901 19.096 31.4227 19.2067Z" fill="#5F6CFF"/>
</g>
<g filter="url(#filter2_d_591_1182)">
<path fill-rule="evenodd" clip-rule="evenodd" d="M50.1086 37.305C49.3476 38.2233 49.1062 39.4644 49.5068 40.5874L49.7913 41.3842C49.4323 41.8002 49.0525 42.1982 48.6536 42.5769L46.8866 41.257C46.141 40.701 45.1983 40.4805 44.284 40.6505C43.6944 40.7608 43.0341 40.8582 42.5548 40.8582C37.139 40.8582 32.7491 36.4686 32.7491 31.0528C32.7483 25.6423 37.1436 21.2472 42.5548 21.2472C47.9698 21.2472 52.3602 25.6368 52.3602 31.0528C52.3604 33.4288 51.5144 35.608 50.1086 37.305Z" fill="white"/>
</g>
<path fill-rule="evenodd" clip-rule="evenodd" d="M30.3242 33.9705C30.1666 34.6955 29.4095 35.1978 28.6845 35.0404C27.9064 34.8715 27.4609 34.1082 27.6184 33.3832C27.7795 32.6404 28.4974 32.1481 29.2756 32.3171C30.0007 32.4745 30.4853 33.2278 30.3242 33.9705ZM30.7173 30.5375C30.5984 31.0857 29.9471 31.1852 29.5226 31.093C28.9568 30.9703 28.5294 30.6367 28.6483 30.0884C29.105 27.9839 29.5138 24.9062 29.9706 22.8017C30.1203 22.1121 30.7709 21.8459 31.4957 22.0033C32.1854 22.1528 32.6848 22.6686 32.5349 23.3583C32.0781 25.4627 31.1741 28.433 30.7173 30.5375Z" fill="white"/>
<path fill-rule="evenodd" clip-rule="evenodd" d="M44.4381 31.4026C43.5253 32.1162 43.5087 32.614 43.5087 33.4773C43.5087 33.7926 43.3428 34.1576 42.5295 34.1576C41.8491 34.1576 41.6167 33.9086 41.6167 33.0457C41.6167 31.6183 42.2474 30.9378 42.7288 30.523C43.2763 30.0583 44.2057 29.5437 44.2057 28.6475C44.2057 27.8841 43.5419 27.5188 42.712 27.5188C41.0191 27.5188 41.3842 28.7969 40.4881 28.7969C40.0401 28.7969 39.4922 28.4981 39.4922 27.8507C39.4922 26.9546 40.5213 25.6268 42.762 25.6268C44.8863 25.6268 46.297 26.8053 46.297 28.3653C46.297 29.9253 44.8863 31.0541 44.4381 31.4026ZM43.8242 36.5809C43.8242 37.2612 43.2597 37.8587 42.5461 37.8587C41.8324 37.8587 41.2848 37.2612 41.2848 36.5809C41.2848 35.8837 41.8492 35.3028 42.5461 35.3028C43.2431 35.3028 43.8242 35.8837 43.8242 36.5809Z" fill="#00D9CD"/>
<path opacity="0.3" fill-rule="evenodd" clip-rule="evenodd" d="M202.803 44.3384C202.803 44.3381 202.803 44.3376 202.803 44.3373C202.803 44.2018 202.747 44.0797 202.657 43.9923L202.657 43.9921L199.781 41.1165L199.779 41.1178C199.693 41.0352 199.577 40.9844 199.448 40.9844C199.183 40.9844 198.969 41.1989 198.969 41.4636C198.969 41.609 199.033 41.7392 199.136 41.8271L201.647 44.3382L199.103 46.8824L199.103 46.8825C199.02 46.9686 198.969 47.0859 198.969 47.2151C198.969 47.4798 199.183 47.6943 199.448 47.6943C199.577 47.6943 199.694 47.6434 199.781 47.5601L199.781 47.5602L202.657 44.6845L202.657 44.6844C202.747 44.5972 202.803 44.4748 202.803 44.3394C202.803 44.3392 202.803 44.3389 202.803 44.3384Z" fill="white"/>
<g filter="url(#filter3_d_591_1182)">
<path fill-rule="evenodd" clip-rule="evenodd" d="M27.8182 56.8008H190.689C193.721 56.8008 196.179 59.2588 196.179 62.2908V78.761C196.179 81.793 193.721 84.251 190.689 84.251H27.8182C24.786 84.251 22.3281 81.793 22.3281 78.761V62.2908C22.3281 59.2588 24.786 56.8008 27.8182 56.8008Z" fill="#44BCB6"/>
</g>
<path d="M74.1601 73.9359C75.7347 73.9359 76.9182 73.1644 77.4466 71.7378L76.2102 71.2728C75.8932 72.2028 75.1746 72.6783 74.1601 72.6783C72.744 72.6783 71.9092 71.7378 71.9092 70.0787C71.9092 68.4301 72.7334 67.5002 74.1601 67.5002C75.164 67.5002 75.8826 67.9546 76.2102 68.874L77.4255 68.3984C76.8865 66.9929 75.7135 66.2426 74.1601 66.2426C71.9831 66.2426 70.5882 67.7327 70.5882 70.0892C70.5882 72.4458 71.9831 73.9359 74.1601 73.9359ZM82.2031 73.9359C84.2955 73.9359 85.7221 72.4036 85.7221 70.0998C85.7221 67.7855 84.3061 66.2532 82.2031 66.2532C80.1107 66.2532 78.6841 67.7855 78.6841 70.0998C78.6841 72.4036 80.1107 73.9359 82.2031 73.9359ZM82.2031 72.6783C80.861 72.6783 80.0051 71.6955 80.0051 70.0998C80.0051 68.4935 80.861 67.5107 82.2031 67.5107C83.5452 67.5107 84.4012 68.5041 84.4012 70.0998C84.4012 71.685 83.5452 72.6783 82.2031 72.6783ZM87.7315 73.7773H92.2016V72.5621H89.0524V66.4117H87.7315V73.7773ZM93.8875 73.7773H98.3576V72.5621H95.2084V66.4117H93.8875V73.7773ZM104.897 73.7773H106.335L103.397 66.4117H102.403L99.455 73.7773H100.892L101.452 72.2556H104.337L104.897 73.7773ZM101.907 71.0403L102.9 68.3561L103.893 71.0403H101.907ZM107.974 73.7773H110.87C112.371 73.7773 113.269 72.9742 113.269 71.6215C113.269 70.7022 112.857 70.0892 112.064 69.8039C112.582 69.508 112.878 68.9585 112.878 68.2716C112.878 67.1092 112.011 66.4117 110.542 66.4117H107.974V73.7773ZM109.295 69.3389V67.627H110.542C111.187 67.627 111.557 67.944 111.557 68.5041C111.557 69.0536 111.208 69.3389 110.542 69.3389H109.295ZM109.295 72.5621V70.5542H110.764C111.536 70.5542 111.948 70.8924 111.948 71.5159C111.948 72.1605 111.504 72.5621 110.764 72.5621H109.295ZM118.287 73.9359C120.38 73.9359 121.807 72.4036 121.807 70.0998C121.807 67.7855 120.39 66.2532 118.287 66.2532C116.195 66.2532 114.768 67.7855 114.768 70.0998C114.768 72.4036 116.195 73.9359 118.287 73.9359ZM118.287 72.6783C116.945 72.6783 116.089 71.6955 116.089 70.0998C116.089 68.4935 116.945 67.5107 118.287 67.5107C119.63 67.5107 120.486 68.5041 120.486 70.0998C120.486 71.685 119.63 72.6783 118.287 72.6783ZM129.353 73.7773L127.367 70.5648C128.244 70.2689 128.73 69.5926 128.73 68.5358C128.73 67.2148 127.979 66.4117 126.225 66.4117H123.816V73.7773H125.126V70.7233H125.612H126.056L127.821 73.7773H129.353ZM125.126 69.508V67.627H126.088C126.944 67.627 127.409 67.8383 127.409 68.5569C127.409 69.2755 126.944 69.508 126.088 69.508H125.126ZM135.589 73.7773H137.027L134.089 66.4117H133.095L130.147 73.7773H131.584L132.144 72.2556H135.029L135.589 73.7773ZM132.599 71.0403L133.592 68.3561L134.586 71.0403H132.599ZM139.423 73.7773H140.755V67.627H143.058V66.4117H137.119V67.627H139.423V73.7773ZM144.74 73.7773H149.643V72.5621H146.061V70.5965H149.39V69.3812H146.061V67.627H149.643V66.4117H144.74V73.7773Z" fill="white"/>
<path d="M65.441 31.6094H66.5939L68.3507 26.2511L70.1075 31.6094H71.2604L73.5333 23.9563H72.3035L70.6236 29.8196L68.8558 24.3845H67.8456L66.0888 29.8196L64.3979 23.9563H63.1681L65.441 31.6094ZM76.3009 26.0974C75.3346 26.0974 74.566 26.4707 73.9401 27.2393L74.7636 27.931C75.1699 27.3711 75.697 27.0856 76.2899 27.0856C77.0036 27.0856 77.4318 27.5028 77.4318 28.2056V28.3922H76.1691C75.4005 28.3922 74.8954 28.4801 74.5221 28.6667C74.039 28.9083 73.7754 29.3694 73.7754 29.9843C73.7754 31.0165 74.544 31.7082 75.697 31.7082C76.4656 31.7082 77.0914 31.3898 77.4428 30.8408L77.5306 31.6094H78.5628V28.2056C78.5628 26.8879 77.7063 26.0974 76.3009 26.0974ZM75.9056 30.7529C75.2907 30.7529 74.9064 30.4674 74.9064 30.0063C74.9064 29.7757 74.9832 29.589 75.1479 29.4792C75.3566 29.3145 75.675 29.2596 76.3009 29.2596H77.4318V29.2816C77.4318 30.138 76.784 30.7529 75.9056 30.7529ZM80.3915 33.8493H81.6103L84.6518 26.1962H83.4111L81.9397 30.182L80.4025 26.1962H79.1618L81.3358 31.4886L80.3915 33.8493ZM87.3511 31.6094H88.537V25.0433H91.0184V23.9563H84.8806V25.0433H87.3511V31.6094ZM95.5101 28.7655C95.5101 27.3491 94.7415 26.0974 93.0615 26.0974C91.3376 26.0974 90.5471 27.4809 90.5471 28.9302C90.5471 30.4125 91.3596 31.7082 93.1494 31.7082C94.0387 31.7082 94.7195 31.4227 95.3344 30.7529L94.5438 30.0722C94.1376 30.5333 93.6874 30.687 93.1603 30.687C92.238 30.687 91.7219 30.1271 91.678 29.2596H95.4771C95.4991 29.0949 95.5101 28.9302 95.5101 28.7655ZM91.678 28.3483C91.7549 27.6785 92.1941 27.0417 93.0615 27.0417C93.8631 27.0417 94.4011 27.5577 94.423 28.3263V28.3483H91.678ZM98.8418 31.7082C99.8849 31.7082 100.708 31.1482 101.071 30.138L100.039 29.7428C99.874 30.3467 99.4128 30.72 98.8418 30.72C97.8317 30.72 97.4364 29.8635 97.4364 28.9193C97.4364 27.975 97.8427 27.0856 98.8309 27.0856C99.4238 27.0856 99.874 27.4699 100.05 28.0738L101.126 27.6565C100.708 26.6025 99.874 26.0974 98.8309 26.0974C97.107 26.0974 96.2835 27.4918 96.2835 28.9193C96.2835 30.3686 97.1399 31.7082 98.8418 31.7082ZM105.046 26.0974C104.31 26.0974 103.717 26.3719 103.366 26.866V23.9563H102.235V31.6094H103.366V29.3365C103.366 27.7993 103.794 27.0856 104.716 27.0856C105.441 27.0856 105.782 27.5138 105.782 28.4581V31.6094H106.912V28.1726C106.912 26.833 106.254 26.0974 105.046 26.0974ZM114.557 31.7521C116.698 31.7521 118.159 30.171 118.159 27.7883C118.159 25.3947 116.709 23.8135 114.557 23.8135C112.405 23.8135 110.945 25.3947 110.945 27.7883C110.945 30.171 112.405 31.7521 114.557 31.7521ZM114.557 30.6321C113.075 30.6321 112.12 29.5451 112.12 27.7883C112.12 26.0205 113.075 24.9335 114.557 24.9335C116.04 24.9335 116.984 26.0315 116.984 27.7883C116.984 29.5341 116.04 30.6321 114.557 30.6321ZM122.352 26.0974C121.65 26.0974 121.035 26.3499 120.661 26.866V26.1962H119.53V31.6094H120.661V29.3585C120.661 28.2056 120.859 27.0856 122.023 27.0856C122.956 27.0856 123.077 27.8212 123.077 28.4581V31.6094H124.208V28.1726C124.208 26.844 123.549 26.0974 122.352 26.0974ZM128.56 26.0864C127.89 26.0864 127.264 26.3609 126.924 26.8001V23.9563H125.793V31.6094H126.924V31.0055C127.297 31.4886 127.912 31.7082 128.56 31.7082C130.064 31.7082 130.877 30.5223 130.877 28.8973C130.877 27.1515 129.943 26.0864 128.56 26.0864ZM128.307 30.6761C127.286 30.6761 126.814 29.9184 126.814 28.9083C126.814 27.8761 127.308 27.1075 128.296 27.1075C129.252 27.1075 129.746 27.7993 129.746 28.9083C129.746 29.9843 129.273 30.6761 128.307 30.6761ZM134.347 31.7082C135.972 31.7082 137.015 30.4455 137.015 28.8973C137.015 27.3381 135.972 26.0974 134.347 26.0974C132.711 26.0974 131.668 27.3381 131.668 28.8973C131.668 30.4455 132.711 31.7082 134.347 31.7082ZM134.347 30.72C133.293 30.72 132.799 29.8965 132.799 28.8973C132.799 27.8981 133.293 27.0856 134.347 27.0856C135.39 27.0856 135.884 27.8981 135.884 28.8973C135.884 29.8855 135.401 30.72 134.347 30.72ZM140.251 26.0974C139.285 26.0974 138.516 26.4707 137.891 27.2393L138.714 27.931C139.12 27.3711 139.647 27.0856 140.24 27.0856C140.954 27.0856 141.382 27.5028 141.382 28.2056V28.3922H140.119C139.351 28.3922 138.846 28.4801 138.472 28.6667C137.989 28.9083 137.726 29.3694 137.726 29.9843C137.726 31.0165 138.494 31.7082 139.647 31.7082C140.416 31.7082 141.042 31.3898 141.393 30.8408L141.481 31.6094H142.513V28.2056C142.513 26.8879 141.657 26.0974 140.251 26.0974ZM139.856 30.7529C139.241 30.7529 138.857 30.4674 138.857 30.0063C138.857 29.7757 138.934 29.589 139.098 29.4792C139.307 29.3145 139.625 29.2596 140.251 29.2596H141.382V29.2816C141.382 30.138 140.734 30.7529 139.856 30.7529ZM146.689 26.0974C146.096 26.0974 145.47 26.4048 145.195 27.0856V26.1962H144.053V31.6094H145.184V28.7875C145.184 27.7114 145.656 27.1734 146.469 27.1734C146.721 27.1734 146.93 27.2393 147.139 27.3601L147.688 26.3719C147.358 26.1742 147.04 26.0974 146.689 26.0974ZM151.696 23.9563V26.8001C151.355 26.3609 150.729 26.0864 150.06 26.0864C148.676 26.0864 147.743 27.1515 147.743 28.8973C147.743 30.5223 148.555 31.7082 150.06 31.7082C150.708 31.7082 151.322 31.4886 151.696 31.0055V31.6094H152.827V23.9563H151.696ZM150.312 30.6761C149.346 30.6761 148.874 29.9843 148.874 28.9083C148.874 27.7993 149.368 27.1075 150.323 27.1075C151.311 27.1075 151.806 27.8761 151.806 28.9083C151.806 29.9184 151.333 30.6761 150.312 30.6761ZM154.486 25.1421H155.693V23.9563H154.486V25.1421ZM154.529 31.6094H155.66V26.1962H154.529V31.6094ZM160.171 26.0974C159.469 26.0974 158.854 26.3499 158.48 26.866V26.1962H157.35V31.6094H158.48V29.3585C158.48 28.2056 158.678 27.0856 159.842 27.0856C160.775 27.0856 160.896 27.8212 160.896 28.4581V31.6094H162.027V28.1726C162.027 26.844 161.368 26.0974 160.171 26.0974ZM165.61 30.8408C164.897 30.7419 164.304 30.6212 164.304 30.182C164.304 30.0173 164.38 29.8965 164.523 29.8086C164.842 29.9514 165.193 30.0392 165.588 30.0392C166.763 30.0392 167.729 29.2816 167.729 28.1067C167.729 27.7444 167.642 27.415 167.477 27.1295L168.245 26.5036L167.653 25.779L166.851 26.4707C166.489 26.2291 166.038 26.0974 165.555 26.0974C164.359 26.0974 163.392 26.8989 163.392 28.0408C163.392 28.513 163.557 28.9412 163.842 29.2816C163.491 29.5451 163.304 29.8855 163.304 30.3467C163.304 30.9066 163.579 31.2361 163.974 31.4447L163.162 32.0156C163.151 32.0705 163.14 32.1254 163.14 32.2572C163.14 33.3552 164.051 33.9481 165.632 33.9481C167.06 33.9481 168.07 33.476 168.07 32.378C168.07 31.1263 166.697 30.9945 165.61 30.8408ZM165.577 27.0417C166.203 27.0417 166.598 27.4479 166.598 28.0738C166.598 28.6667 166.247 29.1059 165.566 29.1059C164.886 29.1059 164.512 28.6557 164.512 28.0738C164.512 27.4589 164.94 27.0417 165.577 27.0417ZM165.676 33.0807C164.962 33.0807 164.26 32.905 164.26 32.345C164.26 32.3231 164.26 32.2901 164.271 32.2462L164.82 31.7082C165.006 31.7411 165.193 31.7741 165.369 31.796C166.192 31.9168 166.939 31.9827 166.939 32.4768C166.939 32.905 166.368 33.0807 165.676 33.0807ZM65.319 44.6094H66.0217L67.759 39.2706L69.4865 44.6094H70.1892L72.1608 37.8066H71.4288L69.7988 43.5748L68.0615 38.1677H67.4467L65.7094 43.5748L64.0697 37.8066H63.3474L65.319 44.6094ZM74.8353 39.7196C74.0155 39.7196 73.3908 40.0319 72.8736 40.7053L73.3616 41.1153C73.752 40.5785 74.2204 40.3149 74.8256 40.3149C75.6357 40.3149 76.0749 40.7737 76.0749 41.613V41.8375H75.0891C74.1424 41.8375 73.6251 41.9254 73.2542 42.1401C72.9028 42.3548 72.7076 42.7257 72.7076 43.2137C72.7076 44.1409 73.3225 44.6875 74.3668 44.6875C75.1281 44.6875 75.7137 44.4044 76.0944 43.8676L76.1334 44.6094H76.7483V41.613C76.7483 40.4125 76.0456 39.7196 74.8353 39.7196ZM74.562 44.1311C73.8398 44.1311 73.3811 43.7895 73.3811 43.2527C73.3811 42.9794 73.4689 42.7647 73.6446 42.6281C73.8788 42.4426 74.2595 42.3841 75.1477 42.3841H76.0749V42.4524C76.0749 43.4772 75.4893 44.1311 74.562 44.1311ZM78.8212 46.6004H79.5435L82.1787 39.7977H81.4369L79.9827 43.7602L78.3235 39.7977H77.5817L79.6216 44.5508L78.8212 46.6004ZM85.0654 44.6094H85.7681V38.4508H88.1301V37.8066H82.7132V38.4508H85.0654V44.6094ZM92.2522 41.9644C92.2522 40.8713 91.6373 39.7196 90.1635 39.7196C88.7678 39.7196 88.0261 40.8713 88.0261 42.2279C88.0261 43.5943 88.7776 44.6875 90.2416 44.6875C90.9834 44.6875 91.5397 44.4727 92.1058 43.8774L91.6373 43.4674C91.1981 43.9359 90.7784 44.0726 90.2514 44.0726C89.3046 44.0726 88.719 43.4382 88.6995 42.3841H92.2229C92.2424 42.267 92.2522 42.101 92.2522 41.9644ZM90.1635 40.2857C91.0517 40.2857 91.5494 40.881 91.5982 41.6618C91.5982 41.7497 91.608 41.7985 91.608 41.818H88.6995C88.7581 40.9689 89.2949 40.2857 90.1635 40.2857ZM95.3874 44.6875C96.256 44.6875 96.9587 44.2287 97.2808 43.3503L96.6562 43.1161C96.4707 43.731 95.9925 44.0921 95.3874 44.0921C94.3528 44.0921 93.8941 43.2039 93.8941 42.2182C93.8941 41.2324 94.3528 40.3149 95.3776 40.3149C95.9827 40.3149 96.461 40.6858 96.6855 41.3007L97.3296 41.0469C96.949 40.149 96.2365 39.7196 95.3776 39.7196C93.9234 39.7196 93.2109 40.9493 93.2109 42.2182C93.2109 43.5553 93.9917 44.6875 95.3874 44.6875ZM100.832 39.7196C100.139 39.7196 99.5531 40.0124 99.2408 40.5004V37.8066H98.5673V44.6094H99.2408V42.3938C99.2408 41.0665 99.758 40.3149 100.675 40.3149C101.398 40.3149 101.73 40.7834 101.73 41.8278V44.6094H102.403V41.6618C102.403 40.3833 101.866 39.7196 100.832 39.7196ZM111.606 44.6094L109.752 41.5057C110.669 41.2617 111.147 40.6468 111.147 39.6903C111.147 38.4605 110.366 37.8066 108.902 37.8066H106.96V44.6094H107.653V41.5935H108.6H109.059L110.796 44.6094H111.606ZM107.653 40.9493V38.4508H108.834C109.908 38.4508 110.444 38.8705 110.444 39.7001C110.444 40.5297 109.908 40.9493 108.834 40.9493H107.653ZM116.557 41.9644C116.557 40.8713 115.942 39.7196 114.468 39.7196C113.073 39.7196 112.331 40.8713 112.331 42.2279C112.331 43.5943 113.082 44.6875 114.546 44.6875C115.288 44.6875 115.845 44.4727 116.411 43.8774L115.942 43.4674C115.503 43.9359 115.083 44.0726 114.556 44.0726C113.609 44.0726 113.024 43.4382 113.004 42.3841H116.528C116.547 42.267 116.557 42.101 116.557 41.9644ZM114.468 40.2857C115.357 40.2857 115.854 40.881 115.903 41.6618C115.903 41.7497 115.913 41.7985 115.913 41.818H113.004C113.063 40.9689 113.6 40.2857 114.468 40.2857ZM119.692 44.6875C120.561 44.6875 121.264 44.2287 121.586 43.3503L120.961 43.1161C120.776 43.731 120.297 44.0921 119.692 44.0921C118.658 44.0921 118.199 43.2039 118.199 42.2182C118.199 41.2324 118.658 40.3149 119.682 40.3149C120.288 40.3149 120.766 40.6858 120.99 41.3007L121.634 41.0469C121.254 40.149 120.541 39.7196 119.682 39.7196C118.228 39.7196 117.516 40.9493 117.516 42.2182C117.516 43.5553 118.297 44.6875 119.692 44.6875ZM124.971 39.7196C124.483 39.7196 123.897 39.8855 123.546 40.5199V39.7977H122.872V44.6094H123.546V41.9254C123.546 40.881 124.092 40.3247 124.834 40.3247C125.039 40.3247 125.244 40.3735 125.468 40.4711L125.8 39.9245C125.537 39.7781 125.263 39.7196 124.971 39.7196ZM129.892 39.7977V42.0132C129.892 43.2625 129.414 44.0921 128.457 44.0921C127.54 44.0921 127.403 43.3601 127.403 42.5793V39.7977H126.73V42.7452C126.73 43.9359 127.208 44.6875 128.301 44.6875C128.935 44.6875 129.55 44.4337 129.892 43.9164V44.6094H130.565V39.7977H129.892ZM132.288 38.8021H133.069V37.8066H132.288V38.8021ZM132.346 44.6094H133.02V39.7977H132.346V44.6094ZM136.787 43.9652C136.572 44.0335 136.387 44.0726 136.221 44.0726C135.84 44.0726 135.625 43.8578 135.625 43.3894V40.3637H136.787V39.7977H135.625V38.0408L134.952 38.5484V39.7977H134.152V40.3637H134.952V43.4772C134.952 44.3263 135.42 44.6875 136.065 44.6875C136.289 44.6875 136.543 44.6387 136.797 44.5606L136.787 43.9652ZM142.947 39.7196C142.215 39.7196 141.678 40.0319 141.366 40.6468C141.122 40.0124 140.624 39.7196 139.951 39.7196C139.414 39.7196 138.926 39.905 138.623 40.3833V39.7977H137.97L137.979 44.6094H138.653V42.2962C138.653 41.2031 138.916 40.3149 139.853 40.3149C140.693 40.3149 140.937 41.0274 140.937 41.8278V44.6094H141.61V42.2962C141.61 41.2129 141.874 40.3149 142.85 40.3149C143.904 40.3149 143.904 41.3788 143.904 41.7887V44.6094H144.577V41.6033C144.577 40.4809 144.099 39.7196 142.947 39.7196ZM150.069 41.9644C150.069 40.8713 149.454 39.7196 147.98 39.7196C146.585 39.7196 145.843 40.8713 145.843 42.2279C145.843 43.5943 146.595 44.6875 148.059 44.6875C148.8 44.6875 149.357 44.4727 149.923 43.8774L149.454 43.4674C149.015 43.9359 148.595 44.0726 148.068 44.0726C147.122 44.0726 146.536 43.4382 146.516 42.3841H150.04C150.059 42.267 150.069 42.101 150.069 41.9644ZM147.98 40.2857C148.869 40.2857 149.366 40.881 149.415 41.6618C149.415 41.7497 149.425 41.7985 149.425 41.818H146.516C146.575 40.9689 147.112 40.2857 147.98 40.2857ZM153.692 39.7196C152.999 39.7196 152.414 40.0124 152.101 40.5004V39.7977H151.428V44.6094H152.101V42.4524C152.101 41.0958 152.628 40.3149 153.536 40.3149C154.258 40.3149 154.59 40.7932 154.59 41.8278V44.6094H155.264V41.6618C155.264 40.3833 154.727 39.7196 153.692 39.7196ZM158.919 43.9652C158.704 44.0335 158.518 44.0726 158.353 44.0726C157.972 44.0726 157.757 43.8578 157.757 43.3894V40.3637H158.919V39.7977H157.757V38.0408L157.084 38.5484V39.7977H156.283V40.3637H157.084V43.4772C157.084 44.3263 157.552 44.6875 158.196 44.6875C158.421 44.6875 158.675 44.6387 158.928 44.5606L158.919 43.9652Z" fill="black"/>
<path fill-rule="evenodd" clip-rule="evenodd" d="M182.759 79.9797C187.813 79.9797 191.909 75.8833 191.909 70.8298C191.909 65.7762 187.813 61.6797 182.759 61.6797C177.706 61.6797 173.609 65.7762 173.609 70.8298C173.609 75.8833 177.706 79.9797 182.759 79.9797Z" fill="#36AEA8"/>
<path fill-rule="evenodd" clip-rule="evenodd" d="M179.597 70.028H185.124L182.701 67.6057C182.506 67.4102 182.508 67.0973 182.707 66.9055C182.906 66.7136 183.225 66.7165 183.42 66.9117L186.992 70.4842C187.014 70.506 187.014 70.5412 186.992 70.563L183.414 74.1418C183.222 74.3337 182.912 74.3337 182.72 74.1418C182.528 73.9497 182.527 73.639 182.718 73.4465L185.124 71.0191H179.597C179.323 71.0191 179.102 70.7978 179.102 70.5235C179.102 70.2494 179.323 70.028 179.597 70.028Z" fill="white"/>
<defs>
<filter id="filter0_d_591_1182" x="0.716558" y="0.726065" width="216.552" height="111.631" filterUnits="userSpaceOnUse" color-interpolation-filters="sRGB">
<feFlood flood-opacity="0" result="BackgroundImageFix"/>
<feColorMatrix in="SourceAlpha" type="matrix" values="0 0 0 0 0 0 0 0 0 0 0 0 0 0 0 0 0 0 127 0" result="hardAlpha"/>
<feOffset dy="7.32005"/>
<feGaussianBlur stdDeviation="5.79504"/>
<feColorMatrix type="matrix" values="0 0 0 0 0.235294 0 0 0 0 0.501961 0 0 0 0 0.819608 0 0 0 0.09 0"/>
<feBlend mode="normal" in2="BackgroundImageFix" result="effect1_dropShadow_591_1182"/>
<feBlend mode="normal" in="SourceGraphic" in2="effect1_dropShadow_591_1182" result="shape"/>
</filter>
<filter id="filter1_d_591_1182" x="14.6967" y="15.5446" width="33.8464" height="35.8544" filterUnits="userSpaceOnUse" color-interpolation-filters="sRGB">
<feFlood flood-opacity="0" result="BackgroundImageFix"/>
<feColorMatrix in="SourceAlpha" type="matrix" values="0 0 0 0 0 0 0 0 0 0 0 0 0 0 0 0 0 0 127 0" result="hardAlpha"/>
<feOffset dy="4.27003"/>
<feGaussianBlur stdDeviation="3.96503"/>
<feColorMatrix type="matrix" values="0 0 0 0 0.239216 0 0 0 0 0.337255 0 0 0 0 0.941176 0 0 0 0.29 0"/>
<feBlend mode="normal" in2="BackgroundImageFix" result="effect1_dropShadow_591_1182"/>
<feBlend mode="normal" in="SourceGraphic" in2="effect1_dropShadow_591_1182" result="shape"/>
</filter>
<filter id="filter2_d_591_1182" x="24.819" y="17.5872" width="35.4712" height="37.1898" filterUnits="userSpaceOnUse" color-interpolation-filters="sRGB">
<feFlood flood-opacity="0" result="BackgroundImageFix"/>
<feColorMatrix in="SourceAlpha" type="matrix" values="0 0 0 0 0 0 0 0 0 0 0 0 0 0 0 0 0 0 127 0" result="hardAlpha"/>
<feOffset dy="4.27003"/>
<feGaussianBlur stdDeviation="3.96503"/>
<feColorMatrix type="matrix" values="0 0 0 0 0.239216 0 0 0 0 0.337255 0 0 0 0 0.941176 0 0 0 0.28 0"/>
<feBlend mode="normal" in2="BackgroundImageFix" result="effect1_dropShadow_591_1182"/>
<feBlend mode="normal" in="SourceGraphic" in2="effect1_dropShadow_591_1182" result="shape"/>
</filter>
<filter id="filter3_d_591_1182" x="7.07802" y="47.6508" width="204.352" height="57.9504" filterUnits="userSpaceOnUse" color-interpolation-filters="sRGB">
<feFlood flood-opacity="0" result="BackgroundImageFix"/>
<feColorMatrix in="SourceAlpha" type="matrix" values="0 0 0 0 0 0 0 0 0 0 0 0 0 0 0 0 0 0 127 0" result="hardAlpha"/>
<feOffset dy="6.10004"/>
<feGaussianBlur stdDeviation="7.62505"/>
<feColorMatrix type="matrix" values="0 0 0 0 0.329412 0 0 0 0 0.407843 0 0 0 0 1 0 0 0 0.3 0"/>
<feBlend mode="normal" in2="BackgroundImageFix" result="effect1_dropShadow_591_1182"/>
<feBlend mode="normal" in="SourceGraphic" in2="effect1_dropShadow_591_1182" result="shape"/>
</filter>
</defs>
</svg>
