<svg width="218" height="113" viewBox="0 0 218 113" fill="none" xmlns="http://www.w3.org/2000/svg">
<g filter="url(#filter0_d_591_1225)">
<path fill-rule="evenodd" clip-rule="evenodd" d="M21.4568 5H196.528C201.581 5 205.678 9.09668 205.678 14.15V84.3006C205.678 89.354 201.581 93.4507 196.528 93.4507H21.4568C16.4032 93.4507 12.3066 89.354 12.3066 84.3006V14.15C12.3066 9.09668 16.4032 5 21.4568 5Z" fill="white"/>
</g>
<path fill-rule="evenodd" clip-rule="evenodd" d="M37.3177 47.0986C46.4154 47.0986 53.7904 39.7236 53.7904 30.6261C53.7904 21.5285 46.4154 14.1535 37.3177 14.1535C28.2203 14.1535 20.8453 21.5285 20.8453 30.6261C20.8453 39.7236 28.2203 47.0986 37.3177 47.0986Z" fill="#AEB8FF"/>
<g filter="url(#filter1_d_591_1225)">
<path fill-rule="evenodd" clip-rule="evenodd" d="M31.4227 19.2106C26.6709 19.3122 22.7815 23.1596 22.6314 27.9102C22.5568 30.2703 23.3919 32.4343 24.8126 34.0784C25.4523 34.8186 25.6349 35.8504 25.3058 36.7719L24.7143 38.4282C24.5218 38.9671 25.1459 39.4277 25.6039 39.0849L27.7021 37.5157C28.3265 37.0487 29.1193 36.875 29.8844 37.0257C30.6809 37.1827 31.5149 37.2346 32.3727 37.1636C36.8857 36.7901 40.4449 33.0578 40.6072 28.5322C40.7931 23.3488 36.5901 19.0999 31.4227 19.2106Z" fill="#5F6CFF"/>
</g>
<g filter="url(#filter2_d_591_1225)">
<path fill-rule="evenodd" clip-rule="evenodd" d="M50.1106 37.3089C49.3495 38.2272 49.1082 39.4683 49.5088 40.5913L49.7933 41.3881C49.4343 41.8041 49.0544 42.2021 48.6555 42.5808L46.8885 41.2609C46.143 40.7049 45.2003 40.4844 44.286 40.6545C43.6963 40.7647 43.0361 40.8622 42.5567 40.8622C37.1409 40.8622 32.751 36.4725 32.751 31.0567C32.7503 25.6462 37.1456 21.2511 42.5567 21.2511C47.9718 21.2511 52.3622 25.6408 52.3622 31.0567C52.3624 33.4327 51.5164 35.6119 50.1106 37.3089Z" fill="white"/>
</g>
<path fill-rule="evenodd" clip-rule="evenodd" d="M30.3242 33.9744C30.1666 34.6994 29.4095 35.2017 28.6845 35.0443C27.9064 34.8754 27.4609 34.1121 27.6184 33.3871C27.7795 32.6443 28.4974 32.152 29.2756 32.321C30.0007 32.4784 30.4853 33.2317 30.3242 33.9744ZM30.7173 30.5414C30.5984 31.0896 29.9471 31.1891 29.5226 31.0969C28.9568 30.9742 28.5294 30.6406 28.6483 30.0923C29.105 27.9878 29.5138 24.9101 29.9706 22.8056C30.1203 22.116 30.7709 21.8498 31.4957 22.0072C32.1854 22.1567 32.6848 22.6725 32.5349 23.3622C32.0781 25.4667 31.1741 28.4369 30.7173 30.5414Z" fill="white"/>
<path fill-rule="evenodd" clip-rule="evenodd" d="M44.4401 31.4065C43.5273 32.1201 43.5107 32.618 43.5107 33.4812C43.5107 33.7965 43.3447 34.1615 42.5314 34.1615C41.851 34.1615 41.6186 33.9125 41.6186 33.0496C41.6186 31.6222 42.2494 30.9417 42.7308 30.5269C43.2783 30.0622 44.2077 29.5477 44.2077 28.6514C44.2077 27.888 43.5439 27.5227 42.714 27.5227C41.0211 27.5227 41.3862 28.8008 40.49 28.8008C40.042 28.8008 39.4941 28.502 39.4941 27.8546C39.4941 26.9585 40.5232 25.6307 42.764 25.6307C44.8883 25.6307 46.2989 26.8092 46.2989 28.3692C46.2989 29.9292 44.8883 31.058 44.4401 31.4065ZM43.8261 36.5848C43.8261 37.2651 43.2617 37.8626 42.548 37.8626C41.8344 37.8626 41.2867 37.2651 41.2867 36.5848C41.2867 35.8877 41.8512 35.3067 42.548 35.3067C43.245 35.3067 43.8261 35.8877 43.8261 36.5848Z" fill="#00D9CD"/>
<path opacity="0.3" fill-rule="evenodd" clip-rule="evenodd" d="M202.803 44.3423C202.803 44.342 202.803 44.3415 202.803 44.3412C202.803 44.2057 202.747 44.0836 202.657 43.9962L202.657 43.996L199.781 41.1205L199.779 41.1218C199.693 41.0391 199.577 40.9883 199.448 40.9883C199.183 40.9883 198.969 41.2028 198.969 41.4675C198.969 41.6129 199.033 41.7432 199.136 41.831L201.647 44.3422L199.103 46.8863L199.103 46.8864C199.02 46.9725 198.969 47.0898 198.969 47.219C198.969 47.4837 199.183 47.6982 199.448 47.6982C199.577 47.6982 199.694 47.6473 199.781 47.564L199.781 47.5641L202.657 44.6884L202.657 44.6883C202.747 44.6011 202.803 44.4788 202.803 44.3433C202.803 44.3431 202.803 44.3428 202.803 44.3423Z" fill="white"/>
<g filter="url(#filter3_d_591_1225)">
<path fill-rule="evenodd" clip-rule="evenodd" d="M27.8182 56.8047H190.689C193.721 56.8047 196.179 59.2627 196.179 62.2948V78.7649C196.179 81.7969 193.721 84.2549 190.689 84.2549H27.8182C24.786 84.2549 22.3281 81.7969 22.3281 78.7649V62.2948C22.3281 59.2627 24.786 56.8047 27.8182 56.8047Z" fill="#5468FF"/>
</g>
<path d="M60.6025 73.7812H65.5058V72.566H61.9234V70.6004H65.2522V69.3851H61.9234V67.6309H65.5058V66.4156H60.6025V73.7812ZM66.9045 73.7812H68.4896L70.265 71.0548L72.0721 73.7812H73.6572L71.1844 70.1037L73.6361 66.4156H72.0615L70.2756 69.1843L68.5002 66.4156H66.9151L69.3667 70.1037L66.9045 73.7812ZM75.3602 73.7812H76.6706V70.7272H77.7697C79.3971 70.7272 80.2742 69.9663 80.2742 68.5397C80.2742 67.1342 79.4182 66.4156 77.7697 66.4156H75.3602V73.7812ZM76.6706 69.5119V67.6309H77.6323C78.5728 67.6309 78.9532 67.8951 78.9532 68.5608C78.9532 69.2266 78.5622 69.5119 77.6323 69.5119H76.6706ZM85.1057 73.9398C87.1981 73.9398 88.6247 72.4075 88.6247 70.1037C88.6247 67.7894 87.2086 66.2571 85.1057 66.2571C83.0133 66.2571 81.5867 67.7894 81.5867 70.1037C81.5867 72.4075 83.0133 73.9398 85.1057 73.9398ZM85.1057 72.6822C83.7636 72.6822 82.9076 71.6994 82.9076 70.1037C82.9076 68.4974 83.7636 67.5146 85.1057 67.5146C86.4478 67.5146 87.3037 68.508 87.3037 70.1037C87.3037 71.6889 86.4478 72.6822 85.1057 72.6822ZM96.1715 73.7812L94.1848 70.5687C95.0619 70.2728 95.548 69.5965 95.548 68.5397C95.548 67.2187 94.7977 66.4156 93.0435 66.4156H90.634V73.7812H91.9444V70.7272H92.4305H92.8744L94.6392 73.7812H96.1715ZM91.9444 69.5119V67.6309H92.9061C93.7621 67.6309 94.227 67.8422 94.227 68.5608C94.227 69.2794 93.7621 69.5119 92.9061 69.5119H91.9444ZM99.332 73.7812H100.663V67.6309H102.967V66.4156H97.0282V67.6309H99.332V73.7812ZM112.439 73.7812H113.876L110.938 66.4156H109.945L106.997 73.7812H108.434L108.994 72.2595H111.879L112.439 73.7812ZM109.448 71.0442L110.442 68.3601L111.435 71.0442H109.448ZM119.976 66.4156V71.4881L116.879 66.4156H115.516V73.7812H116.837V68.6876L119.923 73.7812H121.296V66.4156H119.976ZM125.932 73.9186C127.443 73.9186 128.489 73.0098 128.489 71.636C128.489 70.5898 127.972 70.0297 126.397 69.4274C125.287 68.9941 124.928 68.7193 124.928 68.2332C124.928 67.7788 125.33 67.4301 125.858 67.4301C126.355 67.4301 126.788 67.726 127.042 68.2755L128.141 67.5992C127.676 66.7115 126.894 66.2571 125.9 66.2571C124.527 66.2571 123.607 67.0708 123.607 68.2649C123.607 69.3323 124.157 69.8924 125.7 70.4947C126.788 70.928 127.168 71.245 127.168 71.7523C127.168 72.3758 126.693 72.7456 125.953 72.7456C125.097 72.7456 124.516 72.2489 124.421 71.3718L123.11 71.6994C123.322 73.0415 124.463 73.9186 125.932 73.9186ZM131.741 73.7812H133.02L134.626 68.9307L136.222 73.7812H137.511L139.719 66.4156H138.335L136.792 71.7628L135.186 66.8383H134.055L132.46 71.7628L130.906 66.4156H129.532L131.741 73.7812ZM141.435 73.7812H146.338V72.566H142.756V70.6004H146.085V69.3851H142.756V67.6309H146.338V66.4156H141.435V73.7812ZM154.088 73.7812L152.101 70.5687C152.978 70.2728 153.465 69.5965 153.465 68.5397C153.465 67.2187 152.714 66.4156 150.96 66.4156H148.551V73.7812H149.861V70.7272H150.347H150.791L152.556 73.7812H154.088ZM149.861 69.5119V67.6309H150.823C151.679 67.6309 152.144 67.8422 152.144 68.5608C152.144 69.2794 151.679 69.5119 150.823 69.5119H149.861ZM157.904 73.9186C159.415 73.9186 160.461 73.0098 160.461 71.636C160.461 70.5898 159.943 70.0297 158.369 69.4274C157.259 68.9941 156.9 68.7193 156.9 68.2332C156.9 67.7788 157.301 67.4301 157.83 67.4301C158.326 67.4301 158.76 67.726 159.013 68.2755L160.112 67.5992C159.647 66.7115 158.865 66.2571 157.872 66.2571C156.498 66.2571 155.579 67.0708 155.579 68.2649C155.579 69.3323 156.128 69.8924 157.671 70.4947C158.76 70.928 159.14 71.245 159.14 71.7523C159.14 72.3758 158.665 72.7456 157.925 72.7456C157.069 72.7456 156.488 72.2489 156.393 71.3718L155.082 71.6994C155.294 73.0415 156.435 73.9186 157.904 73.9186Z" fill="white"/>
<path d="M65.8974 30.8125H67.0833V24.2464H69.5648V23.1594H63.4269V24.2464H65.8974V30.8125ZM74.0564 27.9687C74.0564 26.5522 73.2878 25.3005 71.6078 25.3005C69.884 25.3005 69.0934 26.684 69.0934 28.1334C69.0934 29.6157 69.9059 30.9113 71.6957 30.9113C72.5851 30.9113 73.2658 30.6258 73.8807 29.9561L73.0901 29.2753C72.6839 29.7365 72.2337 29.8902 71.7066 29.8902C70.7843 29.8902 70.2683 29.3302 70.2243 28.4628H74.0234C74.0454 28.2981 74.0564 28.1334 74.0564 27.9687ZM70.2243 27.5514C70.3012 26.8816 70.7404 26.2448 71.6078 26.2448C72.4094 26.2448 72.9474 26.7609 72.9694 27.5295V27.5514H70.2243ZM77.3882 30.9113C78.4313 30.9113 79.2548 30.3513 79.6171 29.3412L78.585 28.9459C78.4203 29.5498 77.9591 29.9231 77.3882 29.9231C76.378 29.9231 75.9827 29.0667 75.9827 28.1224C75.9827 27.1781 76.389 26.2887 77.3772 26.2887C77.9701 26.2887 78.4203 26.673 78.596 27.2769L79.672 26.8597C79.2548 25.8056 78.4203 25.3005 77.3772 25.3005C75.6533 25.3005 74.8298 26.695 74.8298 28.1224C74.8298 29.5718 75.6862 30.9113 77.3882 30.9113ZM83.5922 25.3005C82.8565 25.3005 82.2636 25.575 81.9122 26.0691V23.1594H80.7813V30.8125H81.9122V28.5396C81.9122 27.0024 82.3404 26.2887 83.2627 26.2887C83.9874 26.2887 84.3278 26.7169 84.3278 27.6612V30.8125H85.4588V27.3757C85.4588 26.0362 84.8 25.3005 83.5922 25.3005ZM89.8542 25.3005C89.1515 25.3005 88.5366 25.553 88.1633 26.0691V25.3993H87.0323V30.8125H88.1633V28.5616C88.1633 27.4087 88.3609 26.2887 89.5248 26.2887C90.4581 26.2887 90.5789 27.0244 90.5789 27.6612V30.8125H91.7099V27.3757C91.7099 26.0471 91.0511 25.3005 89.8542 25.3005ZM93.2398 24.3452H94.4476V23.1594H93.2398V24.3452ZM93.2837 30.8125H94.4146V25.3993H93.2837V30.8125ZM98.201 30.9113C99.2441 30.9113 100.068 30.3513 100.43 29.3412L99.3978 28.9459C99.2331 29.5498 98.7719 29.9231 98.201 29.9231C97.1908 29.9231 96.7955 29.0667 96.7955 28.1224C96.7955 27.1781 97.2018 26.2887 98.19 26.2887C98.7829 26.2887 99.2331 26.673 99.4088 27.2769L100.485 26.8597C100.068 25.8056 99.2331 25.3005 98.19 25.3005C96.4661 25.3005 95.6426 26.695 95.6426 28.1224C95.6426 29.5718 96.4991 30.9113 98.201 30.9113ZM103.571 25.3005C102.605 25.3005 101.836 25.6738 101.211 26.4424L102.034 27.1342C102.44 26.5742 102.967 26.2887 103.56 26.2887C104.274 26.2887 104.702 26.706 104.702 27.4087V27.5953H103.439C102.671 27.5953 102.166 27.6832 101.792 27.8698C101.309 28.1114 101.046 28.5726 101.046 29.1874C101.046 30.2196 101.814 30.9113 102.967 30.9113C103.736 30.9113 104.362 30.5929 104.713 30.0439L104.801 30.8125H105.833V27.4087C105.833 26.0911 104.977 25.3005 103.571 25.3005ZM103.176 29.9561C102.561 29.9561 102.177 29.6706 102.177 29.2094C102.177 28.9788 102.254 28.7922 102.418 28.6824C102.627 28.5177 102.945 28.4628 103.571 28.4628H104.702V28.4847C104.702 29.3412 104.054 29.9561 103.176 29.9561ZM108.515 30.9113C108.768 30.9113 109.053 30.8564 109.328 30.7576V29.8353C109.163 29.8902 109.009 29.9121 108.878 29.9121C108.592 29.9121 108.449 29.7694 108.449 29.4839V23.1594H107.318V29.5608C107.318 30.4831 107.813 30.9113 108.515 30.9113ZM115.513 30.9443C117.083 30.9443 118.104 30.0439 118.104 28.6604C118.104 27.5844 117.588 26.9914 115.93 26.3546C114.756 25.9044 114.338 25.586 114.338 25.015C114.338 24.488 114.799 24.0598 115.436 24.0598C115.996 24.0598 116.49 24.3782 116.776 24.9601L117.753 24.3562C117.281 23.4668 116.479 23.0166 115.469 23.0166C114.086 23.0166 113.163 23.8292 113.163 25.048C113.163 26.124 113.723 26.695 115.305 27.2989C116.512 27.771 116.93 28.1334 116.93 28.7592C116.93 29.451 116.413 29.9012 115.535 29.9012C114.591 29.9012 113.943 29.3412 113.833 28.4079L112.658 28.6933C112.878 30.0549 114.02 30.9443 115.513 30.9443ZM122.594 25.3993V27.5953C122.594 28.7153 122.418 29.9231 121.243 29.9231C120.233 29.9231 120.178 29.0227 120.178 28.4737V25.3993H119.047V28.7592C119.047 29.978 119.607 30.9113 120.925 30.9113C121.584 30.9113 122.21 30.6698 122.594 30.1317V30.8125H123.725V25.3993H122.594ZM128.198 25.2895C127.561 25.2895 126.935 25.5091 126.562 26.0032V25.3993H125.431V33.0524H126.562V30.1976C126.902 30.6368 127.517 30.9113 128.198 30.9113C129.603 30.9113 130.514 29.8243 130.514 28.1114C130.514 26.4644 129.68 25.2895 128.198 25.2895ZM127.934 29.9231C126.924 29.9231 126.452 29.1435 126.452 28.1004C126.452 27.0244 126.946 26.2887 127.945 26.2887C128.9 26.2887 129.384 26.9585 129.384 28.1004C129.384 29.2094 128.911 29.9231 127.934 29.9231ZM134.567 25.2895C133.93 25.2895 133.304 25.5091 132.931 26.0032V25.3993H131.8V33.0524H132.931V30.1976C133.271 30.6368 133.886 30.9113 134.567 30.9113C135.972 30.9113 136.884 29.8243 136.884 28.1114C136.884 26.4644 136.049 25.2895 134.567 25.2895ZM134.303 29.9231C133.293 29.9231 132.821 29.1435 132.821 28.1004C132.821 27.0244 133.315 26.2887 134.314 26.2887C135.27 26.2887 135.753 26.9585 135.753 28.1004C135.753 29.2094 135.281 29.9231 134.303 29.9231ZM140.354 30.9113C141.979 30.9113 143.023 29.6486 143.023 28.1004C143.023 26.5412 141.979 25.3005 140.354 25.3005C138.718 25.3005 137.675 26.5412 137.675 28.1004C137.675 29.6486 138.718 30.9113 140.354 30.9113ZM140.354 29.9231C139.3 29.9231 138.806 29.0996 138.806 28.1004C138.806 27.1012 139.3 26.2887 140.354 26.2887C141.397 26.2887 141.892 27.1012 141.892 28.1004C141.892 29.0886 141.408 29.9231 140.354 29.9231ZM146.873 25.3005C146.28 25.3005 145.655 25.6079 145.38 26.2887V25.3993H144.238V30.8125H145.369V27.9906C145.369 26.9146 145.841 26.3765 146.654 26.3765C146.906 26.3765 147.115 26.4424 147.324 26.5632L147.873 25.575C147.543 25.3774 147.225 25.3005 146.873 25.3005ZM151.603 29.8353C151.361 29.9121 151.142 29.9561 150.955 29.9561C150.527 29.9561 150.274 29.7365 150.274 29.2753V26.3107H151.603V25.3993H150.274V23.39L149.143 24.2354V25.3993H148.254V26.3107H149.143V29.3741C149.143 30.4611 149.824 30.9113 150.681 30.9113C150.977 30.9113 151.295 30.8564 151.614 30.7576L151.603 29.8353ZM68.4814 43.8125H69.2524L66.7051 37.0097H66.1292L63.5916 43.8125H64.3529L65.0068 41.9874H67.8372L68.4814 43.8125ZM65.2118 41.392L66.422 37.9955L67.6225 41.392H65.2118ZM73.7477 37.0097V39.645C73.3866 39.1765 72.84 38.9129 72.1568 38.9129C70.8197 38.9129 70.0194 39.8987 70.0194 41.4018C70.0194 42.8365 70.7514 43.8906 72.1568 43.8906C72.8595 43.8906 73.3963 43.6173 73.7477 43.1683V43.8125H74.4212V37.0097H73.7477ZM72.2544 43.2952C71.2296 43.2952 70.6928 42.4949 70.6928 41.4018C70.6928 40.2598 71.2784 39.5083 72.2544 39.5083C73.2207 39.5083 73.8063 40.2598 73.8063 41.4018C73.8063 42.4949 73.2695 43.2952 72.2544 43.2952ZM77.4639 43.8125H78.0397L80.0112 39.0008H79.2695L77.7469 42.9536L76.2341 39.0008H75.5021L77.4639 43.8125ZM84.7869 41.1675C84.7869 40.0744 84.172 38.9227 82.6982 38.9227C81.3025 38.9227 80.5608 40.0744 80.5608 41.431C80.5608 42.7975 81.3123 43.8906 82.7763 43.8906C83.5181 43.8906 84.0744 43.6759 84.6405 43.0805L84.172 42.6706C83.7328 43.1391 83.3131 43.2757 82.7861 43.2757C81.8393 43.2757 81.2537 42.6413 81.2342 41.5872H84.7576C84.7771 41.4701 84.7869 41.3042 84.7869 41.1675ZM82.6982 39.4888C83.5864 39.4888 84.0842 40.0842 84.133 40.865C84.133 40.9528 84.1427 41.0016 84.1427 41.0211H81.2342C81.2928 40.172 81.8296 39.4888 82.6982 39.4888ZM88.4101 38.9227C87.7171 38.9227 87.1315 39.2155 86.8192 39.7035V39.0008H86.1457V43.8125H86.8192V41.6555C86.8192 40.2989 87.3462 39.5181 88.2539 39.5181C88.9762 39.5181 89.308 39.9963 89.308 41.0309V43.8125H89.9815V40.865C89.9815 39.5864 89.4446 38.9227 88.4101 38.9227ZM93.6364 43.1683C93.4216 43.2367 93.2362 43.2757 93.0703 43.2757C92.6896 43.2757 92.4749 43.061 92.4749 42.5925V39.5669H93.6364V39.0008H92.4749V37.244L91.8015 37.7515V39.0008H91.0011V39.5669H91.8015V42.6803C91.8015 43.5295 92.27 43.8906 92.9141 43.8906C93.1386 43.8906 93.3924 43.8418 93.6461 43.7637L93.6364 43.1683ZM102.463 43.8125L100.609 40.7088C101.526 40.4648 102.004 39.8499 102.004 38.8934C102.004 37.6637 101.224 37.0097 99.7596 37.0097H97.8173V43.8125H98.5103V40.7966H99.457H99.9158L101.653 43.8125H102.463ZM98.5103 40.1525V37.6539H99.6913C100.765 37.6539 101.302 38.0736 101.302 38.9032C101.302 39.7328 100.765 40.1525 99.6913 40.1525H98.5103ZM107.414 41.1675C107.414 40.0744 106.799 38.9227 105.326 38.9227C103.93 38.9227 103.188 40.0744 103.188 41.431C103.188 42.7975 103.94 43.8906 105.404 43.8906C106.145 43.8906 106.702 43.6759 107.268 43.0805L106.799 42.6706C106.36 43.1391 105.94 43.2757 105.413 43.2757C104.467 43.2757 103.881 42.6413 103.862 41.5872H107.385C107.404 41.4701 107.414 41.3042 107.414 41.1675ZM105.326 39.4888C106.214 39.4888 106.712 40.0842 106.76 40.865C106.76 40.9528 106.77 41.0016 106.77 41.0211H103.862C103.92 40.172 104.457 39.4888 105.326 39.4888ZM110.549 43.8906C111.418 43.8906 112.121 43.4319 112.443 42.5535L111.818 42.3192C111.633 42.9341 111.155 43.2952 110.549 43.2952C109.515 43.2952 109.056 42.407 109.056 41.4213C109.056 40.4355 109.515 39.5181 110.54 39.5181C111.145 39.5181 111.623 39.889 111.848 40.5038L112.492 40.2501C112.111 39.3521 111.399 38.9227 110.54 38.9227C109.085 38.9227 108.373 40.1525 108.373 41.4213C108.373 42.7584 109.154 43.8906 110.549 43.8906ZM115.828 38.9227C115.34 38.9227 114.754 39.0886 114.403 39.723V39.0008H113.729V43.8125H114.403V41.1285C114.403 40.0842 114.949 39.5278 115.691 39.5278C115.896 39.5278 116.101 39.5766 116.326 39.6742L116.657 39.1277C116.394 38.9813 116.121 38.9227 115.828 38.9227ZM120.749 39.0008V41.2163C120.749 42.4656 120.271 43.2952 119.314 43.2952C118.397 43.2952 118.26 42.5632 118.26 41.7824V39.0008H117.587V41.9483C117.587 43.1391 118.065 43.8906 119.158 43.8906C119.793 43.8906 120.407 43.6368 120.749 43.1195V43.8125H121.423V39.0008H120.749ZM123.145 38.0053H123.926V37.0097H123.145V38.0053ZM123.204 43.8125H123.877V39.0008H123.204V43.8125ZM127.644 43.1683C127.429 43.2367 127.244 43.2757 127.078 43.2757C126.697 43.2757 126.483 43.061 126.483 42.5925V39.5669H127.644V39.0008H126.483V37.244L125.809 37.7515V39.0008H125.009V39.5669H125.809V42.6803C125.809 43.5295 126.278 43.8906 126.922 43.8906C127.146 43.8906 127.4 43.8418 127.654 43.7637L127.644 43.1683ZM133.804 38.9227C133.072 38.9227 132.536 39.235 132.223 39.8499C131.979 39.2155 131.481 38.9227 130.808 38.9227C130.271 38.9227 129.783 39.1081 129.481 39.5864V39.0008H128.827L128.837 43.8125H129.51V41.4994C129.51 40.4062 129.773 39.5181 130.71 39.5181C131.55 39.5181 131.794 40.2306 131.794 41.0309V43.8125H132.467V41.4994C132.467 40.416 132.731 39.5181 133.707 39.5181C134.761 39.5181 134.761 40.5819 134.761 40.9918V43.8125H135.434V40.8064C135.434 39.684 134.956 38.9227 133.804 38.9227ZM140.926 41.1675C140.926 40.0744 140.311 38.9227 138.838 38.9227C137.442 38.9227 136.7 40.0744 136.7 41.431C136.7 42.7975 137.452 43.8906 138.916 43.8906C139.658 43.8906 140.214 43.6759 140.78 43.0805L140.311 42.6706C139.872 43.1391 139.453 43.2757 138.926 43.2757C137.979 43.2757 137.393 42.6413 137.374 41.5872H140.897C140.917 41.4701 140.926 41.3042 140.926 41.1675ZM138.838 39.4888C139.726 39.4888 140.224 40.0842 140.272 40.865C140.272 40.9528 140.282 41.0016 140.282 41.0211H137.374C137.432 40.172 137.969 39.4888 138.838 39.4888ZM144.55 38.9227C143.857 38.9227 143.271 39.2155 142.959 39.7035V39.0008H142.285V43.8125H142.959V41.6555C142.959 40.2989 143.486 39.5181 144.393 39.5181C145.116 39.5181 145.447 39.9963 145.447 41.0309V43.8125H146.121V40.865C146.121 39.5864 145.584 38.9227 144.55 38.9227ZM149.776 43.1683C149.561 43.2367 149.376 43.2757 149.21 43.2757C148.829 43.2757 148.614 43.061 148.614 42.5925V39.5669H149.776V39.0008H148.614V37.244L147.941 37.7515V39.0008H147.141V39.5669H147.941V42.6803C147.941 43.5295 148.409 43.8906 149.054 43.8906C149.278 43.8906 149.532 43.8418 149.786 43.7637L149.776 43.1683Z" fill="black"/>
<path fill-rule="evenodd" clip-rule="evenodd" d="M182.758 79.9875C187.811 79.9875 191.907 75.8911 191.907 70.8376C191.907 65.784 187.811 61.6875 182.758 61.6875C177.704 61.6875 173.607 65.784 173.607 70.8376C173.607 75.8911 177.704 79.9875 182.758 79.9875Z" fill="#485CF5"/>
<path fill-rule="evenodd" clip-rule="evenodd" d="M179.595 70.0397H185.122L182.699 67.6174C182.504 67.4219 182.506 67.109 182.705 66.9172C182.904 66.7254 183.223 66.7282 183.418 66.9235L186.99 70.4959C187.012 70.5177 187.012 70.5529 186.99 70.5747L183.412 74.1535C183.22 74.3454 182.91 74.3454 182.718 74.1535C182.526 73.9614 182.525 73.6507 182.716 73.4582L185.122 71.0308H179.595C179.321 71.0308 179.1 70.8095 179.1 70.5353C179.1 70.2611 179.321 70.0397 179.595 70.0397Z" fill="white"/>
<defs>
<filter id="filter0_d_591_1225" x="0.716558" y="0.729971" width="216.552" height="111.631" filterUnits="userSpaceOnUse" color-interpolation-filters="sRGB">
<feFlood flood-opacity="0" result="BackgroundImageFix"/>
<feColorMatrix in="SourceAlpha" type="matrix" values="0 0 0 0 0 0 0 0 0 0 0 0 0 0 0 0 0 0 127 0" result="hardAlpha"/>
<feOffset dy="7.32005"/>
<feGaussianBlur stdDeviation="5.79504"/>
<feColorMatrix type="matrix" values="0 0 0 0 0.235294 0 0 0 0 0.501961 0 0 0 0 0.819608 0 0 0 0.09 0"/>
<feBlend mode="normal" in2="BackgroundImageFix" result="effect1_dropShadow_591_1225"/>
<feBlend mode="normal" in="SourceGraphic" in2="effect1_dropShadow_591_1225" result="shape"/>
</filter>
<filter id="filter1_d_591_1225" x="14.6967" y="15.5485" width="33.8464" height="35.8544" filterUnits="userSpaceOnUse" color-interpolation-filters="sRGB">
<feFlood flood-opacity="0" result="BackgroundImageFix"/>
<feColorMatrix in="SourceAlpha" type="matrix" values="0 0 0 0 0 0 0 0 0 0 0 0 0 0 0 0 0 0 127 0" result="hardAlpha"/>
<feOffset dy="4.27003"/>
<feGaussianBlur stdDeviation="3.96503"/>
<feColorMatrix type="matrix" values="0 0 0 0 0.239216 0 0 0 0 0.337255 0 0 0 0 0.941176 0 0 0 0.29 0"/>
<feBlend mode="normal" in2="BackgroundImageFix" result="effect1_dropShadow_591_1225"/>
<feBlend mode="normal" in="SourceGraphic" in2="effect1_dropShadow_591_1225" result="shape"/>
</filter>
<filter id="filter2_d_591_1225" x="24.8209" y="17.5911" width="35.4712" height="37.1898" filterUnits="userSpaceOnUse" color-interpolation-filters="sRGB">
<feFlood flood-opacity="0" result="BackgroundImageFix"/>
<feColorMatrix in="SourceAlpha" type="matrix" values="0 0 0 0 0 0 0 0 0 0 0 0 0 0 0 0 0 0 127 0" result="hardAlpha"/>
<feOffset dy="4.27003"/>
<feGaussianBlur stdDeviation="3.96503"/>
<feColorMatrix type="matrix" values="0 0 0 0 0.239216 0 0 0 0 0.337255 0 0 0 0 0.941176 0 0 0 0.28 0"/>
<feBlend mode="normal" in2="BackgroundImageFix" result="effect1_dropShadow_591_1225"/>
<feBlend mode="normal" in="SourceGraphic" in2="effect1_dropShadow_591_1225" result="shape"/>
</filter>
<filter id="filter3_d_591_1225" x="7.07802" y="47.6547" width="204.352" height="57.9504" filterUnits="userSpaceOnUse" color-interpolation-filters="sRGB">
<feFlood flood-opacity="0" result="BackgroundImageFix"/>
<feColorMatrix in="SourceAlpha" type="matrix" values="0 0 0 0 0 0 0 0 0 0 0 0 0 0 0 0 0 0 127 0" result="hardAlpha"/>
<feOffset dy="6.10004"/>
<feGaussianBlur stdDeviation="7.62505"/>
<feColorMatrix type="matrix" values="0 0 0 0 0.329412 0 0 0 0 0.407843 0 0 0 0 1 0 0 0 0.3 0"/>
<feBlend mode="normal" in2="BackgroundImageFix" result="effect1_dropShadow_591_1225"/>
<feBlend mode="normal" in="SourceGraphic" in2="effect1_dropShadow_591_1225" result="shape"/>
</filter>
</defs>
</svg>
