<svg width="218" height="113" viewBox="0 0 218 113" fill="none" xmlns="http://www.w3.org/2000/svg">
<g filter="url(#filter0_d_591_1204)">
<path fill-rule="evenodd" clip-rule="evenodd" d="M21.4568 5H196.528C201.581 5 205.678 9.09668 205.678 14.15V84.3006C205.678 89.354 201.581 93.4507 196.528 93.4507H21.4568C16.4032 93.4507 12.3066 89.354 12.3066 84.3006V14.15C12.3066 9.09668 16.4032 5 21.4568 5Z" fill="white"/>
</g>
<path fill-rule="evenodd" clip-rule="evenodd" d="M37.3177 47.0947C46.4154 47.0947 53.7904 39.7197 53.7904 30.6222C53.7904 21.5246 46.4154 14.1496 37.3177 14.1496C28.2203 14.1496 20.8453 21.5246 20.8453 30.6222C20.8453 39.7197 28.2203 47.0947 37.3177 47.0947Z" fill="#AEB8FF"/>
<g filter="url(#filter1_d_591_1204)">
<path fill-rule="evenodd" clip-rule="evenodd" d="M31.4208 19.2048C26.669 19.3064 22.7796 23.1538 22.6295 27.9043C22.5548 30.2645 23.39 32.4285 24.8107 34.0725C25.4504 34.8128 25.633 35.8445 25.3039 36.766L24.7123 38.4224C24.5199 38.9613 25.1439 39.4218 25.602 39.0791L27.7001 37.5099C28.3245 37.0428 29.1173 36.8691 29.8825 37.0199C30.679 37.1768 31.513 37.2287 32.3707 37.1578C36.8838 36.7843 40.443 33.052 40.6052 28.5264C40.7911 23.3429 36.5881 19.094 31.4208 19.2048Z" fill="#5F6CFF"/>
</g>
<g filter="url(#filter2_d_591_1204)">
<path fill-rule="evenodd" clip-rule="evenodd" d="M50.1106 37.305C49.3495 38.2233 49.1082 39.4644 49.5088 40.5874L49.7933 41.3842C49.4343 41.8002 49.0544 42.1982 48.6555 42.5769L46.8885 41.257C46.143 40.701 45.2003 40.4805 44.286 40.6505C43.6963 40.7608 43.0361 40.8582 42.5567 40.8582C37.1409 40.8582 32.751 36.4686 32.751 31.0528C32.7503 25.6423 37.1456 21.2472 42.5567 21.2472C47.9718 21.2472 52.3622 25.6368 52.3622 31.0528C52.3624 33.4288 51.5164 35.608 50.1106 37.305Z" fill="white"/>
</g>
<path fill-rule="evenodd" clip-rule="evenodd" d="M30.3242 33.9764C30.1666 34.7013 29.4095 35.2036 28.6845 35.0463C27.9064 34.8773 27.4609 34.114 27.6184 33.3891C27.7795 32.6463 28.4974 32.1539 29.2756 32.323C30.0007 32.4803 30.4853 33.2337 30.3242 33.9764ZM30.7173 30.5433C30.5984 31.0916 29.9471 31.1911 29.5226 31.0989C28.9568 30.9761 28.5294 30.6426 28.6483 30.0942C29.105 27.9898 29.5138 24.9121 29.9706 22.8076C30.1203 22.118 30.7709 21.8518 31.4957 22.0091C32.1854 22.1587 32.6848 22.6745 32.5349 23.3641C32.0781 25.4686 31.1741 28.4389 30.7173 30.5433Z" fill="white"/>
<path fill-rule="evenodd" clip-rule="evenodd" d="M44.4401 31.4067C43.5273 32.1202 43.5107 32.6181 43.5107 33.4813C43.5107 33.7967 43.3447 34.1616 42.5314 34.1616C41.851 34.1616 41.6186 33.9127 41.6186 33.0497C41.6186 31.6223 42.2494 30.9418 42.7308 30.527C43.2783 30.0623 44.2077 29.5478 44.2077 28.6515C44.2077 27.8882 43.5439 27.5228 42.714 27.5228C41.0211 27.5228 41.3862 28.8009 40.49 28.8009C40.042 28.8009 39.4941 28.5022 39.4941 27.8547C39.4941 26.9586 40.5232 25.6309 42.764 25.6309C44.8883 25.6309 46.2989 26.8093 46.2989 28.3693C46.2989 29.9293 44.8883 31.0581 44.4401 31.4067ZM43.8261 36.5849C43.8261 37.2652 43.2617 37.8628 42.548 37.8628C41.8344 37.8628 41.2867 37.2652 41.2867 36.5849C41.2867 35.8878 41.8512 35.3068 42.548 35.3068C43.245 35.3068 43.8261 35.8878 43.8261 36.5849Z" fill="#00D9CD"/>
<path opacity="0.3" fill-rule="evenodd" clip-rule="evenodd" d="M202.803 44.3462C202.803 44.3459 202.803 44.3454 202.803 44.3451C202.803 44.2096 202.747 44.0875 202.657 44.0001L202.657 43.9999L199.781 41.1244L199.779 41.1257C199.693 41.043 199.577 40.9922 199.448 40.9922C199.183 40.9922 198.969 41.2067 198.969 41.4714C198.969 41.6168 199.033 41.7471 199.136 41.8349L201.647 44.3461L199.103 46.8902L199.103 46.8903C199.02 46.9764 198.969 47.0937 198.969 47.2229C198.969 47.4876 199.183 47.7021 199.448 47.7021C199.577 47.7021 199.694 47.6512 199.781 47.5679L199.781 47.568L202.657 44.6923L202.657 44.6922C202.747 44.605 202.803 44.4827 202.803 44.3472C202.803 44.347 202.803 44.3467 202.803 44.3462Z" fill="white"/>
<g filter="url(#filter3_d_591_1204)">
<path fill-rule="evenodd" clip-rule="evenodd" d="M27.8182 56.8047H190.689C193.721 56.8047 196.179 59.2627 196.179 62.2948V78.7649C196.179 81.7969 193.721 84.2549 190.689 84.2549H27.8182C24.786 84.2549 22.3281 81.7969 22.3281 78.7649V62.2948C22.3281 59.2627 24.786 56.8047 27.8182 56.8047Z" fill="#AEB8FF"/>
</g>
<path d="M95.9627 74.9081C97.3584 74.9081 98.3247 74.0688 98.3247 72.8C98.3247 71.8337 97.8464 71.3164 96.3922 70.7601C95.3674 70.3599 95.0355 70.1062 95.0355 69.6572C95.0355 69.2375 95.4064 68.9154 95.8944 68.9154C96.3531 68.9154 96.7533 69.1887 96.9875 69.6963L98.0026 69.0716C97.5731 68.2518 96.8509 67.8321 95.9334 67.8321C94.6646 67.8321 93.8155 68.5836 93.8155 69.6865C93.8155 70.6723 94.323 71.1895 95.748 71.7459C96.7533 72.146 97.1047 72.4388 97.1047 72.9073C97.1047 73.4832 96.6654 73.8248 95.9822 73.8248C95.1917 73.8248 94.6549 73.366 94.567 72.556L93.3568 72.8585C93.552 74.098 94.6061 74.9081 95.9627 74.9081ZM100.068 74.7812H101.288V71.8435H104.265V74.7812H105.485V67.9785H104.265V70.7211H101.288V67.9785H100.068V74.7812ZM112.028 74.7812H113.356L110.642 67.9785H109.725L107.002 74.7812H108.329L108.847 73.3758H111.511L112.028 74.7812ZM109.266 72.2534L110.184 69.7743L111.101 72.2534H109.266ZM119.985 74.7812L118.15 71.8142C118.96 71.5409 119.409 70.9163 119.409 69.9403C119.409 68.7202 118.716 67.9785 117.096 67.9785H114.87V74.7812H116.081V71.9606H116.53H116.939L118.569 74.7812H119.985ZM116.081 70.8382V69.1009H116.969C117.759 69.1009 118.189 69.2961 118.189 69.9598C118.189 70.6235 117.759 70.8382 116.969 70.8382H116.081ZM121.557 74.7812H126.085V73.6588H122.777V71.8435H125.851V70.7211H122.777V69.1009H126.085V67.9785H121.557V74.7812Z" fill="white"/>
<path d="M67.8189 29.92C69.422 29.92 70.6188 29.1404 71.1788 27.6911L70.0698 27.2738C69.7075 28.284 68.9279 28.8001 67.8189 28.8001C66.2707 28.8001 65.3594 27.7679 65.3594 25.9343C65.3594 24.1116 66.2707 23.0904 67.8409 23.0904C68.9389 23.0904 69.7075 23.5845 70.0698 24.5837L71.1569 24.1665C70.5969 22.7281 69.433 21.9704 67.8409 21.9704C65.6009 21.9704 64.1845 23.4857 64.1845 25.9452C64.1845 28.3938 65.59 29.92 67.8189 29.92ZM75.5628 24.3641V26.5601C75.5628 27.6801 75.3871 28.8879 74.2122 28.8879C73.2021 28.8879 73.1472 27.9875 73.1472 27.4385V24.3641H72.0162V27.724C72.0162 28.9428 72.5762 29.8761 73.8938 29.8761C74.5526 29.8761 75.1785 29.6345 75.5628 29.0965V29.7773H76.6937V24.3641H75.5628ZM80.0686 29.8761C81.1007 29.8761 82.1218 29.3271 82.1218 28.1193C82.1218 26.1209 79.1902 26.7138 79.1902 25.7366C79.1902 25.4072 79.5086 25.1766 80.0137 25.1766C80.6395 25.1766 80.9799 25.517 81.1885 25.9013L82.0669 25.4182C81.6717 24.6715 80.9689 24.2653 80.0576 24.2653C78.9925 24.2653 78.1141 24.8143 78.1141 25.8245C78.1141 27.8009 81.0128 27.0981 81.0128 28.1852C81.0128 28.5695 80.6725 28.9208 80.0246 28.9208C79.256 28.9208 78.8937 28.4377 78.729 27.9875L77.8176 28.3938C78.0812 29.2393 78.9486 29.8761 80.0686 29.8761ZM86.0428 28.8001C85.8013 28.8769 85.5817 28.9208 85.395 28.9208C84.9668 28.9208 84.7143 28.7012 84.7143 28.2401V25.2755H86.0428V24.3641H84.7143V22.3547L83.5833 23.2002V24.3641H82.6939V25.2755H83.5833V28.3389C83.5833 29.4259 84.2641 29.8761 85.1205 29.8761C85.417 29.8761 85.7354 29.8212 86.0538 29.7224L86.0428 28.8001ZM89.4416 29.8761C91.0667 29.8761 92.1098 28.6134 92.1098 27.0652C92.1098 25.506 91.0667 24.2653 89.4416 24.2653C87.8056 24.2653 86.7625 25.506 86.7625 27.0652C86.7625 28.6134 87.8056 29.8761 89.4416 29.8761ZM89.4416 28.8879C88.3875 28.8879 87.8934 28.0644 87.8934 27.0652C87.8934 26.066 88.3875 25.2535 89.4416 25.2535C90.4847 25.2535 90.9788 26.066 90.9788 27.0652C90.9788 28.0534 90.4957 28.8879 89.4416 28.8879ZM99.2217 24.2653C98.486 24.2653 97.8711 24.5508 97.4649 25.3304C97.1464 24.5288 96.5206 24.2653 95.8837 24.2653C95.3238 24.2653 94.7638 24.4629 94.4124 25.0449V24.3641H93.3254L93.3364 29.7773H94.4673V27.5373C94.4673 26.3954 94.5442 25.2535 95.6312 25.2535C96.5206 25.2535 96.6414 26.1099 96.6414 26.7029V29.7773H97.7723V27.5373C97.7723 26.4064 97.8492 25.2535 98.9472 25.2535C99.9244 25.2535 99.9573 26.2417 99.9573 26.6809V29.7773H101.088V26.3515C101.088 25.2096 100.528 24.2653 99.2217 24.2653ZM107.156 26.9334C107.156 25.517 106.388 24.2653 104.708 24.2653C102.984 24.2653 102.193 25.6488 102.193 27.0981C102.193 28.5805 103.006 29.8761 104.796 29.8761C105.685 29.8761 106.366 29.5906 106.981 28.9208L106.19 28.2401C105.784 28.7012 105.334 28.855 104.807 28.855C103.884 28.855 103.368 28.295 103.324 27.4275H107.123C107.145 27.2628 107.156 27.0981 107.156 26.9334ZM103.324 26.5162C103.401 25.8464 103.84 25.2096 104.708 25.2096C105.509 25.2096 106.047 25.7256 106.069 26.4942V26.5162H103.324ZM111.026 24.2653C110.433 24.2653 109.807 24.5727 109.533 25.2535V24.3641H108.391V29.7773H109.522V26.9554C109.522 25.8794 109.994 25.3413 110.806 25.3413C111.059 25.3413 111.268 25.4072 111.476 25.528L112.025 24.5398C111.696 24.3421 111.377 24.2653 111.026 24.2653ZM115.827 29.7773H120.34V28.6903H117.002V22.1242H115.827V29.7773ZM121.343 23.31H122.551V22.1242H121.343V23.31ZM121.387 29.7773H122.518V24.3641H121.387V29.7773ZM126.227 24.2653C125.261 24.2653 124.492 24.6386 123.866 25.4072L124.69 26.099C125.096 25.539 125.623 25.2535 126.216 25.2535C126.93 25.2535 127.358 25.6707 127.358 26.3735V26.5601H126.095C125.327 26.5601 124.822 26.648 124.448 26.8346C123.965 27.0762 123.702 27.5373 123.702 28.1522C123.702 29.1844 124.47 29.8761 125.623 29.8761C126.392 29.8761 127.018 29.5577 127.369 29.0087L127.457 29.7773H128.489V26.3735C128.489 25.0558 127.633 24.2653 126.227 24.2653ZM125.832 28.9208C125.217 28.9208 124.833 28.6354 124.833 28.1742C124.833 27.9436 124.91 27.7569 125.074 27.6471C125.283 27.4824 125.601 27.4275 126.227 27.4275H127.358V27.4495C127.358 28.306 126.71 28.9208 125.832 28.9208ZM131.709 29.8761C132.741 29.8761 133.763 29.3271 133.763 28.1193C133.763 26.1209 130.831 26.7138 130.831 25.7366C130.831 25.4072 131.149 25.1766 131.654 25.1766C132.28 25.1766 132.621 25.517 132.829 25.9013L133.708 25.4182C133.312 24.6715 132.61 24.2653 131.698 24.2653C130.633 24.2653 129.755 24.8143 129.755 25.8245C129.755 27.8009 132.654 27.0981 132.654 28.1852C132.654 28.5695 132.313 28.9208 131.665 28.9208C130.897 28.9208 130.534 28.4377 130.37 27.9875L129.458 28.3938C129.722 29.2393 130.589 29.8761 131.709 29.8761ZM137.179 29.8761C138.804 29.8761 139.847 28.6134 139.847 27.0652C139.847 25.506 138.804 24.2653 137.179 24.2653C135.543 24.2653 134.5 25.506 134.5 27.0652C134.5 28.6134 135.543 29.8761 137.179 29.8761ZM137.179 28.8879C136.125 28.8879 135.631 28.0644 135.631 27.0652C135.631 26.066 136.125 25.2535 137.179 25.2535C138.222 25.2535 138.716 26.066 138.716 27.0652C138.716 28.0534 138.233 28.8879 137.179 28.8879ZM143.885 24.2653C143.182 24.2653 142.567 24.5178 142.194 25.0339V24.3641H141.063V29.7773H142.194V27.5264C142.194 26.3735 142.392 25.2535 143.555 25.2535C144.489 25.2535 144.61 25.9892 144.61 26.626V29.7773H145.74V26.3405C145.74 25.0119 145.082 24.2653 143.885 24.2653ZM66.5159 42.8749C67.9214 42.8749 68.712 42.1429 68.712 41.001C68.712 40.0542 68.2825 39.5077 66.7697 38.9318C65.6961 38.5219 65.2276 38.1901 65.2276 37.5654C65.2276 36.9896 65.7351 36.5016 66.4476 36.5016C67.0332 36.5016 67.531 36.8139 67.8238 37.3409L68.4094 36.9798C67.9995 36.2576 67.326 35.8769 66.4671 35.8769C65.3155 35.8769 64.5347 36.5601 64.5347 37.5947C64.5347 38.4829 65.0129 38.9709 66.3891 39.4881C67.5896 39.9469 68.0092 40.3275 68.0092 41.0595C68.0092 41.733 67.5115 42.2502 66.5257 42.2502C65.6083 42.2502 64.9446 41.6939 64.8177 40.8155L64.1247 40.9814C64.3102 42.1234 65.2569 42.8749 66.5159 42.8749ZM72.0348 42.1331C71.8201 42.2014 71.6346 42.2405 71.4687 42.2405C71.0881 42.2405 70.8734 42.0258 70.8734 41.5573V38.5317H72.0348V37.9656H70.8734V36.2088L70.1999 36.7163V37.9656H69.3996V38.5317H70.1999V41.6451C70.1999 42.4942 70.6684 42.8554 71.3126 42.8554C71.537 42.8554 71.7908 42.8066 72.0446 42.7285L72.0348 42.1331ZM75.1586 42.8554C76.5347 42.8554 77.4717 41.7818 77.4717 40.3665C77.4717 38.9416 76.525 37.8875 75.1586 37.8875C73.7824 37.8875 72.8552 38.9416 72.8552 40.3665C72.8552 41.7915 73.7824 42.8554 75.1586 42.8554ZM75.1586 42.26C74.1338 42.26 73.5286 41.4597 73.5286 40.3665C73.5286 39.2832 74.124 38.4829 75.1586 38.4829C76.1834 38.4829 76.7983 39.2734 76.7983 40.3665C76.7983 41.4402 76.1931 42.26 75.1586 42.26ZM80.608 42.8554C81.4766 42.8554 82.1793 42.3966 82.5014 41.5182L81.8768 41.284C81.6913 41.8989 81.2131 42.26 80.608 42.26C79.5734 42.26 79.1147 41.3718 79.1147 40.3861C79.1147 39.4003 79.5734 38.4829 80.5982 38.4829C81.2033 38.4829 81.6816 38.8537 81.906 39.4686L82.5502 39.2149C82.1696 38.3169 81.4571 37.8875 80.5982 37.8875C79.1439 37.8875 78.4315 39.1173 78.4315 40.3861C78.4315 41.7232 79.2123 42.8554 80.608 42.8554ZM83.7879 42.7773H84.4614V41.3621L85.5642 40.1909L87.243 42.7773H88.0433L86.023 39.7712L87.77 37.9656H86.8623L84.4614 40.5129V35.9745H83.7879V42.7773ZM92.6943 40.1323C92.6943 39.0392 92.0794 37.8875 90.6056 37.8875C89.2099 37.8875 88.4682 39.0392 88.4682 40.3958C88.4682 41.7622 89.2197 42.8554 90.6837 42.8554C91.4255 42.8554 91.9818 42.6406 92.5479 42.0453L92.0794 41.6354C91.6402 42.1038 91.2205 42.2405 90.6935 42.2405C89.7467 42.2405 89.1611 41.6061 89.1416 40.552H92.665C92.6845 40.4349 92.6943 40.2689 92.6943 40.1323ZM90.6056 38.4536C91.4938 38.4536 91.9916 39.0489 92.0404 39.8297C92.0404 39.9176 92.0501 39.9664 92.0501 39.9859H89.1416C89.2002 39.1368 89.737 38.4536 90.6056 38.4536ZM96.1516 37.8875C95.6636 37.8875 95.0779 38.0534 94.7266 38.6878V37.9656H94.0531V42.7773H94.7266V40.0933C94.7266 39.0489 95.2731 38.4926 96.0149 38.4926C96.2199 38.4926 96.4248 38.5414 96.6493 38.639L96.9812 38.0924C96.7176 37.946 96.4444 37.8875 96.1516 37.8875ZM100.219 42.1331C100.004 42.2014 99.8187 42.2405 99.6528 42.2405C99.2722 42.2405 99.0575 42.0258 99.0575 41.5573V38.5317H100.219V37.9656H99.0575V36.2088L98.384 36.7163V37.9656H97.5837V38.5317H98.384V41.6451C98.384 42.4942 98.8525 42.8554 99.4967 42.8554C99.7211 42.8554 99.9749 42.8066 100.229 42.7285L100.219 42.1331ZM103.343 42.8554C104.719 42.8554 105.656 41.7818 105.656 40.3665C105.656 38.9416 104.709 37.8875 103.343 37.8875C101.966 37.8875 101.039 38.9416 101.039 40.3665C101.039 41.7915 101.966 42.8554 103.343 42.8554ZM103.343 42.26C102.318 42.26 101.713 41.4597 101.713 40.3665C101.713 39.2832 102.308 38.4829 103.343 38.4829C104.367 38.4829 104.982 39.2734 104.982 40.3665C104.982 41.4402 104.377 42.26 103.343 42.26ZM109.28 37.8875C108.587 37.8875 108.001 38.1803 107.689 38.6683V37.9656H107.016V42.7773H107.689V40.6203C107.689 39.2637 108.216 38.4829 109.124 38.4829C109.846 38.4829 110.178 38.9611 110.178 39.9957V42.7773H110.851V39.8297C110.851 38.5512 110.315 37.8875 109.28 37.8875ZM115.409 42.7773H119.205V42.1331H116.102V35.9745H115.409V42.7773ZM120.368 36.97H121.149V35.9745H120.368V36.97ZM120.426 42.7773H121.1V37.9656H120.426V42.7773ZM125.14 37.8777C124.457 37.8777 123.91 38.1412 123.549 38.6097V35.9745H122.876V42.7773H123.549V42.1331C123.901 42.5821 124.437 42.8554 125.14 42.8554C126.546 42.8554 127.278 41.8013 127.278 40.3665C127.278 38.8635 126.477 37.8777 125.14 37.8777ZM125.043 42.26C124.028 42.26 123.491 41.4597 123.491 40.3665C123.491 39.2246 124.076 38.4731 125.043 38.4731C126.019 38.4731 126.604 39.2246 126.604 40.3665C126.604 41.4597 126.067 42.26 125.043 42.26ZM130.769 37.8875C130.281 37.8875 129.696 38.0534 129.344 38.6878V37.9656H128.671V42.7773H129.344V40.0933C129.344 39.0489 129.891 38.4926 130.633 38.4926C130.838 38.4926 131.043 38.5414 131.267 38.639L131.599 38.0924C131.335 37.946 131.062 37.8875 130.769 37.8875ZM134.267 37.8875C133.447 37.8875 132.822 38.1998 132.305 38.8733L132.793 39.2832C133.183 38.7464 133.652 38.4829 134.257 38.4829C135.067 38.4829 135.506 38.9416 135.506 39.7809V40.0054H134.521C133.574 40.0054 133.057 40.0933 132.686 40.308C132.334 40.5227 132.139 40.8936 132.139 41.3816C132.139 42.3088 132.754 42.8554 133.798 42.8554C134.56 42.8554 135.145 42.5723 135.526 42.0355L135.565 42.7773H136.18V39.7809C136.18 38.5805 135.477 37.8875 134.267 37.8875ZM133.993 42.299C133.271 42.299 132.813 41.9574 132.813 41.4206C132.813 41.1474 132.9 40.9326 133.076 40.796C133.31 40.6105 133.691 40.552 134.579 40.552H135.506V40.6203C135.506 41.6451 134.921 42.299 133.993 42.299ZM139.919 37.8875C139.431 37.8875 138.846 38.0534 138.494 38.6878V37.9656H137.821V42.7773H138.494V40.0933C138.494 39.0489 139.041 38.4926 139.783 38.4926C139.988 38.4926 140.193 38.5414 140.417 38.639L140.749 38.0924C140.485 37.946 140.212 37.8875 139.919 37.8875ZM142.418 44.7683H143.14L145.775 37.9656H145.034L143.579 41.9282L141.92 37.9656H141.178L143.218 42.7187L142.418 44.7683Z" fill="black"/>
<path fill-rule="evenodd" clip-rule="evenodd" d="M182.758 79.9836C187.811 79.9836 191.907 75.8872 191.907 70.8337C191.907 65.7801 187.811 61.6836 182.758 61.6836C177.704 61.6836 173.607 65.7801 173.607 70.8337C173.607 75.8872 177.704 79.9836 182.758 79.9836Z" fill="#A1ADF8"/>
<path fill-rule="evenodd" clip-rule="evenodd" d="M179.593 70.0338H185.12L182.697 67.6115C182.502 67.416 182.504 67.1031 182.703 66.9114C182.902 66.7195 183.221 66.7224 183.416 66.9176L186.989 70.4901C187.01 70.5119 187.01 70.547 186.989 70.5688L183.41 74.1477C183.218 74.3395 182.908 74.3395 182.716 74.1477C182.524 73.9555 182.523 73.6448 182.714 73.4523L185.12 71.025H179.593C179.319 71.025 179.098 70.8036 179.098 70.5294C179.098 70.2553 179.319 70.0338 179.593 70.0338Z" fill="white"/>
<defs>
<filter id="filter0_d_591_1204" x="0.716558" y="0.729971" width="216.552" height="111.631" filterUnits="userSpaceOnUse" color-interpolation-filters="sRGB">
<feFlood flood-opacity="0" result="BackgroundImageFix"/>
<feColorMatrix in="SourceAlpha" type="matrix" values="0 0 0 0 0 0 0 0 0 0 0 0 0 0 0 0 0 0 127 0" result="hardAlpha"/>
<feOffset dy="7.32005"/>
<feGaussianBlur stdDeviation="5.79504"/>
<feColorMatrix type="matrix" values="0 0 0 0 0.235294 0 0 0 0 0.501961 0 0 0 0 0.819608 0 0 0 0.09 0"/>
<feBlend mode="normal" in2="BackgroundImageFix" result="effect1_dropShadow_591_1204"/>
<feBlend mode="normal" in="SourceGraphic" in2="effect1_dropShadow_591_1204" result="shape"/>
</filter>
<filter id="filter1_d_591_1204" x="14.6947" y="15.5427" width="33.8464" height="35.8544" filterUnits="userSpaceOnUse" color-interpolation-filters="sRGB">
<feFlood flood-opacity="0" result="BackgroundImageFix"/>
<feColorMatrix in="SourceAlpha" type="matrix" values="0 0 0 0 0 0 0 0 0 0 0 0 0 0 0 0 0 0 127 0" result="hardAlpha"/>
<feOffset dy="4.27003"/>
<feGaussianBlur stdDeviation="3.96503"/>
<feColorMatrix type="matrix" values="0 0 0 0 0.239216 0 0 0 0 0.337255 0 0 0 0 0.941176 0 0 0 0.29 0"/>
<feBlend mode="normal" in2="BackgroundImageFix" result="effect1_dropShadow_591_1204"/>
<feBlend mode="normal" in="SourceGraphic" in2="effect1_dropShadow_591_1204" result="shape"/>
</filter>
<filter id="filter2_d_591_1204" x="24.8209" y="17.5872" width="35.4712" height="37.1898" filterUnits="userSpaceOnUse" color-interpolation-filters="sRGB">
<feFlood flood-opacity="0" result="BackgroundImageFix"/>
<feColorMatrix in="SourceAlpha" type="matrix" values="0 0 0 0 0 0 0 0 0 0 0 0 0 0 0 0 0 0 127 0" result="hardAlpha"/>
<feOffset dy="4.27003"/>
<feGaussianBlur stdDeviation="3.96503"/>
<feColorMatrix type="matrix" values="0 0 0 0 0.239216 0 0 0 0 0.337255 0 0 0 0 0.941176 0 0 0 0.28 0"/>
<feBlend mode="normal" in2="BackgroundImageFix" result="effect1_dropShadow_591_1204"/>
<feBlend mode="normal" in="SourceGraphic" in2="effect1_dropShadow_591_1204" result="shape"/>
</filter>
<filter id="filter3_d_591_1204" x="7.07802" y="47.6547" width="204.352" height="57.9504" filterUnits="userSpaceOnUse" color-interpolation-filters="sRGB">
<feFlood flood-opacity="0" result="BackgroundImageFix"/>
<feColorMatrix in="SourceAlpha" type="matrix" values="0 0 0 0 0 0 0 0 0 0 0 0 0 0 0 0 0 0 127 0" result="hardAlpha"/>
<feOffset dy="6.10004"/>
<feGaussianBlur stdDeviation="7.62505"/>
<feColorMatrix type="matrix" values="0 0 0 0 0.329412 0 0 0 0 0.407843 0 0 0 0 1 0 0 0 0.3 0"/>
<feBlend mode="normal" in2="BackgroundImageFix" result="effect1_dropShadow_591_1204"/>
<feBlend mode="normal" in="SourceGraphic" in2="effect1_dropShadow_591_1204" result="shape"/>
</filter>
</defs>
</svg>
