<svg width="47" height="47" viewBox="0 0 47 47" fill="none" xmlns="http://www.w3.org/2000/svg">
<rect width="46.242" height="46.242" rx="12.0585" fill="url(#paint0_linear_484_1682)"/>
<path d="M16.0918 25.2323L29.4422 14.0352L46.239 17.0498V34.1837C46.239 40.8434 40.8403 46.2421 34.1806 46.2421H29.4422L16.0918 25.2323Z" fill="#99A6FF" fill-opacity="0.5"/>
<path d="M31.7535 28.1789C31.7535 29.8679 30.3277 31.2526 28.5495 31.2526C26.7712 31.2526 25.3454 29.8679 25.3454 28.1789C25.3454 26.4899 26.7712 25.1052 28.5495 25.1052C30.3277 25.1052 31.7535 26.4899 31.7535 28.1789Z" fill="white" stroke="white" stroke-width="0.47504"/>
<path d="M31.7535 16.9128C31.7535 18.6018 30.3277 19.9865 28.5495 19.9865C26.7712 19.9865 25.3454 18.6018 25.3454 16.9128C25.3454 15.2238 26.7712 13.8391 28.5495 13.8391C30.3277 13.8391 31.7535 15.2238 31.7535 16.9128Z" fill="white" stroke="white" stroke-width="0.47504"/>
<path d="M17.801 22.5133L28.5663 28.1629" stroke="white" stroke-width="1.61427"/>
<path d="M17.8005 22.516L29.1582 16.8082" stroke="white" stroke-width="1.61427"/>
<path d="M21.0206 22.5331C21.0206 24.2221 19.5948 25.6068 17.8166 25.6068C16.0383 25.6068 14.6125 24.2221 14.6125 22.5331C14.6125 20.8441 16.0383 19.4594 17.8166 19.4594C19.5948 19.4594 21.0206 20.8441 21.0206 22.5331Z" fill="white" stroke="white" stroke-width="0.47504"/>
<defs>
<linearGradient id="paint0_linear_484_1682" x1="23.121" y1="0" x2="23.121" y2="46.242" gradientUnits="userSpaceOnUse">
<stop stop-color="#AEB8FF"/>
<stop offset="1" stop-color="#99A6FF"/>
</linearGradient>
</defs>
</svg>
