<svg width="62" height="25" viewBox="0 0 62 25" fill="none" xmlns="http://www.w3.org/2000/svg">
<rect y="1.15454" width="59.899" height="23.3373" transform="rotate(-1.08556 0 1.15454)" fill="white"/>
<path fill-rule="evenodd" clip-rule="evenodd" d="M11.8396 19.6788C15.813 19.6035 18.9729 16.3215 18.8977 12.3482C18.8224 8.37488 15.5403 5.21493 11.567 5.29022C7.59372 5.36551 4.43374 8.64753 4.50903 12.6209C4.58432 16.5942 7.86637 19.7541 11.8396 19.6788Z" fill="#AEB8FF"/>
<g filter="url(#filter0_d_484_1743)">
<path fill-rule="evenodd" clip-rule="evenodd" d="M9.03391 7.54879C6.95942 7.63248 5.29259 9.345 5.26635 11.421C5.25328 12.4524 5.63594 13.3906 6.27003 14.0969C6.55555 14.4149 6.64382 14.864 6.50772 15.2692L6.26307 15.9975C6.18348 16.2344 6.45983 16.4304 6.65706 16.2769L7.56042 15.5742C7.82927 15.3651 8.17407 15.2827 8.5095 15.3422C8.85866 15.4041 9.22335 15.4199 9.59738 15.3818C11.5653 15.1813 13.0889 13.5218 13.1223 11.5439C13.1606 9.27854 11.2898 7.45765 9.03391 7.54879Z" fill="#5F6CFF"/>
</g>
<g filter="url(#filter1_d_484_1743)">
<path fill-rule="evenodd" clip-rule="evenodd" d="M17.3456 15.2963C17.0208 15.7037 16.9257 16.2477 17.11 16.7348L17.2408 17.0805C17.0875 17.2651 16.9248 17.4421 16.7538 17.6108L15.9711 17.049C15.6409 16.8123 15.2274 16.7238 14.8295 16.8056C14.5728 16.8587 14.2853 16.9067 14.0759 16.9107C11.7106 16.9555 9.75702 15.0747 9.7122 12.7093C9.6671 10.3463 11.5503 8.39044 13.9136 8.34565C16.2786 8.30084 18.2324 10.1817 18.2772 12.547C18.297 13.5847 17.9456 14.5435 17.3456 15.2963Z" fill="#F3F5F9"/>
</g>
<path fill-rule="evenodd" clip-rule="evenodd" d="M8.67916 14.0068C8.61635 14.3247 8.28984 14.5504 7.97189 14.4877C7.63069 14.4203 7.42977 14.0906 7.49258 13.7727C7.55678 13.447 7.86626 13.226 8.20754 13.2934C8.52549 13.3561 8.74337 13.6811 8.67916 14.0068ZM8.82244 12.5042C8.77504 12.7446 8.49142 12.7935 8.30527 12.7567C8.05715 12.7078 7.86769 12.5657 7.91509 12.3252C8.09716 11.4023 8.25024 10.0547 8.43231 9.13185C8.49199 8.82941 8.77391 8.70776 9.09178 8.77049C9.39425 8.83011 9.6166 9.05125 9.55684 9.35369C9.37477 10.2766 9.00452 11.5813 8.82244 12.5042Z" fill="#F3F5F9"/>
<path fill-rule="evenodd" clip-rule="evenodd" d="M14.8202 12.7707C14.4275 13.0899 14.4243 13.3075 14.4315 13.6845C14.4341 13.8222 14.3646 13.983 14.0094 13.9897C13.7123 13.9953 13.6087 13.8885 13.6015 13.5116C13.5897 12.8882 13.8596 12.5858 14.0664 12.4006C14.3017 12.1931 14.7033 11.9607 14.6959 11.5693C14.6896 11.2359 14.3967 11.0819 14.0342 11.0887C13.2948 11.1027 13.4649 11.6579 13.0735 11.6653C12.8778 11.669 12.6361 11.5431 12.6307 11.2603C12.6233 10.869 13.0618 10.2805 14.0404 10.262C14.9682 10.2444 15.594 10.7474 15.6069 11.4288C15.6198 12.1101 15.0131 12.6147 14.8202 12.7707ZM14.5949 15.0373C14.6006 15.3345 14.359 15.6001 14.0473 15.606C13.7356 15.6119 13.4915 15.3555 13.4859 15.0584C13.4801 14.7539 13.7218 14.4955 14.0261 14.4897C14.3306 14.484 14.5892 14.7329 14.5949 15.0373Z" fill="#00D9CD"/>
<path opacity="0.7" d="M27.9482 14.0923C27.9459 13.9712 27.9135 13.8625 27.8511 13.7661C27.7887 13.6663 27.6709 13.5777 27.4978 13.5002C27.3281 13.4227 27.0777 13.3534 26.7468 13.2923C26.4563 13.2339 26.1891 13.1633 25.9452 13.0804C25.7047 12.9941 25.4974 12.8886 25.3234 12.7641C25.1494 12.6395 25.0137 12.4906 24.9162 12.3175C24.8187 12.1443 24.7678 11.9434 24.7634 11.7147C24.7592 11.4926 24.804 11.2815 24.8978 11.0812C24.9916 10.8808 25.1279 10.7033 25.3067 10.5484C25.4855 10.3936 25.7035 10.27 25.9609 10.1777C26.2216 10.0852 26.5135 10.036 26.8364 10.0298C27.2939 10.0212 27.6873 10.0911 28.0165 10.2397C28.349 10.3848 28.6052 10.5869 28.7851 10.846C28.965 11.1017 29.058 11.3927 29.0642 11.719L27.8481 11.742C27.8454 11.5974 27.8058 11.4635 27.7294 11.3405C27.6564 11.214 27.5468 11.1134 27.4007 11.0388C27.2545 10.9608 27.0721 10.9239 26.8534 10.928C26.6449 10.932 26.4723 10.9689 26.3356 11.0388C26.2023 11.1052 26.1029 11.1912 26.0376 11.2968C25.9757 11.4023 25.9459 11.5173 25.9483 11.6417C25.95 11.7326 25.9684 11.8147 26.0034 11.888C26.0418 11.958 26.1035 12.0224 26.1888 12.0814C26.274 12.137 26.3894 12.1886 26.535 12.2363C26.6839 12.284 26.8699 12.3293 27.0928 12.3722C27.5116 12.4517 27.872 12.5576 28.174 12.6899C28.4793 12.8187 28.7147 12.9892 28.8802 13.2014C29.0457 13.4103 29.1316 13.6779 29.1377 14.0042C29.1423 14.2464 29.0944 14.4694 28.9939 14.6732C28.8968 14.8736 28.7521 15.0496 28.5598 15.2013C28.3674 15.3497 28.1357 15.4668 27.8648 15.5527C27.5972 15.6385 27.2952 15.6846 26.9588 15.691C26.4643 15.7004 26.0439 15.6209 25.6974 15.4524C25.3509 15.2807 25.0859 15.0585 24.9024 14.7861C24.7222 14.5102 24.6292 14.2225 24.6236 13.9232L25.7993 13.9009C25.817 14.126 25.8826 14.3048 25.9962 14.4372C26.113 14.5663 26.2562 14.6595 26.4255 14.7168C26.5981 14.7708 26.7753 14.796 26.9569 14.7926C27.1756 14.7884 27.3584 14.7564 27.5053 14.6964C27.6522 14.633 27.7633 14.5501 27.8388 14.4478C27.9142 14.342 27.9506 14.2235 27.9482 14.0923ZM32.1469 7.7385L32.2938 15.489L31.0828 15.5119L30.9359 7.76145L32.1469 7.7385ZM32.0263 12.5613L31.6326 12.5637C31.6288 12.1869 31.6744 11.8378 31.7692 11.5163C31.8675 11.1947 32.0069 10.9145 32.1874 10.6755C32.3713 10.4331 32.5932 10.2455 32.8531 10.1127C33.113 9.97652 33.4028 9.90541 33.7223 9.89935C33.9915 9.89425 34.2344 9.92666 34.4511 9.99659C34.6711 10.0665 34.8618 10.1823 35.023 10.3441C35.1842 10.5026 35.3076 10.7123 35.3933 10.9731C35.4823 11.2306 35.5303 11.546 35.5374 11.9194L35.6039 15.4263L34.3828 15.4494L34.3161 11.9324C34.3111 11.67 34.2685 11.4622 34.1882 11.3089C34.1113 11.1556 33.9998 11.0466 33.8539 10.9821C33.7079 10.9142 33.5307 10.8822 33.3221 10.8862C33.1034 10.8903 32.9108 10.9377 32.7443 11.0284C32.5811 11.119 32.4455 11.241 32.3373 11.3945C32.2292 11.548 32.1484 11.7245 32.095 11.924C32.0449 12.1235 32.022 12.336 32.0263 12.5613ZM40.7535 14.2333L40.7041 11.6297C40.7004 11.4345 40.6619 11.267 40.5886 11.1271C40.5153 10.9871 40.4056 10.8798 40.2595 10.8052C40.1167 10.7305 39.9377 10.6952 39.7224 10.6993C39.5239 10.703 39.353 10.7399 39.2096 10.81C39.0662 10.88 38.9553 10.9729 38.8767 11.0888C38.7981 11.2047 38.7602 11.335 38.763 11.4797L37.552 11.5026C37.5479 11.2873 37.5961 11.0778 37.6965 10.874C37.797 10.6702 37.9449 10.4873 38.1404 10.3254C38.3359 10.1636 38.5707 10.0346 38.8448 9.93857C39.1189 9.84252 39.4276 9.79124 39.7707 9.78474C40.1811 9.77696 40.5457 9.83904 40.8645 9.97097C41.1867 10.1028 41.4413 10.3066 41.6282 10.5824C41.8184 10.8547 41.9175 11.1995 41.9254 11.6166L41.9714 14.0437C41.9761 14.2926 41.9972 14.516 42.0346 14.7138C42.0753 14.9082 42.1306 15.0771 42.2007 15.2205L42.2022 15.3012L40.9559 15.3248C40.8962 15.1947 40.8476 15.0291 40.8102 14.8279C40.776 14.6233 40.7571 14.4251 40.7535 14.2333ZM40.8879 12.0047L40.9122 12.7564L40.0393 12.7729C39.8139 12.7772 39.6159 12.8028 39.4451 12.8498C39.2743 12.8934 39.1325 12.9567 39.0197 13.0396C38.9068 13.1225 38.8229 13.2217 38.7679 13.3371C38.7129 13.4526 38.6867 13.5826 38.6895 13.7273C38.6922 13.8719 38.7284 14.0042 38.7979 14.124C38.8674 14.2405 38.9668 14.3311 39.0959 14.396C39.2283 14.4608 39.3871 14.4914 39.5721 14.4879C39.821 14.4832 40.037 14.4286 40.2201 14.3242C40.4065 14.2163 40.5522 14.0874 40.657 13.9373C40.7618 13.7839 40.8163 13.6399 40.8204 13.5052L41.2242 14.0376C41.1865 14.1763 41.1203 14.3256 41.0258 14.4856C40.9312 14.6456 40.8063 14.7994 40.6509 14.947C40.4988 15.0912 40.3143 15.2108 40.0974 15.3058C39.8838 15.4007 39.6358 15.4508 39.3532 15.4562C38.9966 15.4629 38.6774 15.3983 38.3955 15.2623C38.1136 15.1229 37.8912 14.9337 37.7285 14.6945C37.5658 14.4519 37.4815 14.1759 37.4756 13.8664C37.4701 13.5771 37.5191 13.3204 37.6225 13.0964C37.7293 12.8689 37.8872 12.6774 38.0962 12.522C38.3087 12.3666 38.5689 12.2472 38.8769 12.164C39.1848 12.0774 39.5373 12.0303 39.9342 12.0228L40.8879 12.0047ZM45.2654 10.8214L45.3491 15.2416L44.1331 15.2646L44.0296 9.80499L45.1902 9.783L45.2654 10.8214ZM46.9152 9.71498L46.9265 10.8454C46.8523 10.8334 46.7713 10.8248 46.6838 10.8198C46.5995 10.8146 46.5154 10.8129 46.4313 10.8145C46.2227 10.8184 46.04 10.8522 45.883 10.9157C45.726 10.9759 45.5947 11.0625 45.4892 11.1755C45.3869 11.2852 45.3087 11.4179 45.2544 11.5737C45.2002 11.7295 45.1698 11.9034 45.1633 12.0954L44.8862 12.1208C44.8797 11.7777 44.9073 11.4591 44.969 11.1652C45.0308 10.8713 45.1268 10.612 45.2572 10.3875C45.3909 10.1628 45.5592 9.98633 45.762 9.85798C45.9682 9.72956 46.2075 9.66277 46.48 9.65761C46.554 9.6562 46.6332 9.66143 46.7176 9.67329C46.8053 9.68509 46.8712 9.69899 46.9152 9.71498ZM50.9503 15.2364C50.5466 15.2441 50.1804 15.1854 49.8516 15.0604C49.5261 14.9319 49.2468 14.7505 49.0135 14.516C48.7836 14.2814 48.605 14.0038 48.4778 13.6831C48.3506 13.3625 48.2834 13.0155 48.2763 12.6421L48.2725 12.4403C48.2644 12.013 48.3193 11.625 48.4372 11.2762C48.5551 10.9273 48.7228 10.628 48.9401 10.3782C49.1574 10.1251 49.4162 9.93007 49.7165 9.79314C50.0167 9.65621 50.3435 9.5844 50.6967 9.5777C51.0869 9.57031 51.4296 9.62944 51.7247 9.75508C52.0199 9.88073 52.2656 10.0612 52.4619 10.2964C52.6614 10.5281 52.8114 10.8063 52.9118 11.1308C53.0155 11.4553 53.0711 11.8143 53.0786 12.2078L53.0884 12.7276L48.8701 12.8075L48.8535 11.9346L51.871 11.8774L51.8691 11.7815C51.8583 11.563 51.8106 11.3586 51.7263 11.1684C51.6453 10.9781 51.5229 10.8257 51.3592 10.711C51.1955 10.5963 50.9791 10.5415 50.71 10.5466C50.5082 10.5504 50.329 10.5976 50.1726 10.688C50.0194 10.7751 49.8923 10.9003 49.791 11.0637C49.6898 11.2272 49.6128 11.4238 49.5599 11.6537C49.5104 11.8801 49.4883 12.1345 49.4936 12.4171L49.4974 12.6189C49.502 12.8578 49.5381 13.0792 49.6059 13.2832C49.677 13.4837 49.7779 13.6585 49.9086 13.8075C50.0393 13.9564 50.1963 14.0729 50.3797 14.1569C50.5629 14.2376 50.7706 14.2757 51.0027 14.2713C51.2953 14.2658 51.5549 14.202 51.7815 14.0799C52.008 13.9578 52.2033 13.7875 52.3674 13.5691L53.02 14.1776C52.9055 14.3513 52.7556 14.5191 52.5702 14.6808C52.3847 14.8391 52.1567 14.9696 51.8861 15.0723C51.6188 15.1749 51.3069 15.2297 50.9503 15.2364Z" fill="#8591EF"/>
<defs>
<filter id="filter0_d_484_1743" x="1.80208" y="5.94663" width="14.7848" height="15.714" filterUnits="userSpaceOnUse" color-interpolation-filters="sRGB">
<feFlood flood-opacity="0" result="BackgroundImageFix"/>
<feColorMatrix in="SourceAlpha" type="matrix" values="0 0 0 0 0 0 0 0 0 0 0 0 0 0 0 0 0 0 127 0" result="hardAlpha"/>
<feOffset dy="1.86525"/>
<feGaussianBlur stdDeviation="1.73202"/>
<feColorMatrix type="matrix" values="0 0 0 0 0.239216 0 0 0 0 0.337255 0 0 0 0 0.941176 0 0 0 0.29 0"/>
<feBlend mode="normal" in2="BackgroundImageFix" result="effect1_dropShadow_484_1743"/>
<feBlend mode="normal" in="SourceGraphic" in2="effect1_dropShadow_484_1743" result="shape"/>
</filter>
<filter id="filter1_d_484_1743" x="6.24739" y="6.74619" width="15.4947" height="16.1939" filterUnits="userSpaceOnUse" color-interpolation-filters="sRGB">
<feFlood flood-opacity="0" result="BackgroundImageFix"/>
<feColorMatrix in="SourceAlpha" type="matrix" values="0 0 0 0 0 0 0 0 0 0 0 0 0 0 0 0 0 0 127 0" result="hardAlpha"/>
<feOffset dy="1.86525"/>
<feGaussianBlur stdDeviation="1.73202"/>
<feColorMatrix type="matrix" values="0 0 0 0 0.239216 0 0 0 0 0.337255 0 0 0 0 0.941176 0 0 0 0.28 0"/>
<feBlend mode="normal" in2="BackgroundImageFix" result="effect1_dropShadow_484_1743"/>
<feBlend mode="normal" in="SourceGraphic" in2="effect1_dropShadow_484_1743" result="shape"/>
</filter>
</defs>
</svg>
